<?xml version="1.0" standalone="no"?>
<!DOCTYPE svg PUBLIC "-//W3C//DTD SVG 1.1//EN" "http://www.w3.org/Graphics/SVG/1.1/DTD/svg11.dtd" >
<svg xmlns="http://www.w3.org/2000/svg" xmlns:xlink="http://www.w3.org/1999/xlink" version="1.1">
<metadata>
Created by FontForge 20201107 at Thu Jun 22 15:21:58 2023
 By 
Copyright 2023 The Sen Project Authors (https://github.com/philatype/Sen/)
</metadata>
<defs>
<font id="Sen-ExtraBold" horiz-adv-x="649" >
  <font-face 
    font-family="Sen ExtraBold"
    font-weight="800"
    font-stretch="normal"
    units-per-em="1024"
    panose-1="0 0 0 0 0 0 0 0 0 0"
    ascent="819"
    descent="-205"
    x-height="510"
    cap-height="670"
    bbox="-250 -255 1002 920"
    underline-thickness="50"
    underline-position="-125"
    unicode-range="U+000D-263A"
  />
<missing-glyph horiz-adv-x="708" 
d="M80 -100v820h548v-820h-548zM257 65h194v490h-194v-490z" />
    <glyph glyph-name="smileface" unicode="&#x3a;D" horiz-adv-x="579" 
d="M376 -6q-52 -18 -105 -14t-100 27t-82.5 62.5t-53.5 91.5q-18 53 -14 105.5t27 99.5t62.5 82.5t91.5 53.5q71 24 140 9.5t123.5 -60.5t78.5 -116t9.5 -139.5t-60.5 -123.5t-117 -78zM297 1q0 4 3 4q6 2 8 -3v-1q5 1 10.5 1.5t9.5 1.5q-2 0 -2 2q-2 6 4 8q5 2 7 -4
q0 -3 -1 -5q15 3 34 9q64 22 106.5 72t56 114t-9.5 128q-22 65 -72 107t-113.5 55.5t-127.5 -8.5q-8 -2 -15.5 -5.5t-14.5 -7.5v-1q2 -6 -3 -8t-7 4q-4 -2 -9 -5l-10 -6q-2 -2 -3 -2l-11 -8q5 0 6 -4q2 -5 -4 -7q-5 -2 -7 4v3q-7 -6 -14 -13l-14 -14q3 -5 -3 -7q-1 -1 -3 0
q-4 -6 -6 -8q3 -3 3 -4q2 -5 -3 -7q-4 -1 -7 2l-2 -4t-3 -4q5 0 6 -5q2 -5 -4 -7q-4 -1 -7 3l-6 -11q5 2 7 -4q2 -5 -3 -7t-7 4q-2 -4 -4 -10q4 0 5 -3q2 -6 -4 -8q-4 0 -5 2l-3 -11l3 -3q2 -5 -5 -7q-1 -1 -3 -1q-3 -12 -5 -24.5t-3 -26.5q4 -2 5 -4q2 -5 -4 -7l-1 -1
q0 -7 0.5 -15.5t1.5 -17.5q2 -2 2 -3q2 -3 -1 -6l2 -8t2 -9q5 3 7 -3t-4 -7v-1q1 -2 2 -5l2 -6l3 -8q5 2 7 -4q2 -5 -3 -7q2 -4 4 -7.5t3 -7.5q5 0 5 -4q2 -2 0 -4q7 -15 18 -28l0.5 0.5t1.5 0.5q5 2 7 -3t-2 -7q6 -7 12.5 -13t12.5 -13q4 0 6 -4v-1q3 -2 7 -6q2 3 4 3
q5 2 7 -3q0 -5 -2 -6q4 -4 11 -7q-2 5 3 7q6 2 8 -4q2 -5 -4 -7q15 -9 30 -15q0 1 -1 2q-2 5 4 7q5 2 7 -3q2 -6 -3 -9h-2q5 -2 13 -4q-2 7 4 9q5 2 7 -5q1 -4 -3 -7l11 -3q0 4 4 4q5 2 7 -3v-3q2 -1 4.5 -1t4.5 -1l1 1q5 2 7 -2q9 -1 18 -1.5t19 0.5zM118 79q-5 -2 -7 4
q-2 5 4 7q5 2 7 -4q2 -5 -4 -7zM90 115q-6 -2 -8 3q-2 6 4 8q5 2 7 -3q2 -6 -3 -8zM136 72q-5 -2 -7 3t4 7q5 2 7 -3t-4 -7zM183 28q-5 -2 -7 3t3 7t7 -3t-3 -7zM109 105q-1 -1 -4 0.5t-4 3.5q-2 5 5 7q5 2 7 -4q2 -5 -4 -7zM155 61q-5 -2 -7 4t3 8q7 2 9 -5q3 -5 -5 -7z
M81 142q-5 -2 -7 3t3 7t7 -3t-3 -7zM127 98q-5 -2 -7 3q-2 6 4 8q5 2 7 -4q2 -5 -4 -7zM174 54q-5 -2 -7 3q-2 6 3 8t7 -4q2 -5 -3 -7zM98 132q-6 0 -6 6q0 5 6 5q5 0 5 -5q0 -6 -5 -6zM146 88q-5 -2 -7 4q-2 5 3 7q6 2 8 -3q1 -4 -4 -8zM193 45q-5 -2 -7 3q-3 5 3 7
q5 2 7 -3t-3 -7zM71 169q-5 -2 -7 5q-2 5 4 7q5 2 7 -4t-4 -8zM118 125q-5 -2 -7 4q-2 5 4 7q5 2 7 -4q2 -5 -4 -7zM165 81q-5 -2 -7 4q-2 5 3 7t7 -4q2 -5 -3 -7zM212 37q-7 -2 -9 4q-2 5 5 7q5 2 7 -4q2 -5 -3 -7zM91 159q-6 -2 -8 3t4 7q5 2 7 -3t-3 -7zM137 115
q-5 -2 -7 3q-1 6 3 8q6 2 8 -3q2 -6 -4 -8zM184 72q-5 -2 -7 3t3 7t7 -3t-3 -7zM62 196q-5 -2 -7 4q-3 5 4 7q5 2 7 -3q2 -6 -4 -8zM230 28q-5 -2 -7 3q-2 6 4 8q5 2 7 -4q2 -5 -4 -7zM109 151q-6 -2 -8 4q-2 5 5 7q5 2 7 -4q2 -5 -4 -7zM155 107q-5 -2 -7 4q-2 5 3 7t9 -4
q2 -5 -5 -7zM202 63q-6 -2 -8 4t4 8q5 2 7 -3q2 -7 -3 -9zM248 20q-5 -2 -7 4q-2 5 3 7q6 2 8 -3q2 -6 -4 -8zM81 189q-6 -2 -8 4q-2 5 4 7q5 2 7 -4q2 -5 -3 -7zM128 142q-5 -2 -7 3q-2 6 4 8q5 2 7 -4q2 -5 -4 -7zM175 98q-5 -2 -7 3q-2 6 3 8t7 -4q2 -5 -3 -7zM52 224
q-5 -2 -7 3t4 7t8 -3t-5 -7zM99 180q-5 -2 -7 3t3 7t7 -3t-3 -7zM268 10q-5 -2 -7 4t3 8t7 -5q3 -5 -3 -7zM144 134q-5 0 -5 6q0 5 5 5q6 0 6 -5q0 -6 -6 -6zM72 215q-6 -2 -8 4t4 8q5 2 7 -4t-3 -8zM119 168q-5 -2 -7 5q-2 5 4 7q5 2 7 -4t-4 -8zM286 3q-5 -2 -7 3t3 7
t7 -3t-3 -7zM90 206q-5 -2 -7 3q-2 6 3 8q6 2 8 -4q2 -5 -4 -7zM137 161q-5 -2 -7 3t3 8q6 2 8 -4q2 -5 -4 -7zM61 242q-6 0 -6 6q0 5 6 5q5 0 5 -5q0 -6 -5 -6zM109 198q-6 -2 -8 4q-2 5 5 7q5 3 7 -3t-4 -8zM81 233q-5 -2 -7 4q-3 5 3 7t8 -4q2 -5 -4 -7zM128 189
q-6 -2 -8 4q-2 5 4 7q5 2 7 -4q2 -5 -3 -7zM53 269q-6 -2 -8 3q-2 6 4 8t8 -3q2 -7 -4 -8zM99 226q-5 -2 -7 3t4 7q5 2 7 -3t-4 -7zM315 12q-6 -2 -8 4q-2 7 4 8q5 2 7 -4t-3 -8zM72 259q-5 -2 -7 4q-2 5 3 7q6 2 8 -4q2 -5 -4 -7zM90 252q-5 -2 -7 3q-2 6 4 8q5 2 7 -4
q2 -5 -4 -7zM137 208q-5 -2 -7 3q-2 6 3 8t7 -4q2 -5 -3 -7zM63 286q-5 -2 -7 4q-2 5 4 7q5 3 7 -3t-4 -8zM155 199q-5 -2 -7 3t4 7t8 -3t-5 -7zM81 279q-5 -2 -7 4q-2 5 4 7q5 2 7 -4q2 -5 -4 -7zM100 269q-5 -2 -7 3q-2 6 3 8t7 -3q2 -6 -3 -8zM72 305q-5 -2 -7 4
q-2 5 4 7q5 2 7 -4q2 -5 -4 -7zM119 261q-5 -2 -7 4q-2 5 3 7t7 -3q2 -6 -3 -8zM166 217q-6 -2 -8 4t4 8q5 2 7 -3q2 -7 -3 -9zM91 296q-5 -2 -7 3q-2 6 3 8t7 -4q2 -5 -3 -7zM324 50q22 0 49 9q2 1 5 2l6 2q-16 19 -39 29.5t-45 9.5t-34 -15q-10 2 -17.5 2.5t-16.5 -2.5
q8 -7 11 -10t14 -10q8 -4 15 -7t14 -5q18 -5 38 -5zM184 208q-5 -2 -7 4q-2 5 3 7t7 -4q2 -5 -3 -7zM110 289q-6 -2 -8 3q-2 6 4 7q6 2 8 -3t-4 -7zM82 322q-5 -2 -7 5q-2 5 3 7t7 -4t-3 -8zM100 315q-5 -2 -7 3t3 8q6 2 8 -4q3 -5 -4 -7zM193 228q-5 -2 -7 3q-2 6 4 8
q5 2 7 -4q2 -5 -4 -7zM120 305q-6 -2 -8 4q-2 5 4 7q5 2 7 -3q2 -6 -3 -8zM213 218q-7 -2 -9 3q-2 6 5 8q5 2 7 -3q2 -6 -3 -8zM91 342q-5 -2 -7 3q-2 6 3 8q6 2 8 -4q2 -5 -4 -7zM111 333q-2 -1 -5 0t-4 3q-2 5 5 7q5 2 7 -3t-3 -7zM203 245q-5 -2 -7 3t3 7t7 -3
q3 -5 -3 -7zM129 324q-5 -2 -7 5q-2 5 3 7t7 -4q2 -5 -3 -8zM99 358q-6 0 -6 6t6 6q5 0 5 -6t-5 -6zM222 237q-5 -2 -7 4q-2 5 3 7t7 -3q2 -6 -3 -8zM241 228q-6 -2 -8 4q-2 5 4 7q5 2 7 -4q2 -5 -3 -7zM138 342q-5 -2 -7 4q-2 5 4 7q5 2 7 -4q2 -5 -4 -7zM295 22
q-5 -2 -7 3q-2 6 3 8h1q-5 0 -11 2q0 -3 -4 -5q-5 -2 -7 3q-1 3 0 6l-7 3q-2 -4 -4 -5q-6 -2 -8 4q-1 3 1 5l-9 5q-2 -4 -4 -4q-5 -2 -7 3q-2 4 2 6q-3 2 -5.5 4t-4.5 3q0 -1 0.5 -1t0.5 -1q2 -5 -4 -7q-5 -2 -7 4q-2 5 4 7h3q-17 14 -28 26q-6 -2 -8 3q0 3 1 4
q-12 13 -20 27q-5 -2 -7 4q-2 4 2 6q-2 5 -5 9t-5 8q-2 0 -2 3q-1 2 0 3q-2 4 -2 6q-3 7 -1 14q-5 0 -6 4q-2 5 3 7t7 -3q1 0 1 -0.5v-0.5q4 5 17 9q0 3 4 5q3 1 7 -3q5 1 9 2l8 2v1q-2 5 4 7q5 2 8 -3v-2q5 1 10.5 2.5t10.5 2.5q-3 0 -5 4q-2 5 4 7q5 2 7 -4q2 -4 -2 -6
q6 2 12.5 3.5t12.5 3.5q-4 0 -6 4q-2 6 4 8t8 -3q2 -4 -2 -8q11 3 20 5.5t19 6.5q0 1 2 1q2 2 2 0l23 7l1.5 1.5l1.5 1.5h4q5 2 10.5 3.5t10.5 2.5q2 3 3 3q4 1 5 0q5 2 10.5 4t10.5 3q0 2 3 3h4q5 2 10.5 4t11.5 3l2 2h3q20 8 35 14.5t23 9.5q40 19 37 -53
q-2 -33 -14.5 -73t-42 -74.5t-82.5 -53.5q0 -5 -4 -6q-5 -2 -7 3q-5 -1 -9.5 -2t-9.5 -2l1 -1q2 -5 -4 -7q-5 -2 -7 3v4q-10 -1 -19 0t-19 2l2 -3q2 -5 -4 -7zM232 254q-5 -2 -7 4q-3 5 3 7q5 2 7 -4q2 -5 -3 -7zM111 379q-6 -2 -8 3q-2 6 4 7q5 2 7 -3t-3 -7zM114 233
q-5 -2 -8 2q-2 1 -2 5q0 2 2 3q-4 0 -4 3q-2 6 4 7q5 2 7 -3v-1q3 2 5.5 3.5t5.5 2.5h3q-3 12 -3 24q-2 2 -3 4q-2 5 4 7q1 13 8 30q9 20 27 34v1q-2 5 3 7q4 1 7 -2q8 5 15 6q1 1 1.5 1h0.5q2 4 4 5q4 1 7 -2q12 1 22 0q-3 1 -4 4q-2 6 4 8q5 2 7 -3q2 -7 -3 -9h-1
q3 -1 5.5 -1.5t5.5 -1.5q0 6 4 7q5 2 7 -4q1 -3 -2 -6q6 -2 10 -4q0 4 4 4q6 2 8 -3q1 -4 -2 -7q14 -9 23 -23q5 0 5 -4q3 -2 0 -5q6 -9 9 -19q2 -7 2.5 -12.5t1.5 -10.5v-2q6 0 6 -5q2 -6 -4 -7q-5 -2 -7 3q0 1 -0.5 1h-0.5q-5 -2 -9 1q-3 2 -3 7q-1 8 -5 19q-11 32 -39 46
q-25 13 -51 5l-1 -1q-8 -3 -17 -8q2 0 6 -2q9 -4 12.5 -13.5t-0.5 -17.5t-13 -11q-10 -3 -18 1t-13 12q-7 -22 0 -51q14 -1 26 -10v-0.5t1 -0.5q4 0 5 -4q2 -5 -4 -7h-3v0h-1q-4 -2 -6 1q-10 7 -24 7h-6t-6 -2q-4 -1 -7 -3l-6 -4q0 -1 -2 -1zM120 351q-5 -2 -7 4q-2 5 3 7
t7 -3q2 -6 -3 -8zM250 247q-6 -2 -8 3q-1 4 4 8q5 2 7 -4q2 -5 -3 -7zM129 368q-5 -2 -7 4t4 8q5 2 7 -5q2 -5 -4 -7zM269 237q-5 -2 -7 4q-2 5 4 7q5 2 7 -3q2 -6 -4 -8zM147 361q-5 -2 -7 3q-2 6 4 8q5 2 7 -4q2 -5 -4 -7zM120 395q-5 -2 -7 4q-2 5 4 7q5 2 7 -3
q2 -6 -4 -8zM288 227q-5 -2 -7 3q-2 6 4 8q5 2 7 -4q2 -5 -4 -7zM138 388q-5 -2 -7 4q-2 5 4 7q5 2 7 -4q2 -5 -4 -7zM278 256q-5 -2 -7 4q-2 5 4 7q5 2 7 -4q2 -5 -4 -7zM158 379q-6 -2 -8 3t3 7q6 2 8 -3q3 -5 -3 -7zM130 414q-6 -2 -8 4q-2 5 4 7q5 2 7 -4q2 -5 -3 -7z
M297 247q-5 -2 -7 3q-2 6 3 8q6 2 8 -4q2 -5 -4 -7zM176 370q-5 -2 -7 4t3 8q6 2 8 -4t-4 -8zM317 236q-5 -2 -7 4q-3 5 3 7q5 2 7 -4q3 -5 -3 -7zM148 405q-5 -2 -7 3q-2 6 3 8q6 2 8 -4q2 -5 -4 -7zM167 397q-5 -2 -7 4q-2 5 3 7q6 2 8 -3q2 -6 -4 -8zM184 388q-6 0 -6 6
q0 5 6 5t6 -5q0 -6 -6 -6zM326 256q-4 -1 -8 4q-2 5 4 7q5 2 7 -3q2 -6 -3 -8zM158 424q-7 -2 -8 4q-2 5 3 7q7 2 9 -3q2 -6 -4 -8zM204 381q-5 -2 -7 3t3 7t8 -3q2 -6 -4 -7zM345 246q-6 -2 -8 3t4 7q5 2 7 -3t-3 -7zM175 414q-6 0 -6 6q0 5 6 5t6 -5q0 -6 -6 -6zM317 284
q-5 -2 -7 3q-3 5 3 7q5 2 7 -3t-3 -7zM195 407q-5 -2 -7 3q-2 6 3 8t7 -4q2 -5 -3 -7zM166 441q-5 0 -5 6t5 6q6 0 6 -6t-6 -6zM213 397q-7 0 -7 6t7 6q5 0 5 -6t-5 -6zM307 310q-5 -2 -7 3q-2 6 3 8q6 2 8 -4t-4 -7zM186 434q-5 -2 -7 4q-2 5 3 7t7 -4q2 -5 -3 -7zM353 266
q-5 -2 -7 3q-2 7 4 9q5 2 7 -5q2 -5 -4 -7zM232 390q-5 -2 -7 4q-2 5 4 7q5 2 7 -4q2 -5 -4 -7zM279 346q-5 -2 -7 4q-2 5 3 7q6 2 8 -4q2 -5 -4 -7zM373 255q-5 -2 -7 4q-2 5 4 7q5 2 7 -4q2 -5 -4 -7zM203 424q-6 0 -6 6t6 6t6 -6t-6 -6zM251 381q-5 -2 -7 3q-2 6 4 8
q5 2 7 -4q2 -5 -4 -7zM298 337q-5 -2 -7 4q-3 5 3 7q5 2 7 -4q2 -5 -3 -7zM222 416q-6 0 -6 6t6 6q5 0 5 -6t-5 -6zM270 372q-5 -2 -7 5q-2 5 3 7q6 2 8 -3q2 -7 -4 -9zM196 451q-6 -2 -8 4q-2 5 4 7q5 2 7 -4q2 -5 -3 -7zM363 286q-6 -2 -8 3t4 7t8 -3t-4 -7zM242 407
q-5 -2 -7 4q-2 5 4 7q5 2 7 -4q2 -5 -4 -7zM289 363q-5 -2 -7 4q-2 5 3 7t7 -4q2 -5 -3 -7zM214 444q-4 -2 -8 3q-2 5 5 7q5 2 7 -3t-4 -7zM382 276q-5 -2 -7 4q-2 5 3 7q6 2 8 -3q2 -6 -4 -8zM261 400q-6 -2 -8 3t3 7q7 2 9 -3t-4 -7zM307 356q-6 -2 -8 3t4 7t8 -3
q2 -6 -4 -7zM401 265q-5 -2 -7 3q-2 6 3 8q6 2 7 -4q2 -5 -3 -7zM233 434q-5 -2 -7 4q-2 5 4 7q5 2 7 -4q2 -5 -4 -7zM280 390q-5 -2 -7 4q-2 5 3 7t7 -3q2 -6 -3 -8zM251 426q-6 -2 -7 4q-2 6 3 8q6 2 8 -4q1 -4 -4 -8zM298 383q-5 -2 -7 3q-2 6 3 8t7 -4q2 -5 -3 -7z
M224 460q-5 -2 -7 4q-2 5 4 7q5 2 7 -3q2 -6 -4 -8zM391 295q-5 -2 -7 4q-2 5 3 7t7 -4q2 -5 -3 -7zM271 417q-5 -2 -7 3t3 8q6 2 7 -4q2 -5 -3 -7zM318 373q-6 -2 -8 4q-3 5 4 7q5 2 7 -3q2 -6 -3 -8zM242 453q-5 -2 -7 4q-2 5 4 7q5 2 7 -4q2 -5 -4 -7zM410 286
q-5 -2 -7 3q-2 6 3 8q6 2 8 -4t-4 -7zM289 409q-5 -2 -7 4q-2 5 3 7t7 -4q2 -5 -3 -7zM430 275q-2 -1 -4.5 0.5t-3.5 3.5q-2 5 4 7q5 2 7 -4q2 -5 -3 -7zM262 444q-6 -2 -8 3t3 7q7 2 9 -3t-4 -7zM308 400q-6 -2 -8 3q-2 6 4 8t8 -4t-4 -7zM280 436q-5 -2 -7 4q-2 5 3 7
t7 -3q2 -6 -3 -8zM326 392q-5 -2 -7 4q-2 5 4 7q5 2 7 -3q2 -6 -4 -8zM420 305q-6 -2 -8 3q-3 5 4 7q5 2 7 -3t-3 -7zM299 426q-6 -2 -8 5q-2 5 4 7q5 2 7 -4q2 -5 -3 -8zM271 463q-5 -2 -7 3t3 7t7 -3t-3 -7zM438 295q-5 -2 -7 4q-2 5 4 7q5 2 7 -4q2 -5 -4 -7zM317 419
q-5 -2 -7 3q-1 2 0.5 4.5t3.5 3.5q6 2 7 -4q2 -5 -4 -7zM290 453q-6 -2 -8 4q-2 5 4 7q5 2 7 -4q2 -5 -3 -7zM335 276q-6 -2 -8 4v4q-1 1 -2 2.5l-3 4.5q-3 9 -4.5 18.5t-2.5 19.5q-3 0 -7 4q-2 5 5 7q1 1 2 1q1 19 8.5 36t23.5 30q-2 4 3 6q3 0 5 -1q9 6 20 9q1 0 1 0.5
t1 0.5q17 6 35 3.5t34 -11.5q34 -19 48 -65q2 -7 3 -12.5t2 -10.5q0 -7 -6 -9q-5 -2 -9 0q-4 4 -4 6q-1 10 -5 20q-13 41 -44 57q-23 11 -48 3q-4 -1 -7.5 -3t-7.5 -4q1 0 2 -1q9 -4 12.5 -14.5t-1.5 -18.5q-3 -7 -12 -11q-10 -3 -21 2q-3 2 -5.5 4.5l-4.5 4.5
q-4 -13 -3.5 -29t6.5 -36q3 -7 -3 -13v-1q2 -5 -3 -7zM457 285q-5 -2 -7 3t4 7q5 2 7 -3q3 -5 -4 -7zM336 409q-5 -2 -7 4q-2 5 4 7q5 2 7 -3q2 -6 -4 -8zM307 446q-5 -3 -7 3t4 8t8 -4q2 -5 -5 -7zM327 436q-5 -2 -7 4q-2 5 4 7q5 2 7 -3q1 -4 -4 -8zM467 305q-6 -2 -8 3
q-2 6 4 7q6 2 8 -3t-4 -7zM345 429q-5 -2 -7 4q-2 5 3 7q6 2 8 -4q2 -5 -4 -7zM365 419q-6 -2 -8 3q-2 6 4 8t7 -4q2 -5 -3 -7z" />
    <glyph glyph-name="tt" unicode="tt" horiz-adv-x="876" 
d="M696 -15q-47 0 -87.5 22t-65 63t-24.5 99v206h-137v135h61q48 0 76.5 15t46.5 48.5t33 86.5h92v-150h134v-135h-134v-143q0 -37 15.5 -58.5t43.5 -21.5q24 0 43 5.5t38 16.5v-134q-16 -22 -50.5 -38.5t-84.5 -16.5zM294 -15q-48 0 -89.5 22t-67 63t-25.5 99v206h-72v105
q49 13 79.5 54t52.5 106h112v-130h144v-135h-144v-143q0 -37 14.5 -58.5t49.5 -21.5q30 0 49.5 10.5t38.5 21.5v-144q-16 -22 -54 -38.5t-88 -16.5z" />
    <glyph glyph-name=".notdef" horiz-adv-x="708" 
d="M80 -100v820h548v-820h-548zM257 65h194v490h-194v-490z" />
    <glyph glyph-name=".null" horiz-adv-x="0" 
 />
    <glyph glyph-name="nonmarkingreturn" horiz-adv-x="341" 
 />
    <glyph glyph-name="NULL" horiz-adv-x="0" 
 />
    <glyph glyph-name="NULL" horiz-adv-x="0" 
 />
    <glyph glyph-name="CR" unicode="&#xd;" horiz-adv-x="300" 
 />
    <glyph glyph-name="space" unicode=" " horiz-adv-x="300" 
 />
    <glyph glyph-name="exclam" unicode="!" horiz-adv-x="340" 
d="M99 240v430h142v-430h-142zM170 -19q-37 0 -63.5 26.5t-26.5 63.5q0 38 26.5 64t63.5 26t63.5 -26t26.5 -64q0 -37 -26.5 -63.5t-63.5 -26.5z" />
    <glyph glyph-name="quotedbl" unicode="&#x22;" horiz-adv-x="462" 
d="M260 401v294h142v-294h-142zM60 401v294h142v-294h-142z" />
    <glyph glyph-name="numbersign" unicode="#" horiz-adv-x="850" 
d="M393 0l203 670h131l-206 -670h-128zM80 140v130h620v-130h-620zM140 0l203 670h131l-206 -670h-128zM150 378v140h620v-140h-620z" />
    <glyph glyph-name="dollar" unicode="$" horiz-adv-x="573" 
d="M267 17q-54 0 -107.5 19t-93.5 47v165q44 -33 94 -54t101 -21q32 0 51.5 8t19.5 27q0 9 -6.5 16.5t-18.5 13.5t-29 11l-86 27q-51 17 -79 44.5t-39 62.5t-11 72q0 64 32.5 108t85.5 67t112 23q53 0 105.5 -13t84.5 -35v-165q-39 23 -77 40t-90 17q-20 0 -37 -4t-27 -12.5
t-10 -22.5q0 -22 26.5 -34t64.5 -26l65 -25q67 -25 94.5 -68.5t27.5 -87.5q0 -58 -34 -103.5t-91 -71t-128 -25.5zM226 -44v128h117v-128h-117zM226 572v128h117v-128h-117z" />
    <glyph glyph-name="percent" unicode="%" horiz-adv-x="824" 
d="M263 -20l-110 57l408 683l113 -57zM192 379q-45 0 -79.5 20.5t-53.5 55.5t-19 77t19 77t53.5 55.5t79.5 20.5t79.5 -20.5t53.5 -55.5t19 -77t-19 -77t-53.5 -55.5t-79.5 -20.5zM193 485q19 0 32 14t13 33t-13 32.5t-32 13.5t-32.5 -13.5t-13.5 -32.5t13.5 -33t32.5 -14z
M632 -15q-45 0 -79.5 20.5t-53.5 55.5t-19 77t19 77t53.5 55.5t79.5 20.5t79.5 -20.5t53.5 -55.5t19 -77t-19 -77t-53.5 -55.5t-79.5 -20.5zM633 91q19 0 32 14t13 33t-13 32.5t-32 13.5t-32.5 -13.5t-13.5 -32.5t13.5 -33t32.5 -14z" />
    <glyph glyph-name="ampersand" unicode="&#x26;" horiz-adv-x="775" 
d="M270 -15q-66 0 -118 23t-82 65t-30 97q0 52 24.5 89t63.5 64t83 48t83 39t63.5 37.5t24.5 44.5q0 11 -5.5 21.5t-16 17t-24.5 6.5q-22 0 -33 -14t-11 -31q0 -18 15 -39.5t38.5 -46.5t47.5 -53q77 -87 160.5 -171.5t181.5 -181.5h-207q-48 48 -92.5 97t-92.5 100.5
t-107 106.5q-33 31 -61 62t-45 65.5t-17 77.5q0 46 28.5 86t79 65t116.5 25q65 0 115.5 -25t79.5 -65t29 -86q0 -37 -16 -64.5t-41 -48.5t-53.5 -38.5t-53.5 -33.5q-35 -22 -65.5 -38.5t-53.5 -31t-36 -29.5t-13 -35q0 -28 20 -42.5t44 -14.5q28 0 49 9t39.5 27t38.5 44
q28 36 52.5 68t43.5 69h178q-37 -66 -76.5 -121.5t-76.5 -102.5q-29 -37 -65 -69.5t-85.5 -52t-120.5 -19.5z" />
    <glyph glyph-name="quotesingle" unicode="'" horiz-adv-x="262" 
d="M60 376v294h142v-294h-142z" />
    <glyph glyph-name="parenleft" unicode="(" horiz-adv-x="403" 
d="M222 -200q-41 43 -78 112.5t-60.5 155.5t-23.5 177q0 65 13.5 130t36.5 125t52 109t60 81h151q-30 -34 -57.5 -86t-48.5 -114t-33 -125.5t-12 -119.5q0 -60 12 -124t33 -124.5t48.5 -111.5t57.5 -85h-151z" />
    <glyph glyph-name="parenright" unicode=")" horiz-adv-x="413" 
d="M191 -200h-151q30 34 57.5 85t48.5 111.5t33 124.5t12 124q0 56 -12 119.5t-33 125.5t-48.5 114t-57.5 86h151q31 -32 60 -81t52 -109t36.5 -125t13.5 -130q0 -91 -23.5 -177t-60.5 -155.5t-78 -112.5z" />
    <glyph glyph-name="asterisk" unicode="*" horiz-adv-x="498" 
d="M189 355l-101 73l69 86l-97 28l40 119l92 -39l-5 104h124l-5 -104l92 39l40 -119l-97 -28l69 -86l-101 -73l-60 93z" />
    <glyph glyph-name="plus" unicode="+" horiz-adv-x="610" 
d="M230 117v391h150v-391h-150zM110 238v150h390v-150h-390z" />
    <glyph glyph-name="comma" unicode="," horiz-adv-x="284" 
d="M138 -153l-122 16l90 249l142 -28z" />
    <glyph glyph-name="hyphen" unicode="-" horiz-adv-x="421" 
d="M60 188v150h301v-150h-301z" />
    <glyph glyph-name="period" unicode="." horiz-adv-x="252" 
d="M126 -19q-37 0 -63.5 26.5t-26.5 63.5q0 38 26.5 64t63.5 26t63.5 -26t26.5 -64q0 -37 -26.5 -63.5t-63.5 -26.5z" />
    <glyph glyph-name="slash" unicode="/" horiz-adv-x="474" 
d="M40 -200l263 905h131l-266 -905h-128z" />
    <glyph glyph-name="zero" unicode="0" horiz-adv-x="600" 
d="M300 -15q-64 0 -113.5 24.5t-82.5 71t-50 111t-17 143.5q0 80 17 144t50 110.5t82.5 71t113.5 24.5q65 0 114 -24.5t82 -71t50 -110.5t17 -144q0 -79 -17 -143.5t-50 -111t-82 -71t-114 -24.5zM300 140q19 0 32.5 12t22 36.5t12.5 61t4 85.5t-4 85.5t-12.5 61t-22 36.5
t-32.5 12t-32.5 -12t-22 -36.5t-12.5 -61t-4 -85.5t4 -85.5t12.5 -61t22 -36.5t32.5 -12z" />
    <glyph glyph-name="one" unicode="1" horiz-adv-x="600" 
d="M216 0v430q-29 -24 -66.5 -40t-69.5 -25v185q43 15 95 45t87 75h141v-670h-187zM75 0v165h463v-165h-463z" />
    <glyph glyph-name="two" unicode="2" horiz-adv-x="600" 
d="M80 0v76q90 94 147 158t84 109.5t27 81.5q0 38 -24 61.5t-64 23.5q-42 0 -86.5 -23.5t-73.5 -57.5v190q34 29 89.5 47.5t112.5 18.5q71 0 124.5 -27t83.5 -74t30 -108q0 -50 -11.5 -88.5t-34.5 -73.5t-57 -74t-78 -90h186v-150h-455z" />
    <glyph glyph-name="three" unicode="3" horiz-adv-x="600" 
d="M257 -15q-49 0 -95.5 13t-74.5 34v163q23 -14 45 -24.5t45 -15.5t48 -5q43 0 73 16.5t30 53.5q0 23 -15 34.5t-39.5 15t-51.5 3.5h-50v136h50h51.5t39.5 8.5t15 32.5q0 25 -15 40t-38.5 22.5t-49.5 7.5q-35 0 -64.5 -12.5t-58.5 -39.5v161q26 24 65.5 40t94.5 16
q75 0 133.5 -24.5t91.5 -68t33 -100.5q0 -45 -17.5 -77.5t-47 -52t-65.5 -24.5q36 -7 65.5 -25t47 -49t17.5 -76q0 -61 -36 -106.5t-96 -71t-131 -25.5z" />
    <glyph glyph-name="four" unicode="4" horiz-adv-x="600" 
d="M306 0v148h-258v130q53 60 99.5 120t92 127t92.5 145h141v-372h77v-150h-77v-148h-167zM244 298h62v88q-20 -28 -31.5 -46t-30.5 -42z" />
    <glyph glyph-name="five" unicode="5" horiz-adv-x="600" 
d="M270 -15q-52 0 -89 9.5t-62 23.5t-43 26v149q29 -14 53.5 -23.5t49.5 -14.5t54 -5q35 0 60.5 5t39 18t13.5 38q0 21 -12.5 37t-36.5 25t-59 9q-38 0 -69.5 -6t-59.5 -14v408h376v-165h-223v-104q20 8 48 13t51 5q46 0 86 -21.5t65.5 -62.5t25.5 -100q0 -87 -37.5 -142.5
t-98.5 -81.5t-132 -26z" />
    <glyph glyph-name="six" unicode="6" horiz-adv-x="600" 
d="M301 -15q-67 0 -126.5 31.5t-97 89t-37.5 136.5q0 54 14.5 105.5t38.5 99.5t53 89.5t59 75.5t55 58h217q-30 -29 -59 -57.5t-55.5 -56.5t-50 -57t-41.5 -61q22 14 40 17.5t36 3.5q56 0 105 -27t79.5 -77t30.5 -118q0 -57 -20.5 -103.5t-56.5 -80t-83.5 -51t-100.5 -17.5z
M301 150q22 0 37 10.5t23.5 27.5t8.5 37t-8.5 37t-23.5 27.5t-37 10.5q-21 0 -36.5 -10.5t-24 -27.5t-8.5 -37t8.5 -37t24 -27.5t36.5 -10.5z" />
    <glyph glyph-name="seven" unicode="7" horiz-adv-x="600" 
d="M137 0q0 61 16.5 125.5t42.5 129.5t57 128.5t59 121.5h-239v165h486v-72q-44 -90 -81.5 -163.5t-65 -141.5t-43 -138.5t-15.5 -154.5h-217z" />
    <glyph glyph-name="eight" unicode="8" horiz-adv-x="600" 
d="M300 -15q-66 0 -120.5 27t-87.5 76t-33 114q0 38 15.5 68.5t40.5 52t51 30.5q-33 16 -60 51t-27 93q0 60 30 102t80 64t111 22t111 -22t80 -64t30 -102q0 -58 -27 -93t-60 -51q27 -9 51.5 -30.5t40 -52t15.5 -68.5q0 -65 -32.5 -114t-87.5 -76t-121 -27zM300 136
q19 0 34 8t23.5 24.5t8.5 39.5q0 24 -8.5 40.5t-23.5 25t-34 8.5t-34 -8.5t-23.5 -25t-8.5 -40.5q0 -23 8.5 -39.5t23.5 -24.5t34 -8zM300 396q17 0 30.5 9t21.5 25t8 37t-8 36t-21.5 23t-30.5 8t-30.5 -8t-21.5 -23t-8 -36t8 -37t21.5 -25t30.5 -9z" />
    <glyph glyph-name="nine" unicode="9" horiz-adv-x="600" 
d="M299 685q67 0 126.5 -31.5t97 -89t37.5 -136.5q0 -54 -14.5 -105.5t-38.5 -99.5t-53 -89.5t-59 -75.5t-55 -58h-217q30 29 59 57.5t55.5 56.5t50 57.5t41.5 60.5q-22 -14 -40 -17.5t-36 -3.5q-55 0 -104.5 27t-80 77t-30.5 118q0 57 20.5 103.5t56.5 80t83.5 51
t100.5 17.5zM299 520q-21 0 -36.5 -10.5t-24 -27.5t-8.5 -37t8.5 -37t24 -27.5t36.5 -10.5q22 0 37 10.5t23.5 27.5t8.5 37t-8.5 37t-23.5 27.5t-37 10.5z" />
    <glyph glyph-name="colon" unicode=":" horiz-adv-x="340" 
d="M170 381q-37 0 -63.5 26.5t-26.5 63.5q0 38 26.5 64t63.5 26t63.5 -26t26.5 -64q0 -37 -26.5 -63.5t-63.5 -26.5zM170 -19q-37 0 -63.5 26.5t-26.5 63.5q0 38 26.5 64t63.5 26t63.5 -26t26.5 -64q0 -37 -26.5 -63.5t-63.5 -26.5z" />
    <glyph glyph-name="semicolon" unicode=";" horiz-adv-x="375" 
d="M205 381q-37 0 -63.5 26.5t-26.5 63.5q0 38 26.5 64t63.5 26t63.5 -26t26.5 -64q0 -37 -26.5 -63.5t-63.5 -26.5zM168 -153l-122 16l90 249l142 -28z" />
    <glyph glyph-name="less" unicode="&#x3c;" horiz-adv-x="610" 
d="M540 0l-470 276v51l470 266v-178l-246 -112l246 -125v-178z" />
    <glyph glyph-name="equal" unicode="=" horiz-adv-x="610" 
d="M110 343v150h391v-150h-391zM110 128v150h391v-150h-391z" />
    <glyph glyph-name="greater" unicode="&#x3e;" horiz-adv-x="610" 
d="M70 0v178l246 125l-246 112v178l470 -266v-51z" />
    <glyph glyph-name="question" unicode="?" horiz-adv-x="610" 
d="M193 218v40q0 22 17.5 41.5t43.5 38t52.5 37.5t44 39t17.5 43q0 34 -34 53.5t-79 19.5t-92 -15.5t-83 -53.5v155q35 30 83.5 49.5t121.5 19.5q60 0 116 -24t92.5 -71.5t36.5 -119.5q0 -40 -18.5 -69t-46 -51t-54.5 -39.5t-45 -34.5t-17 -37l1 -21h-157zM276 -19
q-37 0 -63.5 26.5t-26.5 63.5q0 38 26.5 64t63.5 26t63.5 -26t26.5 -64q0 -37 -26.5 -63.5t-63.5 -26.5z" />
    <glyph glyph-name="at" unicode="@" horiz-adv-x="794" 
d="M397 -107q-102 0 -184 43t-130 122t-48 185q0 80 27.5 147.5t77 117t115.5 77t142 27.5q77 0 142.5 -23t115 -67t77 -105.5t27.5 -138.5q0 -59 -23.5 -106t-66 -74t-101.5 -27q-43 0 -72.5 17.5t-39.5 35.5q-27 -29 -59 -41t-67 -12q-47 0 -81.5 20.5t-51 60t-11.5 96.5
q6 60 35 103t71 66t86 23q35 0 60 -13.5t36 -28.5l7 29h104l-43 -173q-10 -41 -1 -62.5t36 -21.5q13 0 29 8.5t28 32t12 67.5q0 84 -33.5 134t-90 72t-125.5 22q-68 0 -124.5 -31t-90.5 -89.5t-34 -142.5q0 -83 33 -137.5t89.5 -81t126.5 -26.5q37 0 65.5 2.5t52.5 9
t48 17.5l46 -87q-51 -25 -102.5 -36t-109.5 -11zM354 170q31 0 53.5 18t35.5 74l12 52q-26 16 -62 16q-28 0 -54 -19t-36 -63q-8 -37 9 -57.5t42 -20.5z" />
    <glyph glyph-name="A" unicode="A" horiz-adv-x="732" 
d="M15 0l304 680h94l304 -680h-218l-133 378l-133 -378h-218zM166 100v140h381v-140h-381z" />
    <glyph glyph-name="B" unicode="B" horiz-adv-x="694" 
d="M375 -15q-46 0 -103 4.5t-108.5 11.5t-83.5 14v645q61 12 129 19t140 7q88 0 149 -24.5t93.5 -68.5t32.5 -102q0 -51 -24.5 -88t-63.5 -59q31 -11 58 -28.5t43.5 -45.5t16.5 -73q0 -56 -32 -104.5t-94 -78t-153 -29.5zM372 140q41 0 61.5 21t20.5 52q0 30 -24 43t-65 13
h-128v125h134q33 0 51 16t18 47q0 18 -8.5 34t-24.5 26t-41 10q-24 0 -52.5 -2t-46.5 -6v-367q14 -4 34.5 -7t40.5 -4t30 -1z" />
    <glyph glyph-name="C" unicode="C" horiz-adv-x="612" 
d="M395 -15q-68 0 -131.5 23.5t-114 68.5t-80 110t-29.5 148t29.5 148t80 110t114 68.5t131.5 23.5q53 0 98 -15t79 -44v-181q-26 22 -50.5 36t-52.5 21.5t-67 7.5q-45 0 -83.5 -23t-62.5 -62.5t-24 -89.5t24 -89.5t62.5 -62.5t83.5 -23q58 0 94 16.5t76 48.5v-181
q-34 -29 -79 -44t-98 -15z" />
    <glyph glyph-name="D" unicode="D" horiz-adv-x="751" 
d="M368 -15q-46 0 -97.5 3.5t-100.5 10t-90 14.5v645q64 11 135.5 19.5t137.5 8.5q100 0 181 -40t129 -116t48 -184q0 -74 -24.5 -139.5t-69.5 -115.5t-108 -78t-141 -28zM359 160q51 0 86.5 23.5t54.5 63.5t19 89q0 52 -19 91.5t-54.5 61.5t-86.5 22q-23 0 -47.5 -3.5
t-44.5 -8.5v-327q23 -7 47 -9.5t45 -2.5z" />
    <glyph glyph-name="E" unicode="E" horiz-adv-x="644" 
d="M80 0v670h494v-155h-307v-355h307v-160h-494zM185 264v150h355v-150h-355z" />
    <glyph glyph-name="F" unicode="F" horiz-adv-x="615" 
d="M80 0v670h475v-165h-288v-505h-187zM157 226v165h348v-165h-348z" />
    <glyph glyph-name="G" unicode="G" horiz-adv-x="695" 
d="M395 -15q-68 0 -131.5 23.5t-114 68.5t-80 110t-29.5 148t29.5 148t80 110t114 68.5t131.5 23.5q53 0 98 -15t79 -44v-181q-26 22 -50.5 36t-52.5 21.5t-67 7.5q-45 0 -83.5 -23t-62.5 -62.5t-24 -89.5t24 -89.5t62.5 -62.5t83.5 -23q24 0 43.5 4.5t34 12t22.5 16.5
l138 -104q-31 -33 -69 -56t-82 -35.5t-94 -12.5zM479 29v209v1v120h161v-270z" />
    <glyph glyph-name="H" unicode="H" horiz-adv-x="774" 
d="M507 0v670h187v-670h-187zM80 0v670h187v-670h-187zM247 240v165h288v-165h-288z" />
    <glyph glyph-name="I" unicode="I" horiz-adv-x="573" 
d="M193 0v670h187v-670h-187zM70 0v155h433v-155h-433zM70 515v155h433v-155h-433z" />
    <glyph glyph-name="J" unicode="J" horiz-adv-x="374" 
d="M32 -255l-62 162q147 32 147 147v618h187v-625q0 -83 -34.5 -145t-95.5 -101t-142 -56z" />
    <glyph glyph-name="K" unicode="K" horiz-adv-x="710" 
d="M248 181l-119 87l338 402h215zM80 0v670h187v-670h-187zM465 0l-234 330l146 99l318 -429h-230z" />
    <glyph glyph-name="L" unicode="L" horiz-adv-x="618" 
d="M80 0v670h187v-505h291v-165h-478z" />
    <glyph glyph-name="M" unicode="M" horiz-adv-x="864" 
d="M80 0v680h66l286 -290l286 290h66v-680h-187v330l-137 -155h-56l-137 155v-330h-187z" />
    <glyph glyph-name="N" unicode="N" horiz-adv-x="772" 
d="M626 -10l-359 329v-319h-187v680h66l359 -335v325h187v-680h-66z" />
    <glyph glyph-name="O" unicode="O" horiz-adv-x="776" 
d="M388 -15q-68 0 -130.5 23.5t-111.5 68.5t-77.5 110t-28.5 148t28.5 148t77.5 110t111.5 68.5t130.5 23.5t130.5 -23.5t111.5 -68.5t77.5 -110t28.5 -148t-28.5 -148t-77.5 -110t-111.5 -68.5t-130.5 -23.5zM388 160q45 0 80.5 23t55.5 62.5t20 89.5t-20 89.5t-55.5 62.5
t-80.5 23t-80 -23t-55.5 -62.5t-20.5 -89.5t20.5 -89.5t55.5 -62.5t80 -23z" />
    <glyph glyph-name="P" unicode="P" horiz-adv-x="660" 
d="M70 0v670h287q51 0 99.5 -17.5t87.5 -52t62.5 -85.5t23.5 -118q0 -77 -36 -135t-94 -89.5t-123 -31.5q-49 0 -84 7t-58 23v147q20 -9 45.5 -15.5t54.5 -6.5q44 0 73.5 29t29.5 72q0 38 -13.5 59t-36.5 30t-53 9h-78v-495h-187z" />
    <glyph glyph-name="Q" unicode="Q" horiz-adv-x="775" 
d="M388 -15q-68 0 -130.5 23.5t-111.5 68.5t-77.5 110t-28.5 148t28.5 148t77.5 110t111.5 68.5t130.5 23.5t130.5 -23.5t111.5 -68.5t77.5 -110t28.5 -148t-28.5 -148t-77.5 -110t-111.5 -68.5t-130.5 -23.5zM755 -171q-60 0 -128 16.5t-130.5 51.5t-108.5 88l150 38
q29 -18 64 -26t74 -10t79 -2v-156zM388 160q45 0 80.5 23t55.5 62.5t20 89.5t-20 89.5t-55.5 62.5t-80.5 23t-80 -23t-55.5 -62.5t-20.5 -89.5t20.5 -89.5t55.5 -62.5t80 -23z" />
    <glyph glyph-name="R" unicode="R" horiz-adv-x="689" 
d="M80 0v670h287q51 0 99.5 -14t87.5 -43t62.5 -73t23.5 -103q0 -62 -30 -104.5t-80.5 -64t-112.5 -21.5q-13 0 -37 5t-51 11.5t-50 12.5t-34 8v95q20 -9 45.5 -16t54.5 -7q44 0 73.5 22.5t29.5 58.5q0 41 -29.5 59.5t-73.5 18.5h-78v-515h-187zM446 0l-191 284l168 49
l251 -333h-228z" />
    <glyph glyph-name="S" unicode="S" horiz-adv-x="573" 
d="M265 -15q-60 0 -119 21t-103 52v171q48 -36 108.5 -59t116.5 -23q35 0 51.5 13.5t16.5 34.5q0 10 -7 19t-20.5 17t-31.5 13l-95 30q-56 18 -87 48t-43 67.5t-12 77.5q0 71 36 119.5t94 73.5t123 25q59 0 116.5 -14.5t92.5 -38.5v-171q-43 25 -90 43.5t-104 18.5
q-22 0 -38 -7t-24.5 -18.5t-8.5 -27.5q0 -25 29 -39t71 -31l68 -27q73 -28 105.5 -71t32.5 -97q0 -64 -37 -113.5t-100 -78t-141 -28.5z" />
    <glyph glyph-name="T" unicode="T" horiz-adv-x="621" 
d="M217 0v670h187v-670h-187zM35 515v155h551v-155h-551z" />
    <glyph glyph-name="U" unicode="U" horiz-adv-x="746" 
d="M373 -15q-83 0 -152 33.5t-110 96.5t-41 150v407h187v-394q0 -34 12.5 -61t38 -42t65.5 -15t65.5 15t38 42t12.5 61v394h187v-407q0 -87 -41 -150t-109.5 -96.5t-152.5 -33.5z" />
    <glyph glyph-name="V" unicode="V" horiz-adv-x="734" 
d="M320 -5l-305 675h218l134 -368l134 368h218l-305 -675h-94z" />
    <glyph glyph-name="W" unicode="W" horiz-adv-x="984" 
d="M235 0l-220 670h218l91 -348l104 348h128l106 -348l89 348h218l-218 -670h-141l-117 355l-117 -355h-141z" />
    <glyph glyph-name="X" unicode="X" horiz-adv-x="736" 
d="M15 0l235 331l-235 339h230l133 -203l113 203h230l-225 -324l225 -346h-230l-123 200l-123 -200h-230z" />
    <glyph glyph-name="Y" unicode="Y" horiz-adv-x="741" 
d="M315 167l-300 503h218l138 -261l137 261h218l-300 -503h-111zM277 0v254h187v-254h-187z" />
    <glyph glyph-name="Z" unicode="Z" horiz-adv-x="699" 
d="M50 0v36l284 469h-262v165h567v-36l-285 -469h285v-165h-589z" />
    <glyph glyph-name="bracketleft" unicode="[" horiz-adv-x="419" 
d="M70 -200v890h319v-130h-162v-630h162v-130h-319z" />
    <glyph glyph-name="backslash" unicode="\" horiz-adv-x="414" 
d="M301 -200l-316 870h131l313 -870h-128z" />
    <glyph glyph-name="bracketright" unicode="]" horiz-adv-x="429" 
d="M359 -200h-319v130h162v630h-162v130h319v-890z" />
    <glyph glyph-name="asciicircum" unicode="^" horiz-adv-x="610" 
d="M44 330l211 340h91l221 -340h-168l-100 148l-87 -148h-168z" />
    <glyph glyph-name="underscore" unicode="_" horiz-adv-x="490" 
d="M0 -151v150h490v-150h-490z" />
    <glyph glyph-name="grave" unicode="`" horiz-adv-x="414" 
d="M212 560l-132 150h154l100 -150h-122z" />
    <glyph glyph-name="a" unicode="a" 
d="M255 -15q-57 0 -107 29t-81.5 89.5t-31.5 152.5q0 86 31.5 146t84 91.5t114.5 31.5q40 0 78.5 -17.5t63.5 -44.5v47h172v-510h-172v85q-19 -42 -58 -71t-94 -29zM306 159q22 0 45 11.5t39.5 35t16.5 60.5v49q-22 18 -49.5 30t-56.5 12q-25 0 -44.5 -14t-30.5 -37t-11 -50
t11.5 -49t32 -35t47.5 -13z" />
    <glyph glyph-name="b" unicode="b" 
d="M394 -15q-55 0 -94 29t-58 71v-85h-172v720h172v-257q25 27 63.5 44.5t78.5 17.5q62 0 114.5 -31.5t84 -91.5t31.5 -146q0 -92 -31 -152.5t-81.5 -89.5t-107.5 -29zM343 159q28 0 48 13t31.5 35t11.5 49t-11 50t-30.5 37t-44.5 14q-28 0 -55.5 -12t-50.5 -30v-49
q0 -37 16.5 -60.5t40 -35t44.5 -11.5z" />
    <glyph glyph-name="c" unicode="c" horiz-adv-x="472" 
d="M304 -15q-57 0 -106 21.5t-85.5 59t-57 85.5t-20.5 101t20.5 102t57 87.5t85.5 61t106 22.5q59 0 90.5 -18.5t57.5 -38.5v-150q-23 17 -52.5 27t-72.5 10q-23 0 -48 -12t-42 -34.5t-17 -56.5q0 -33 15 -56t39.5 -34.5t52.5 -11.5q43 0 72.5 10.5t52.5 26.5v-150
q-26 -20 -57.5 -36t-90.5 -16z" />
    <glyph glyph-name="d" unicode="d" 
d="M255 -15q-57 0 -107 29t-81.5 89.5t-31.5 152.5q0 86 31.5 146t84 91.5t114.5 31.5q40 0 78.5 -17.5t63.5 -44.5v257h172v-720h-172v85q-19 -42 -58 -71t-94 -29zM306 159q22 0 45 11.5t39.5 35t16.5 60.5v49q-22 18 -49.5 30t-56.5 12q-25 0 -44.5 -14t-30.5 -37
t-11 -50t11.5 -49t32 -35t47.5 -13z" />
    <glyph glyph-name="e" unicode="e" horiz-adv-x="578" 
d="M316 -15q-54 0 -104.5 18t-90.5 52t-63 82.5t-23 109.5q0 76 35.5 139t97 101t138.5 38q72 0 128 -32t87.5 -89.5t31.5 -136.5v-59h-361v104h198q0 24 -13 40t-33 23.5t-43 7.5q-30 0 -52.5 -14.5t-35.5 -44.5t-13 -77q0 -38 16.5 -63t45.5 -37t64 -12q58 0 100.5 16.5
t63.5 28.5v-147q-17 -11 -43.5 -22t-59.5 -18.5t-71 -7.5z" />
    <glyph glyph-name="f" unicode="f" horiz-adv-x="433" 
d="M116 0v536q0 58 26 102.5t71 70.5t102 26q38 0 65.5 -7t47.5 -18v-140q-15 8 -33.5 12.5t-41.5 4.5t-44 -14.5t-21 -43.5v-529h-172zM40 375v135h364v-135h-364z" />
    <glyph glyph-name="g" unicode="g" 
d="M288 -255q-42 0 -77 8t-66 22.5t-62 35.5v152q32 -18 58.5 -32t57.5 -22.5t73 -8.5t72 16t46.5 42.5t16.5 55.5v71q-19 -42 -58 -71t-94 -29q-57 0 -107 29t-81.5 89.5t-31.5 152.5q0 86 31.5 146t84 91.5t114.5 31.5q40 0 78.5 -17.5t63.5 -44.5v47h172v-495
q0 -81 -40 -141.5t-106 -94.5t-145 -34zM306 159q22 0 45 11.5t39.5 35t16.5 60.5v49q-22 18 -49.5 30t-56.5 12q-25 0 -44.5 -14t-30.5 -37t-11 -50t11.5 -49t32 -35t47.5 -13z" />
    <glyph glyph-name="h" unicode="h" horiz-adv-x="628" 
d="M391 0l-1 288q0 38 -21 53.5t-47 15.5q-28 0 -47 -14.5t-33 -34.5v136q16 22 36.5 40.5t47 29.5t60.5 11q52 0 92 -23.5t62.5 -70.5t22.5 -116v-315h-172zM70 0v720h172v-720h-172z" />
    <glyph glyph-name="i" unicode="i" horiz-adv-x="366" 
d="M199 588q-44 0 -76 30.5t-32 73.5q0 44 32 74t76 30q28 0 52.5 -14t39.5 -37.5t15 -52.5q0 -28 -15 -52t-39.5 -38t-52.5 -14zM128 0v510h172v-510h-172zM45 370v140h255v-140h-255z" />
    <glyph glyph-name="j" unicode="j" horiz-adv-x="382" 
d="M204 796q29 0 53.5 -14t39.5 -37.5t15 -52.5q0 -28 -15 -52t-39.5 -38t-53.5 -14t-53.5 14t-39.5 38t-15 52q0 44 32.5 74t75.5 30zM106 -255l-75 147q39 17 65.5 46t26.5 73v359h-83v140h255v-501q0 -104 -47.5 -169t-141.5 -95z" />
    <glyph glyph-name="k" unicode="k" horiz-adv-x="617" 
d="M218 98v197l187 215h198zM70 0v720h172v-720h-172zM395 0l-124 214l106 117l235 -331h-217z" />
    <glyph glyph-name="l" unicode="l" horiz-adv-x="312" 
d="M70 0v720h172v-720h-172z" />
    <glyph glyph-name="m" unicode="m" horiz-adv-x="919" 
d="M681 0v288q0 38 -19.5 53.5t-45.5 15.5q-23 0 -39.5 -14.5t-30.5 -34.5l-25 118q24 42 64.5 70.5t91.5 28.5q52 0 92 -23.5t62.5 -70.5t22.5 -116v-315h-173zM70 0v510h172v-510h-172zM375 0v288q0 38 -19.5 53.5t-45.5 15.5q-23 0 -38.5 -14.5t-29.5 -34.5v136
q16 22 33 40.5t39.5 29.5t56.5 11q60 0 104 -32t62 -94l11 -71v-328h-173z" />
    <glyph glyph-name="n" unicode="n" horiz-adv-x="628" 
d="M390 0v288q0 38 -21 53.5t-47 15.5q-28 0 -47 -14.5t-33 -34.5v136q16 22 36.5 40.5t47 29.5t60.5 11q52 0 92 -23.5t62.5 -70.5t22.5 -116v-315h-173zM70 0v510h172v-510h-172z" />
    <glyph glyph-name="o" unicode="o" horiz-adv-x="630" 
d="M315 -15q-53 0 -103 20t-90 56t-63.5 85.5t-23.5 108.5t23.5 108.5t63.5 85.5t90 56t103 20t103 -20t90 -56t63.5 -85.5t23.5 -108.5t-23.5 -108.5t-63.5 -85.5t-90 -56t-103 -20zM315 150q19 0 41 8t38 31t16 66q0 44 -16 66.5t-38 30.5t-41 8q-18 0 -40.5 -8
t-38.5 -30.5t-16 -66.5q0 -43 16 -66t38.5 -31t40.5 -8z" />
    <glyph glyph-name="p" unicode="p" 
d="M70 -240v750h172v-85q19 42 58 71t94 29q57 0 107.5 -29t81.5 -89t31 -153q0 -86 -31.5 -146t-84 -91.5t-114.5 -31.5q-40 0 -78.5 17.5t-63.5 44.5v-287h-172zM348 153q25 0 44.5 14t30.5 37t11 50q0 28 -11.5 49.5t-31.5 34.5t-48 13q-21 0 -44.5 -11.5t-40 -35
t-16.5 -60.5v-49q23 -18 50.5 -30t55.5 -12z" />
    <glyph glyph-name="q" unicode="q" 
d="M407 -240v325q-19 -42 -58 -71t-94 -29q-57 0 -107 29t-81.5 89.5t-31.5 152.5q0 86 31.5 146t84 91.5t114.5 31.5q40 0 78.5 -17.5t63.5 -44.5v47h172v-750h-172zM306 159q22 0 45 11.5t39.5 35t16.5 60.5v49q-22 18 -49.5 30t-56.5 12q-25 0 -44.5 -14t-30.5 -37
t-11 -50t11.5 -49t32 -35t47.5 -13z" />
    <glyph glyph-name="r" unicode="r" horiz-adv-x="438" 
d="M70 0v510h172v-510h-172zM242 262v157q24 41 53.5 71t77.5 30q26 0 45 -9v-190q-15 8 -31.5 12.5t-38.5 4.5q-35 0 -62 -21t-44 -55z" />
    <glyph glyph-name="s" unicode="s" horiz-adv-x="456" 
d="M227 -15q-38 0 -72.5 7.5t-64.5 20.5t-53 29v134q24 -15 53 -26.5t57.5 -18.5t52.5 -7q29 0 42.5 7t13.5 25q0 14 -16 21.5t-46 17.5l-51 16q-56 17 -82 53.5t-26 89.5t28 91t76.5 59t108.5 21q50 0 92.5 -14.5t68.5 -39.5v-135q-26 16 -59 30.5t-71 14.5
q-24 0 -42.5 -9.5t-18.5 -29.5q0 -14 11 -21t43 -15l31 -8q68 -17 100.5 -52.5t32.5 -90.5q0 -50 -29.5 -88.5t-77 -60t-102.5 -21.5z" />
    <glyph glyph-name="t" unicode="t" horiz-adv-x="481" 
d="M294 -15q-48 0 -89.5 22t-67 63t-25.5 99v206h-72v105q49 13 79.5 54t52.5 106h112v-130h144v-135h-144v-143q0 -37 14.5 -58.5t49.5 -21.5q30 0 49.5 10.5t38.5 21.5v-144q-16 -22 -54 -38.5t-88 -16.5z" />
    <glyph glyph-name="u" unicode="u" horiz-adv-x="618" 
d="M309 -15q-71 0 -126 26t-86.5 75t-31.5 118v306h173v-260q0 -52 16.5 -76t54.5 -24t54.5 24t16.5 76v260h173v-306q0 -69 -31.5 -118t-86.5 -75t-126 -26z" />
    <glyph glyph-name="v" unicode="v" horiz-adv-x="611" 
d="M251 0l-246 510h198l103 -258l102 258h198l-244 -510h-111z" />
    <glyph glyph-name="w" unicode="w" horiz-adv-x="824" 
d="M178 0l-173 510h178l75 -248l86 248h136l86 -248l75 248h178l-175 -510h-133l-99 301l-99 -301h-135z" />
    <glyph glyph-name="x" unicode="x" horiz-adv-x="626" 
d="M5 0l200 256l-190 254h195l103 -145l103 145h195l-190 -254l200 -256h-212l-96 144l-96 -144h-212z" />
    <glyph glyph-name="y" unicode="y" horiz-adv-x="622" 
d="M59 -240l221 390l145 360h192l-366 -750h-192zM250 -20l-245 530h198l166 -400z" />
    <glyph glyph-name="z" unicode="z" horiz-adv-x="564" 
d="M50 0v36l210 334h-200v140h449v-36l-221 -334h231v-140h-469z" />
    <glyph glyph-name="braceleft" unicode="{" horiz-adv-x="494" 
d="M330 -200q-52 0 -91.5 24.5t-61.5 66t-22 91.5v106q0 45 -14 63.5t-61 18.5v150q47 0 61 18.5t14 63.5v106q0 51 22 92t61.5 65.5t91.5 24.5h124v-130h-44q-43 0 -64 -14.5t-27.5 -36.5t-6.5 -44v-125q0 -31 -18 -55.5t-47 -39.5q29 -15 47 -39t18 -56v-125
q0 -22 6.5 -44t27.5 -36.5t64 -14.5h44v-130h-124z" />
    <glyph glyph-name="bar" unicode="|" horiz-adv-x="290" 
d="M80 -200v905h130v-905h-130z" />
    <glyph glyph-name="braceright" unicode="}" horiz-adv-x="494" 
d="M164 -200h-124v130h44q43 0 64 14.5t27.5 36.5t6.5 44v125q0 32 18.5 56t46.5 39q-28 15 -46.5 39.5t-18.5 55.5v125q0 22 -6.5 44t-27.5 36.5t-64 14.5h-44v130h124q53 0 92 -24.5t61 -65.5t22 -92v-106q0 -45 14 -63.5t61 -18.5v-150q-47 0 -61 -18.5t-14 -63.5v-106
q0 -50 -22 -91.5t-61 -66t-92 -24.5z" />
    <glyph glyph-name="asciitilde" unicode="~" horiz-adv-x="610" 
d="M396 261q-33 0 -57 9.5t-43 21.5t-36 21.5t-36 9.5q-21 0 -32.5 -16.5t-11.5 -39.5h-122q0 83 43 134t113 51q33 0 57 -9.5t43 -21.5t36 -21.5t36 -9.5q22 0 33 17t11 39h122q0 -82 -43 -133.5t-113 -51.5z" />
    <glyph glyph-name="uni00A0" unicode="&#xa0;" horiz-adv-x="300" 
 />
    <glyph glyph-name="exclamdown" unicode="&#xa1;" horiz-adv-x="340" 
d="M99 266h142v-430h-142v430zM170 525q37 0 63.5 -26.5t26.5 -63.5t-26.5 -63.5t-63.5 -26.5t-63.5 26.5t-26.5 63.5t26.5 63.5t63.5 26.5z" />
    <glyph glyph-name="cent" unicode="&#xa2;" horiz-adv-x="472" 
d="M263 -80v660h117v-660h-117zM304 -15q-57 0 -106 21.5t-85.5 59t-57 85.5t-20.5 101t20.5 102t57 87.5t85.5 61t106 22.5q59 0 90.5 -18.5t57.5 -38.5v-150q-23 17 -52.5 27t-72.5 10q-23 0 -48 -12t-42 -34.5t-17 -56.5q0 -33 15 -56t39.5 -34.5t52.5 -11.5
q43 0 72.5 10.5t52.5 26.5v-150q-26 -20 -57.5 -36t-90.5 -16z" />
    <glyph glyph-name="sterling" unicode="&#xa3;" horiz-adv-x="568" 
d="M60 0v135q21 7 39 20.5t29.5 33.5t11.5 45v205q0 80 35 133.5t89.5 80.5t112.5 27q43 0 79 -12.5t52 -28.5v-166q-18 14 -43 23.5t-54 8.5q-19 0 -38.5 -11t-32.5 -31.5t-13 -49.5v-160q0 -30 -13 -52t-34 -36h220v-165h-440zM60 260v130h388v-130h-388z" />
    <glyph glyph-name="currency" unicode="&#xa4;" horiz-adv-x="526" 
d="M263 73q-48 0 -92 23.5t-71.5 65.5t-27.5 95q0 54 27.5 95.5t71.5 65t92 23.5q49 0 92.5 -23.5t71 -65t27.5 -95.5q0 -53 -27.5 -95t-71 -65.5t-92.5 -23.5zM118 29l-83 79l122 125l78 -87zM408 29l-110 110l90 76l103 -107zM263 195q26 0 45.5 16.5t19.5 45.5
t-19.5 45.5t-45.5 16.5t-45.5 -16.5t-19.5 -45.5t19.5 -45.5t45.5 -16.5zM156 282l-121 125l83 78l124 -124zM390 301l-81 84l100 100l82 -79z" />
    <glyph glyph-name="yen" unicode="&#xa5;" horiz-adv-x="741" 
d="M141 231v90h450v-90h-450zM141 106v90h450v-90h-450zM315 167l-300 503h218l138 -261l137 261h218l-300 -503h-111zM277 0v254h187v-254h-187z" />
    <glyph glyph-name="brokenbar" unicode="&#xa6;" horiz-adv-x="290" 
d="M80 289v416h130v-416h-130zM80 -200v416h130v-416h-130z" />
    <glyph glyph-name="section" unicode="&#xa7;" horiz-adv-x="573" 
d="M465 65l-170 95q19 4 30 12t11 23t-7 26.5t-20.5 20t-31.5 14.5l-95 34q-56 20 -87 45.5t-43 58.5t-12 73q0 71 36 119.5t94 73.5t123 25q59 0 116.5 -14.5t92.5 -38.5v-181q-43 25 -85 43.5t-99 18.5q-22 0 -40.5 -4.5t-29.5 -13.5t-11 -25q0 -25 29 -37.5t71 -28.5
l72 -27q73 -28 103.5 -71t30.5 -91q0 -53 -20 -87.5t-58 -62.5zM265 -225q-60 0 -119 21t-103 52v181q48 -36 103.5 -59t111.5 -23q35 0 56.5 8.5t21.5 29.5q0 10 -7 18t-20.5 15t-31.5 12l-95 30q-56 18 -87 46.5t-43 64.5t-12 76q0 38 14.5 63t34.5 42t38 28l167 -78
q-25 -3 -41 -20.5t-16 -36.5q0 -25 30 -40.5t70 -30.5l72 -27q73 -27 103.5 -65.5t30.5 -86.5q0 -64 -37 -113.5t-100 -78t-141 -28.5z" />
    <glyph glyph-name="dieresis" unicode="&#xa8;" horiz-adv-x="522" 
d="M372 573q-31 0 -53.5 22.5t-22.5 53.5q0 32 22.5 54t53.5 22t53.5 -22t22.5 -54q0 -31 -22.5 -53.5t-53.5 -22.5zM162 573q-31 0 -53.5 22.5t-22.5 53.5q0 32 22.5 54t53.5 22t53.5 -22t22.5 -54q0 -31 -22.5 -53.5t-53.5 -22.5z" />
    <glyph glyph-name="copyright" unicode="&#xa9;" horiz-adv-x="864" 
d="M432 -53q-84 0 -155.5 30.5t-124.5 84t-82.5 123.5t-29.5 150t29.5 150t82.5 123.5t124.5 84t155.5 30.5t155.5 -30.5t124.5 -84t82.5 -123.5t29.5 -150t-29.5 -150t-82.5 -123.5t-124.5 -84t-155.5 -30.5zM432 50q84 0 147.5 36t98.5 100.5t35 148.5t-35 148.5
t-98.5 100.5t-147.5 36t-147 -36t-98.5 -100.5t-35.5 -148.5t35.5 -148.5t98.5 -100.5t147 -36zM456 119q-46 0 -86 17.5t-69.5 47.5t-46.5 69t-17 83q0 43 17 82.5t46.5 71t69.5 49.5t86 18q47 0 73 -15t47 -31v-122q-19 14 -43 22t-58 8q-20 0 -40 -9.5t-33.5 -28
t-13.5 -45.5q0 -28 12 -46t31.5 -27.5t43.5 -9.5q34 0 58 8t43 22v-122q-21 -16 -47 -29t-73 -13z" />
    <glyph glyph-name="ordfeminine" unicode="&#xaa;" horiz-adv-x="395" 
d="M166 364q-34 0 -64 17t-48.5 53t-18.5 91q0 77 41 118.5t96 41.5q24 0 47 -10.5t38 -26.5v28h103v-303h-103v49q-11 -25 -34.5 -41.5t-56.5 -16.5zM197 467q19 0 39.5 15t20.5 48v30q-13 11 -29.5 18t-33.5 7q-22 0 -37 -18t-15 -42q0 -25 15 -41.5t40 -16.5z" />
    <glyph glyph-name="guillemotleft" unicode="&#xab;" horiz-adv-x="555" 
d="M495 32l-235 195v38l235 203v-153l-80 -67l80 -63v-153zM265 32l-235 195v38l235 203v-153l-80 -67l80 -63v-153z" />
    <glyph glyph-name="logicalnot" unicode="&#xac;" horiz-adv-x="610" 
d="M120 238v150h371v-150h-371zM349 133v255h142v-255h-142z" />
    <glyph glyph-name="registered" unicode="&#xae;" horiz-adv-x="864" 
d="M432 -53q-84 0 -155.5 30.5t-124.5 84t-82.5 123.5t-29.5 150t29.5 150t82.5 123.5t124.5 84t155.5 30.5t155.5 -30.5t124.5 -84t82.5 -123.5t29.5 -150t-29.5 -150t-82.5 -123.5t-124.5 -84t-155.5 -30.5zM432 50q84 0 147.5 36t98.5 100.5t35 148.5t-35 148.5
t-98.5 100.5t-147.5 36t-147 -36t-98.5 -100.5t-35.5 -148.5t35.5 -148.5t98.5 -100.5t147 -36zM290 136v397h171q30 0 58.5 -8.5t52 -25.5t37.5 -43t14 -61q0 -37 -18 -62t-48 -38t-67 -13q-8 0 -22 3t-30 7t-29.5 7.5t-20.5 4.5v57q12 -6 27 -10t33 -4q26 0 43.5 13.5
t17.5 34.5q0 25 -17.5 35.5t-43.5 10.5h-47v-305h-111zM507 136l-113 168l100 29l149 -197h-136z" />
    <glyph glyph-name="macron" unicode="&#xaf;" horiz-adv-x="570" 
d="M100 600v110h370v-110h-370z" />
    <glyph glyph-name="degree" unicode="&#xb0;" horiz-adv-x="413" 
d="M207 340q-50 0 -89 23.5t-61 63t-22 86.5t22 86t61 62.5t89 23.5t88.5 -23.5t60.5 -62.5t22 -86t-22 -86.5t-60.5 -63t-88.5 -23.5zM207 459q21 0 36 16t15 38q0 20 -15 36t-36 16q-22 0 -37 -16t-15 -36q0 -22 15 -38t37 -16z" />
    <glyph glyph-name="plusminus" unicode="&#xb1;" horiz-adv-x="610" 
d="M120 0v130h371v-130h-371zM120 280v130h370v-130h-370zM240 179v331h130v-331h-130z" />
    <glyph glyph-name="uni00B2" unicode="&#xb2;" horiz-adv-x="282" 
d="M40 373v34q60 62 87.5 96t27.5 58q0 17 -11 27.5t-28 10.5q-19 0 -38.5 -10.5t-32.5 -25.5v85q15 12 39.5 20.5t49.5 8.5q48 0 77 -26t29 -67q0 -30 -9 -51t-27 -42t-44 -51h82v-67h-202z" />
    <glyph glyph-name="uni00B3" unicode="&#xb3;" horiz-adv-x="271" 
d="M115 366q-21 0 -41.5 6t-33.5 15v72q15 -10 30 -15t31 -5q19 0 32.5 7.5t13.5 23.5q0 15 -14.5 19t-32.5 4h-22v61h22q18 0 32.5 0.5t14.5 17.5q0 16 -14 23t-32 7q-15 0 -28 -5.5t-26 -16.5v71q12 10 29 17t42 7q49 0 81 -23.5t32 -61.5q0 -30 -16.5 -47.5t-40.5 -20.5
q24 -4 40.5 -20t16.5 -46q0 -40 -34.5 -65t-81.5 -25z" />
    <glyph glyph-name="acute" unicode="&#xb4;" horiz-adv-x="364" 
d="M80 560l100 150h154l-132 -150h-122z" />
    <glyph glyph-name="uni00B5" unicode="&#xb5;" horiz-adv-x="618" 
d="M309 -15q-31 0 -52 16t-21 59l-171 189v261h172l1 -260q0 -52 16.5 -76t54.5 -24t54.5 24t16.5 76l1 260h172v-252l-171 -198q0 -43 -21 -59t-52 -16zM65 -240v530l172 -144v-386h-172zM381 0v143l172 254v-397h-172z" />
    <glyph glyph-name="paragraph" unicode="&#xb6;" horiz-adv-x="650" 
d="M333 -210v442h-50q-66 0 -124 22.5t-93.5 71t-35.5 125.5q0 79 35.5 127t93.5 70t124 22h287v-880h-92v754h-50v-754h-95z" />
    <glyph glyph-name="periodcentered" unicode="&#xb7;" horiz-adv-x="340" 
d="M170 262q-37 0 -63.5 26.5t-26.5 63.5q0 38 26.5 64t63.5 26t63.5 -26t26.5 -64q0 -37 -26.5 -63.5t-63.5 -26.5z" />
    <glyph glyph-name="cedilla" unicode="&#xb8;" horiz-adv-x="348" 
d="M160 -240q-15 0 -39.5 6t-40.5 19l7 74q16 -8 32 -17t38 -9q10 0 21 6.5t11 19.5q0 12 -9.5 18t-20.5 6q-7 0 -13.5 -2t-16.5 -7l-24 12l12 116h74l-3 -48q41 2 65.5 -23t24.5 -62q0 -51 -33 -80t-85 -29z" />
    <glyph glyph-name="uni00B9" unicode="&#xb9;" horiz-adv-x="285" 
d="M103 373v191q-13 -11 -30 -18t-31 -11v82q19 6 42.5 19.5t38.5 33.5h63v-297h-83zM40 373v73h205v-73h-205z" />
    <glyph glyph-name="ordmasculine" unicode="&#xba;" horiz-adv-x="394" 
d="M197 364q-41 0 -78 20.5t-60.5 56t-23.5 80.5q0 46 23.5 81t60.5 55t78 20t78 -20t60.5 -55t23.5 -81q0 -45 -23.5 -80.5t-60.5 -56t-78 -20.5zM197 460q17 0 36 11.5t19 49.5t-19 49t-36 11q-10 0 -23 -4.5t-22.5 -17.5t-9.5 -38t9.5 -38.5t22.5 -18t23 -4.5z" />
    <glyph glyph-name="guillemotright" unicode="&#xbb;" horiz-adv-x="555" 
d="M290 32v153l80 67l-80 63v153l235 -195v-38zM60 32v153l80 67l-80 63v153l235 -195v-38z" />
    <glyph glyph-name="onequarter" unicode="&#xbc;" horiz-adv-x="662" 
d="M108 373v191q-13 -11 -30 -18t-31 -11v82q19 6 42.5 19.5t38.5 33.5h63v-297h-83zM45 373v73h205v-73h-205zM50 0l461 670h121l-464 -670h-118zM474 0v66h-115v57q35 40 65 81t61 93h63v-165h34v-66h-34v-66h-74zM446 132h28v39q-6 -8 -10 -14l-8 -12t-10 -13z" />
    <glyph glyph-name="onehalf" unicode="&#xbd;" horiz-adv-x="682" 
d="M103 373v191q-13 -11 -30 -18t-31 -11v82q19 6 42.5 19.5t38.5 33.5h63v-297h-83zM40 373v73h205v-73h-205zM49 0l461 670h121l-464 -670h-118zM424 0v34q60 62 87.5 96t27.5 58q0 17 -11 27.5t-28 10.5q-19 0 -38.5 -10.5t-32.5 -25.5v85q15 12 39.5 20.5t49.5 8.5
q48 0 77 -26t29 -67q0 -30 -9 -51t-27 -42t-44 -51h82v-67h-202z" />
    <glyph glyph-name="threequarters" unicode="&#xbe;" horiz-adv-x="663" 
d="M115 366q-21 0 -41.5 6t-33.5 15v72q15 -10 30 -15t31 -5q19 0 32.5 7.5t13.5 23.5q0 15 -14.5 19t-32.5 4h-22v61h22q18 0 32.5 0.5t14.5 17.5q0 16 -14 23t-32 7q-15 0 -28 -5.5t-26 -16.5v71q12 10 29 17t42 7q49 0 81 -23.5t32 -61.5q0 -30 -16.5 -47.5t-40.5 -20.5
q24 -4 40.5 -20t16.5 -46q0 -40 -34.5 -65t-81.5 -25zM41 0l461 670h121l-464 -670h-118zM469 0v66h-115v57q35 40 65 81t61 93h63v-165h34v-66h-34v-66h-74zM441 132h28v39q-6 -8 -10 -14l-8 -12t-10 -13z" />
    <glyph glyph-name="questiondown" unicode="&#xbf;" horiz-adv-x="610" 
d="M417 288v-40q0 -22 -17.5 -41.5t-43.5 -38t-52.5 -37.5t-44 -39t-17.5 -43q0 -34 34 -53.5t79 -19.5t92 15.5t83 53.5v-155q-34 -30 -83 -49.5t-122 -19.5q-60 0 -116 24t-92.5 72t-36.5 119q0 40 18.5 69t46 51t54.5 39.5t45 34.5t17 37l-1 21h157zM334 525
q38 0 64 -26.5t26 -63.5t-26 -63.5t-64 -26.5q-37 0 -63.5 26.5t-26.5 63.5t26.5 63.5t63.5 26.5z" />
    <glyph glyph-name="Agrave" unicode="&#xc0;" horiz-adv-x="732" 
d="M15 0l304 680h94l304 -680h-218l-133 378l-133 -378h-218zM166 100v140h381v-140h-381zM306 720l-132 150h154l100 -150h-122z" />
    <glyph glyph-name="Aacute" unicode="&#xc1;" horiz-adv-x="732" 
d="M15 0l304 680h94l304 -680h-218l-133 378l-133 -378h-218zM166 100v140h381v-140h-381zM280 720l100 150h154l-132 -150h-122z" />
    <glyph glyph-name="Acircumflex" unicode="&#xc2;" horiz-adv-x="732" 
d="M15 0l304 680h94l304 -680h-218l-133 378l-133 -378h-218zM166 100v140h381v-140h-381zM192 720l120 150h104l120 -150h-132l-40 59l-40 -59h-132z" />
    <glyph glyph-name="Atilde" unicode="&#xc3;" horiz-adv-x="732" 
d="M15 0l304 680h94l304 -680h-218l-133 378l-133 -378h-218zM166 100v140h381v-140h-381zM427 706q-25 0 -42.5 6t-30.5 14.5t-23 14.5t-21 6q-16 0 -24.5 -10t-8.5 -27h-94q0 70 38 104.5t90 34.5q25 0 42.5 -6t30.5 -14.5t23.5 -14.5t20.5 -6q17 0 25 10t8 27h94
q0 -70 -37.5 -104.5t-90.5 -34.5z" />
    <glyph glyph-name="Adieresis" unicode="&#xc4;" horiz-adv-x="732" 
d="M15 0l304 680h94l304 -680h-218l-133 378l-133 -378h-218zM166 100v140h381v-140h-381zM469 733q-31 0 -53.5 22.5t-22.5 53.5q0 32 22.5 54t53.5 22t53.5 -22t22.5 -54q0 -31 -22.5 -53.5t-53.5 -22.5zM259 733q-31 0 -53.5 22.5t-22.5 53.5q0 32 22.5 54t53.5 22
t53.5 -22t22.5 -54q0 -31 -22.5 -53.5t-53.5 -22.5z" />
    <glyph glyph-name="Aring" unicode="&#xc5;" horiz-adv-x="732" 
d="M15 0l304 680h94l304 -680h-218l-133 378l-133 -378h-218zM166 100v140h381v-140h-381zM364 711q-40 0 -68.5 26.5t-28.5 64.5t28.5 64.5t68.5 26.5t68 -26.5t28 -64.5t-28 -64.5t-68 -26.5zM364 766q15 0 26.5 10t11.5 26q0 15 -11.5 25.5t-26.5 10.5q-16 0 -27.5 -10.5
t-11.5 -25.5q0 -16 11.5 -26t27.5 -10z" />
    <glyph glyph-name="AE" unicode="&#xc6;" horiz-adv-x="1072" 
d="M15 0l473 670h91l-22 -162l-354 -508h-188zM272 133v137h321v-137h-321zM508 0v670h494v-155h-307v-355h307v-160h-494zM613 264v150h355v-150h-355z" />
    <glyph glyph-name="Ccedilla" unicode="&#xc7;" horiz-adv-x="612" 
d="M395 -15q-68 0 -131.5 23.5t-114 68.5t-80 110t-29.5 148t29.5 148t80 110t114 68.5t131.5 23.5q53 0 98 -15t79 -44v-181q-26 22 -50.5 36t-52.5 21.5t-67 7.5q-45 0 -83.5 -23t-62.5 -62.5t-24 -89.5t24 -89.5t62.5 -62.5t83.5 -23q58 0 94 16.5t76 48.5v-181
q-34 -29 -79 -44t-98 -15zM371 -240q-15 0 -39.5 6t-40.5 19l7 74q16 -8 32 -17t38 -9q10 0 21 6.5t11 19.5q0 12 -9.5 18t-20.5 6q-7 0 -13.5 -2t-16.5 -7l-24 12l12 116h74l-3 -48q41 2 65.5 -23t24.5 -62q0 -51 -33 -80t-85 -29z" />
    <glyph glyph-name="Egrave" unicode="&#xc8;" horiz-adv-x="644" 
d="M80 0v670h494v-155h-307v-355h307v-160h-494zM185 264v150h355v-150h-355zM266 720l-132 150h154l100 -150h-122z" />
    <glyph glyph-name="Eacute" unicode="&#xc9;" horiz-adv-x="644" 
d="M80 0v670h494v-155h-307v-355h307v-160h-494zM185 264v150h355v-150h-355zM240 720l100 150h154l-132 -150h-122z" />
    <glyph glyph-name="Ecircumflex" unicode="&#xca;" horiz-adv-x="644" 
d="M80 0v670h494v-155h-307v-355h307v-160h-494zM185 264v150h355v-150h-355zM152 720l120 150h104l120 -150h-132l-40 59l-40 -59h-132z" />
    <glyph glyph-name="Edieresis" unicode="&#xcb;" horiz-adv-x="644" 
d="M80 0v670h494v-155h-307v-355h307v-160h-494zM185 264v150h355v-150h-355zM429 733q-31 0 -53.5 22.5t-22.5 53.5q0 32 22.5 54t53.5 22t53.5 -22t22.5 -54q0 -31 -22.5 -53.5t-53.5 -22.5zM219 733q-31 0 -53.5 22.5t-22.5 53.5q0 32 22.5 54t53.5 22t53.5 -22t22.5 -54
q0 -31 -22.5 -53.5t-53.5 -22.5z" />
    <glyph glyph-name="Igrave" unicode="&#xcc;" horiz-adv-x="573" 
d="M193 0v670h187v-670h-187zM70 0v155h433v-155h-433zM70 515v155h433v-155h-433zM229 720l-132 150h154l100 -150h-122z" />
    <glyph glyph-name="Iacute" unicode="&#xcd;" horiz-adv-x="573" 
d="M193 0v670h187v-670h-187zM70 0v155h433v-155h-433zM70 515v155h433v-155h-433zM203 720l100 150h154l-132 -150h-122z" />
    <glyph glyph-name="Icircumflex" unicode="&#xce;" horiz-adv-x="573" 
d="M193 0v670h187v-670h-187zM70 0v155h433v-155h-433zM70 515v155h433v-155h-433zM115 720l120 150h104l120 -150h-132l-40 59l-40 -59h-132z" />
    <glyph glyph-name="Idieresis" unicode="&#xcf;" horiz-adv-x="573" 
d="M193 0v670h187v-670h-187zM70 0v155h433v-155h-433zM70 515v155h433v-155h-433zM392 733q-31 0 -53.5 22.5t-22.5 53.5q0 32 22.5 54t53.5 22t53.5 -22t22.5 -54q0 -31 -22.5 -53.5t-53.5 -22.5zM182 733q-31 0 -53.5 22.5t-22.5 53.5q0 32 22.5 54t53.5 22t53.5 -22
t22.5 -54q0 -31 -22.5 -53.5t-53.5 -22.5z" />
    <glyph glyph-name="Eth" unicode="&#xd0;" horiz-adv-x="751" 
d="M26 261v150h301v-150h-301zM368 -15q-46 0 -97.5 3.5t-100.5 10t-90 14.5v645q64 11 135.5 19.5t137.5 8.5q100 0 181 -40t129 -116t48 -184q0 -74 -24.5 -139.5t-69.5 -115.5t-108 -78t-141 -28zM359 160q51 0 86.5 23.5t54.5 63.5t19 89q0 52 -19 91.5t-54.5 61.5
t-86.5 22q-23 0 -47.5 -3.5t-44.5 -8.5v-327q23 -7 47 -9.5t45 -2.5z" />
    <glyph glyph-name="Ntilde" unicode="&#xd1;" horiz-adv-x="772" 
d="M626 -10l-359 329v-319h-187v680h66l359 -335v325h187v-680h-66zM449 706q-25 0 -42.5 6t-30.5 14.5t-23 14.5t-21 6q-16 0 -24.5 -10t-8.5 -27h-94q0 70 38 104.5t90 34.5q25 0 42.5 -6t30.5 -14.5t23.5 -14.5t20.5 -6q17 0 25 10t8 27h94q0 -70 -37.5 -104.5
t-90.5 -34.5z" />
    <glyph glyph-name="Ograve" unicode="&#xd2;" horiz-adv-x="776" 
d="M388 -15q-68 0 -130.5 23.5t-111.5 68.5t-77.5 110t-28.5 148t28.5 148t77.5 110t111.5 68.5t130.5 23.5t130.5 -23.5t111.5 -68.5t77.5 -110t28.5 -148t-28.5 -148t-77.5 -110t-111.5 -68.5t-130.5 -23.5zM388 160q45 0 80.5 23t55.5 62.5t20 89.5t-20 89.5t-55.5 62.5
t-80.5 23t-80 -23t-55.5 -62.5t-20.5 -89.5t20.5 -89.5t55.5 -62.5t80 -23zM330 720l-132 150h154l100 -150h-122z" />
    <glyph glyph-name="Oacute" unicode="&#xd3;" horiz-adv-x="776" 
d="M388 -15q-68 0 -130.5 23.5t-111.5 68.5t-77.5 110t-28.5 148t28.5 148t77.5 110t111.5 68.5t130.5 23.5t130.5 -23.5t111.5 -68.5t77.5 -110t28.5 -148t-28.5 -148t-77.5 -110t-111.5 -68.5t-130.5 -23.5zM388 160q45 0 80.5 23t55.5 62.5t20 89.5t-20 89.5t-55.5 62.5
t-80.5 23t-80 -23t-55.5 -62.5t-20.5 -89.5t20.5 -89.5t55.5 -62.5t80 -23zM304 720l100 150h154l-132 -150h-122z" />
    <glyph glyph-name="Ocircumflex" unicode="&#xd4;" horiz-adv-x="776" 
d="M388 -15q-68 0 -130.5 23.5t-111.5 68.5t-77.5 110t-28.5 148t28.5 148t77.5 110t111.5 68.5t130.5 23.5t130.5 -23.5t111.5 -68.5t77.5 -110t28.5 -148t-28.5 -148t-77.5 -110t-111.5 -68.5t-130.5 -23.5zM388 160q45 0 80.5 23t55.5 62.5t20 89.5t-20 89.5t-55.5 62.5
t-80.5 23t-80 -23t-55.5 -62.5t-20.5 -89.5t20.5 -89.5t55.5 -62.5t80 -23zM216 720l120 150h104l120 -150h-132l-40 59l-40 -59h-132z" />
    <glyph glyph-name="Otilde" unicode="&#xd5;" horiz-adv-x="776" 
d="M388 -15q-68 0 -130.5 23.5t-111.5 68.5t-77.5 110t-28.5 148t28.5 148t77.5 110t111.5 68.5t130.5 23.5t130.5 -23.5t111.5 -68.5t77.5 -110t28.5 -148t-28.5 -148t-77.5 -110t-111.5 -68.5t-130.5 -23.5zM388 160q45 0 80.5 23t55.5 62.5t20 89.5t-20 89.5t-55.5 62.5
t-80.5 23t-80 -23t-55.5 -62.5t-20.5 -89.5t20.5 -89.5t55.5 -62.5t80 -23zM451 706q-25 0 -42.5 6t-30.5 14.5t-23 14.5t-21 6q-16 0 -24.5 -10t-8.5 -27h-94q0 70 38 104.5t90 34.5q25 0 42.5 -6t30.5 -14.5t23.5 -14.5t20.5 -6q17 0 25 10t8 27h94q0 -70 -37.5 -104.5
t-90.5 -34.5z" />
    <glyph glyph-name="Odieresis" unicode="&#xd6;" horiz-adv-x="776" 
d="M388 -15q-68 0 -130.5 23.5t-111.5 68.5t-77.5 110t-28.5 148t28.5 148t77.5 110t111.5 68.5t130.5 23.5t130.5 -23.5t111.5 -68.5t77.5 -110t28.5 -148t-28.5 -148t-77.5 -110t-111.5 -68.5t-130.5 -23.5zM388 160q45 0 80.5 23t55.5 62.5t20 89.5t-20 89.5t-55.5 62.5
t-80.5 23t-80 -23t-55.5 -62.5t-20.5 -89.5t20.5 -89.5t55.5 -62.5t80 -23zM493 733q-31 0 -53.5 22.5t-22.5 53.5q0 32 22.5 54t53.5 22t53.5 -22t22.5 -54q0 -31 -22.5 -53.5t-53.5 -22.5zM283 733q-31 0 -53.5 22.5t-22.5 53.5q0 32 22.5 54t53.5 22t53.5 -22t22.5 -54
q0 -31 -22.5 -53.5t-53.5 -22.5z" />
    <glyph glyph-name="multiply" unicode="&#xd7;" horiz-adv-x="610" 
d="M220 121l-106 106l276 277l106 -106zM390 122l-276 276l107 106l275 -276z" />
    <glyph glyph-name="Oslash" unicode="&#xd8;" horiz-adv-x="776" 
d="M154 -15l-79 60l555 640l82 -60zM388 -15q-68 0 -130.5 23.5t-111.5 68.5t-77.5 110t-28.5 148t28.5 148t77.5 110t111.5 68.5t130.5 23.5t130.5 -23.5t111.5 -68.5t77.5 -110t28.5 -148t-28.5 -148t-77.5 -110t-111.5 -68.5t-130.5 -23.5zM388 160q45 0 80.5 23
t55.5 62.5t20 89.5t-20 89.5t-55.5 62.5t-80.5 23t-80 -23t-55.5 -62.5t-20.5 -89.5t20.5 -89.5t55.5 -62.5t80 -23z" />
    <glyph glyph-name="Ugrave" unicode="&#xd9;" horiz-adv-x="746" 
d="M373 -15q-83 0 -152 33.5t-110 96.5t-41 150v407h187v-394q0 -34 12.5 -61t38 -42t65.5 -15t65.5 15t38 42t12.5 61v394h187v-407q0 -87 -41 -150t-109.5 -96.5t-152.5 -33.5zM315 720l-132 150h154l100 -150h-122z" />
    <glyph glyph-name="Uacute" unicode="&#xda;" horiz-adv-x="746" 
d="M373 -15q-83 0 -152 33.5t-110 96.5t-41 150v407h187v-394q0 -34 12.5 -61t38 -42t65.5 -15t65.5 15t38 42t12.5 61v394h187v-407q0 -87 -41 -150t-109.5 -96.5t-152.5 -33.5zM289 720l100 150h154l-132 -150h-122z" />
    <glyph glyph-name="Ucircumflex" unicode="&#xdb;" horiz-adv-x="746" 
d="M373 -15q-83 0 -152 33.5t-110 96.5t-41 150v407h187v-394q0 -34 12.5 -61t38 -42t65.5 -15t65.5 15t38 42t12.5 61v394h187v-407q0 -87 -41 -150t-109.5 -96.5t-152.5 -33.5zM201 720l120 150h104l120 -150h-132l-40 59l-40 -59h-132z" />
    <glyph glyph-name="Udieresis" unicode="&#xdc;" horiz-adv-x="746" 
d="M373 -15q-83 0 -152 33.5t-110 96.5t-41 150v407h187v-394q0 -34 12.5 -61t38 -42t65.5 -15t65.5 15t38 42t12.5 61v394h187v-407q0 -87 -41 -150t-109.5 -96.5t-152.5 -33.5zM478 733q-31 0 -53.5 22.5t-22.5 53.5q0 32 22.5 54t53.5 22t53.5 -22t22.5 -54
q0 -31 -22.5 -53.5t-53.5 -22.5zM268 733q-31 0 -53.5 22.5t-22.5 53.5q0 32 22.5 54t53.5 22t53.5 -22t22.5 -54q0 -31 -22.5 -53.5t-53.5 -22.5z" />
    <glyph glyph-name="Yacute" unicode="&#xdd;" horiz-adv-x="741" 
d="M315 167l-300 503h218l138 -261l137 261h218l-300 -503h-111zM277 0v254h187v-254h-187zM287 720l100 150h154l-132 -150h-122z" />
    <glyph glyph-name="Thorn" unicode="&#xde;" horiz-adv-x="674" 
d="M80 0v670h157v-109h181q58 0 109.5 -30t84 -81.5t32.5 -116.5q0 -70 -34.5 -123t-93 -82t-129.5 -29q-44 0 -79.5 7t-70.5 17v-123h-157zM373 244q52 0 80.5 22t28.5 67q0 40 -35.5 59t-83.5 19h-126v-137q29 -15 69 -22.5t67 -7.5z" />
    <glyph glyph-name="germandbls" unicode="&#xdf;" horiz-adv-x="733" 
d="M502 -15q-57 0 -107.5 15t-84.5 33v133q36 -15 88 -29.5t102 -14.5q26 0 43.5 6t17.5 23q0 13 -11.5 21.5t-29 15.5t-36.5 13l-65 20q-24 8 -47.5 20t-39 36t-15.5 65q0 28 8.5 48t20 36.5t20 33t8.5 36.5q0 29 -10.5 49.5t-29 31.5t-42.5 10q-25 0 -43 -11t-27.5 -33.5
t-9.5 -57.5v-485h-172v514q0 67 36 114t93.5 72t119.5 25q50 0 97.5 -16t86 -45.5t61.5 -70.5t23 -91q0 -28 -12.5 -47.5t-29.5 -34t-29.5 -27t-12.5 -27.5q0 -13 8.5 -20t24 -12t34.5 -13l51 -21q55 -22 88.5 -56.5t33.5 -89.5q0 -50 -30 -88t-78.5 -59.5t-102.5 -21.5z
" />
    <glyph glyph-name="agrave" unicode="&#xe0;" 
d="M255 -15q-57 0 -107 29t-81.5 89.5t-31.5 152.5q0 86 31.5 146t84 91.5t114.5 31.5q40 0 78.5 -17.5t63.5 -44.5v47h172v-510h-172v85q-19 -42 -58 -71t-94 -29zM306 159q22 0 45 11.5t39.5 35t16.5 60.5v49q-22 18 -49.5 30t-56.5 12q-25 0 -44.5 -14t-30.5 -37t-11 -50
t11.5 -49t32 -35t47.5 -13zM265 560l-132 150h154l100 -150h-122z" />
    <glyph glyph-name="aacute" unicode="&#xe1;" 
d="M255 -15q-57 0 -107 29t-81.5 89.5t-31.5 152.5q0 86 31.5 146t84 91.5t114.5 31.5q40 0 78.5 -17.5t63.5 -44.5v47h172v-510h-172v85q-19 -42 -58 -71t-94 -29zM306 159q22 0 45 11.5t39.5 35t16.5 60.5v49q-22 18 -49.5 30t-56.5 12q-25 0 -44.5 -14t-30.5 -37t-11 -50
t11.5 -49t32 -35t47.5 -13zM239 560l100 150h154l-132 -150h-122z" />
    <glyph glyph-name="acircumflex" unicode="&#xe2;" 
d="M255 -15q-57 0 -107 29t-81.5 89.5t-31.5 152.5q0 86 31.5 146t84 91.5t114.5 31.5q40 0 78.5 -17.5t63.5 -44.5v47h172v-510h-172v85q-19 -42 -58 -71t-94 -29zM306 159q22 0 45 11.5t39.5 35t16.5 60.5v49q-22 18 -49.5 30t-56.5 12q-25 0 -44.5 -14t-30.5 -37t-11 -50
t11.5 -49t32 -35t47.5 -13zM151 560l120 150h104l120 -150h-132l-40 59l-40 -59h-132z" />
    <glyph glyph-name="atilde" unicode="&#xe3;" 
d="M255 -15q-57 0 -107 29t-81.5 89.5t-31.5 152.5q0 86 31.5 146t84 91.5t114.5 31.5q40 0 78.5 -17.5t63.5 -44.5v47h172v-510h-172v85q-19 -42 -58 -71t-94 -29zM306 159q22 0 45 11.5t39.5 35t16.5 60.5v49q-22 18 -49.5 30t-56.5 12q-25 0 -44.5 -14t-30.5 -37t-11 -50
t11.5 -49t32 -35t47.5 -13zM386 546q-25 0 -42.5 6t-30.5 14.5t-23 14.5t-21 6q-16 0 -24.5 -10t-8.5 -27h-94q0 70 38 104.5t90 34.5q25 0 42.5 -6t30.5 -14.5t23.5 -14.5t20.5 -6q17 0 25 10t8 27h94q0 -70 -37.5 -104.5t-90.5 -34.5z" />
    <glyph glyph-name="adieresis" unicode="&#xe4;" 
d="M255 -15q-57 0 -107 29t-81.5 89.5t-31.5 152.5q0 86 31.5 146t84 91.5t114.5 31.5q40 0 78.5 -17.5t63.5 -44.5v47h172v-510h-172v85q-19 -42 -58 -71t-94 -29zM306 159q22 0 45 11.5t39.5 35t16.5 60.5v49q-22 18 -49.5 30t-56.5 12q-25 0 -44.5 -14t-30.5 -37t-11 -50
t11.5 -49t32 -35t47.5 -13zM428 573q-31 0 -53.5 22.5t-22.5 53.5q0 32 22.5 54t53.5 22t53.5 -22t22.5 -54q0 -31 -22.5 -53.5t-53.5 -22.5zM218 573q-31 0 -53.5 22.5t-22.5 53.5q0 32 22.5 54t53.5 22t53.5 -22t22.5 -54q0 -31 -22.5 -53.5t-53.5 -22.5z" />
    <glyph glyph-name="aring" unicode="&#xe5;" 
d="M255 -15q-57 0 -107 29t-81.5 89.5t-31.5 152.5q0 86 31.5 146t84 91.5t114.5 31.5q40 0 78.5 -17.5t63.5 -44.5v47h172v-510h-172v85q-19 -42 -58 -71t-94 -29zM306 159q22 0 45 11.5t39.5 35t16.5 60.5v49q-22 18 -49.5 30t-56.5 12q-25 0 -44.5 -14t-30.5 -37t-11 -50
t11.5 -49t32 -35t47.5 -13zM323 551q-40 0 -68.5 26.5t-28.5 64.5t28.5 64.5t68.5 26.5t68 -26.5t28 -64.5t-28 -64.5t-68 -26.5zM323 606q15 0 26.5 10t11.5 26q0 15 -11.5 25.5t-26.5 10.5q-16 0 -27.5 -10.5t-11.5 -25.5q0 -16 11.5 -26t27.5 -10z" />
    <glyph glyph-name="ae" unicode="&#xe6;" horiz-adv-x="1020" 
d="M758 -15q-54 0 -104.5 18t-90.5 52t-63 82.5t-23 109.5q0 76 35.5 139t97 101t138.5 38q72 0 128 -32t87.5 -89.5t31.5 -136.5v-59h-361v104h198q0 24 -13 40t-33 23.5t-43 7.5q-30 0 -52.5 -14.5t-35.5 -44.5t-13 -77q0 -38 16.5 -63t45.5 -37t64 -12q58 0 100.5 16.5
t63.5 28.5v-147q-17 -11 -43.5 -22t-59.5 -18.5t-71 -7.5zM255 -15q-57 0 -107 29t-81.5 89.5t-31.5 152.5q0 86 31.5 146t84 91.5t114.5 31.5q40 0 78.5 -17.5t63.5 -44.5v47h172v-510h-172v85q-19 -42 -58 -71t-94 -29zM306 159q22 0 45 11.5t39.5 35t16.5 60.5v49
q-22 18 -49.5 30t-56.5 12q-25 0 -44.5 -14t-30.5 -37t-11 -50t11.5 -49t32 -35t47.5 -13z" />
    <glyph glyph-name="ccedilla" unicode="&#xe7;" horiz-adv-x="472" 
d="M304 -15q-57 0 -106 21.5t-85.5 59t-57 85.5t-20.5 101t20.5 102t57 87.5t85.5 61t106 22.5q59 0 90.5 -18.5t57.5 -38.5v-150q-23 17 -52.5 27t-72.5 10q-23 0 -48 -12t-42 -34.5t-17 -56.5q0 -33 15 -56t39.5 -34.5t52.5 -11.5q43 0 72.5 10.5t52.5 26.5v-150
q-26 -20 -57.5 -36t-90.5 -16zM294 -240q-15 0 -39.5 6t-40.5 19l7 74q16 -8 32 -17t38 -9q10 0 21 6.5t11 19.5q0 12 -9.5 18t-20.5 6q-7 0 -13.5 -2t-16.5 -7l-24 12l12 116h74l-3 -48q41 2 65.5 -23t24.5 -62q0 -51 -33 -80t-85 -29z" />
    <glyph glyph-name="egrave" unicode="&#xe8;" horiz-adv-x="578" 
d="M316 -15q-54 0 -104.5 18t-90.5 52t-63 82.5t-23 109.5q0 76 35.5 139t97 101t138.5 38q72 0 128 -32t87.5 -89.5t31.5 -136.5v-59h-361v104h198q0 24 -13 40t-33 23.5t-43 7.5q-30 0 -52.5 -14.5t-35.5 -44.5t-13 -77q0 -38 16.5 -63t45.5 -37t64 -12q58 0 100.5 16.5
t63.5 28.5v-147q-17 -11 -43.5 -22t-59.5 -18.5t-71 -7.5zM253 560l-132 150h154l100 -150h-122z" />
    <glyph glyph-name="eacute" unicode="&#xe9;" horiz-adv-x="578" 
d="M316 -15q-54 0 -104.5 18t-90.5 52t-63 82.5t-23 109.5q0 76 35.5 139t97 101t138.5 38q72 0 128 -32t87.5 -89.5t31.5 -136.5v-59h-361v104h198q0 24 -13 40t-33 23.5t-43 7.5q-30 0 -52.5 -14.5t-35.5 -44.5t-13 -77q0 -38 16.5 -63t45.5 -37t64 -12q58 0 100.5 16.5
t63.5 28.5v-147q-17 -11 -43.5 -22t-59.5 -18.5t-71 -7.5zM227 560l100 150h154l-132 -150h-122z" />
    <glyph glyph-name="ecircumflex" unicode="&#xea;" horiz-adv-x="578" 
d="M316 -15q-54 0 -104.5 18t-90.5 52t-63 82.5t-23 109.5q0 76 35.5 139t97 101t138.5 38q72 0 128 -32t87.5 -89.5t31.5 -136.5v-59h-361v104h198q0 24 -13 40t-33 23.5t-43 7.5q-30 0 -52.5 -14.5t-35.5 -44.5t-13 -77q0 -38 16.5 -63t45.5 -37t64 -12q58 0 100.5 16.5
t63.5 28.5v-147q-17 -11 -43.5 -22t-59.5 -18.5t-71 -7.5zM139 560l120 150h104l120 -150h-132l-40 59l-40 -59h-132z" />
    <glyph glyph-name="edieresis" unicode="&#xeb;" horiz-adv-x="578" 
d="M316 -15q-54 0 -104.5 18t-90.5 52t-63 82.5t-23 109.5q0 76 35.5 139t97 101t138.5 38q72 0 128 -32t87.5 -89.5t31.5 -136.5v-59h-361v104h198q0 24 -13 40t-33 23.5t-43 7.5q-30 0 -52.5 -14.5t-35.5 -44.5t-13 -77q0 -38 16.5 -63t45.5 -37t64 -12q58 0 100.5 16.5
t63.5 28.5v-147q-17 -11 -43.5 -22t-59.5 -18.5t-71 -7.5zM416 573q-31 0 -53.5 22.5t-22.5 53.5q0 32 22.5 54t53.5 22t53.5 -22t22.5 -54q0 -31 -22.5 -53.5t-53.5 -22.5zM206 573q-31 0 -53.5 22.5t-22.5 53.5q0 32 22.5 54t53.5 22t53.5 -22t22.5 -54q0 -31 -22.5 -53.5
t-53.5 -22.5z" />
    <glyph glyph-name="igrave" unicode="&#xec;" horiz-adv-x="375" 
d="M133 0v510h172v-510h-172zM50 370v140h255v-140h-255zM135 560l-132 150h154l100 -150h-122z" />
    <glyph glyph-name="iacute" unicode="&#xed;" horiz-adv-x="375" 
d="M133 0v510h172v-510h-172zM50 370v140h255v-140h-255zM109 560l100 150h154l-132 -150h-122z" />
    <glyph glyph-name="icircumflex" unicode="&#xee;" horiz-adv-x="375" 
d="M133 0v510h172v-510h-172zM50 370v140h255v-140h-255zM21 560l120 150h104l120 -150h-132l-40 59l-40 -59h-132z" />
    <glyph glyph-name="idieresis" unicode="&#xef;" horiz-adv-x="375" 
d="M133 0v510h172v-510h-172zM50 370v140h255v-140h-255zM298 573q-31 0 -53.5 22.5t-22.5 53.5q0 32 22.5 54t53.5 22t53.5 -22t22.5 -54q0 -31 -22.5 -53.5t-53.5 -22.5zM88 573q-31 0 -53.5 22.5t-22.5 53.5q0 32 22.5 54t53.5 22t53.5 -22t22.5 -54q0 -31 -22.5 -53.5
t-53.5 -22.5z" />
    <glyph glyph-name="eth" unicode="&#xf0;" horiz-adv-x="608" 
d="M304 -15q-71 0 -132.5 34t-99 94.5t-37.5 138.5q0 79 37 134t96.5 84.5t125.5 29.5q28 0 59.5 -15t57.5 -42q-9 27 -31.5 55t-50.5 54t-55.5 47.5t-47.5 35.5l97 91q75 -58 131.5 -123.5t87.5 -142t31 -168.5q0 -100 -37.5 -168.5t-99 -103.5t-132.5 -35zM315 150
q19 0 41 8t38 31t16 66q0 44 -16 66.5t-38 30.5t-41 8q-18 0 -40.5 -8t-38.5 -30.5t-16 -66.5q0 -43 16 -66t38.5 -31t40.5 -8zM282 506l-44 65l239 137l44 -70z" />
    <glyph glyph-name="ntilde" unicode="&#xf1;" horiz-adv-x="628" 
d="M390 0v288q0 38 -21 53.5t-47 15.5q-28 0 -47 -14.5t-33 -34.5v136q16 22 36.5 40.5t47 29.5t60.5 11q52 0 92 -23.5t62.5 -70.5t22.5 -116v-315h-173zM70 0v510h172v-510h-172zM396 549q-25 0 -42.5 6t-30.5 14.5t-23 14.5t-21 6q-16 0 -24.5 -10t-8.5 -27h-94
q0 70 38 104.5t90 34.5q25 0 42.5 -6t30.5 -14.5t23.5 -14.5t20.5 -6q17 0 25 10t8 27h94q0 -70 -37.5 -104.5t-90.5 -34.5z" />
    <glyph glyph-name="ograve" unicode="&#xf2;" horiz-adv-x="630" 
d="M315 -15q-53 0 -103 20t-90 56t-63.5 85.5t-23.5 108.5t23.5 108.5t63.5 85.5t90 56t103 20t103 -20t90 -56t63.5 -85.5t23.5 -108.5t-23.5 -108.5t-63.5 -85.5t-90 -56t-103 -20zM315 150q19 0 41 8t38 31t16 66q0 44 -16 66.5t-38 30.5t-41 8q-18 0 -40.5 -8
t-38.5 -30.5t-16 -66.5q0 -43 16 -66t38.5 -31t40.5 -8zM257 560l-132 150h154l100 -150h-122z" />
    <glyph glyph-name="oacute" unicode="&#xf3;" horiz-adv-x="630" 
d="M315 -15q-53 0 -103 20t-90 56t-63.5 85.5t-23.5 108.5t23.5 108.5t63.5 85.5t90 56t103 20t103 -20t90 -56t63.5 -85.5t23.5 -108.5t-23.5 -108.5t-63.5 -85.5t-90 -56t-103 -20zM315 150q19 0 41 8t38 31t16 66q0 44 -16 66.5t-38 30.5t-41 8q-18 0 -40.5 -8
t-38.5 -30.5t-16 -66.5q0 -43 16 -66t38.5 -31t40.5 -8zM231 560l100 150h154l-132 -150h-122z" />
    <glyph glyph-name="ocircumflex" unicode="&#xf4;" horiz-adv-x="630" 
d="M315 -15q-53 0 -103 20t-90 56t-63.5 85.5t-23.5 108.5t23.5 108.5t63.5 85.5t90 56t103 20t103 -20t90 -56t63.5 -85.5t23.5 -108.5t-23.5 -108.5t-63.5 -85.5t-90 -56t-103 -20zM315 150q19 0 41 8t38 31t16 66q0 44 -16 66.5t-38 30.5t-41 8q-18 0 -40.5 -8
t-38.5 -30.5t-16 -66.5q0 -43 16 -66t38.5 -31t40.5 -8zM143 560l120 150h104l120 -150h-132l-40 59l-40 -59h-132z" />
    <glyph glyph-name="otilde" unicode="&#xf5;" horiz-adv-x="630" 
d="M315 -15q-53 0 -103 20t-90 56t-63.5 85.5t-23.5 108.5t23.5 108.5t63.5 85.5t90 56t103 20t103 -20t90 -56t63.5 -85.5t23.5 -108.5t-23.5 -108.5t-63.5 -85.5t-90 -56t-103 -20zM315 150q19 0 41 8t38 31t16 66q0 44 -16 66.5t-38 30.5t-41 8q-18 0 -40.5 -8
t-38.5 -30.5t-16 -66.5q0 -43 16 -66t38.5 -31t40.5 -8zM378 546q-25 0 -42.5 6t-30.5 14.5t-23 14.5t-21 6q-16 0 -24.5 -10t-8.5 -27h-94q0 70 38 104.5t90 34.5q25 0 42.5 -6t30.5 -14.5t23.5 -14.5t20.5 -6q17 0 25 10t8 27h94q0 -70 -37.5 -104.5t-90.5 -34.5z" />
    <glyph glyph-name="odieresis" unicode="&#xf6;" horiz-adv-x="630" 
d="M315 -15q-53 0 -103 20t-90 56t-63.5 85.5t-23.5 108.5t23.5 108.5t63.5 85.5t90 56t103 20t103 -20t90 -56t63.5 -85.5t23.5 -108.5t-23.5 -108.5t-63.5 -85.5t-90 -56t-103 -20zM315 150q19 0 41 8t38 31t16 66q0 44 -16 66.5t-38 30.5t-41 8q-18 0 -40.5 -8
t-38.5 -30.5t-16 -66.5q0 -43 16 -66t38.5 -31t40.5 -8zM420 573q-31 0 -53.5 22.5t-22.5 53.5q0 32 22.5 54t53.5 22t53.5 -22t22.5 -54q0 -31 -22.5 -53.5t-53.5 -22.5zM210 573q-31 0 -53.5 22.5t-22.5 53.5q0 32 22.5 54t53.5 22t53.5 -22t22.5 -54q0 -31 -22.5 -53.5
t-53.5 -22.5z" />
    <glyph glyph-name="divide" unicode="&#xf7;" horiz-adv-x="610" 
d="M110 238v150h391v-150h-391zM306 25q-35 0 -60 25.5t-25 59.5q0 35 25 60t60 25t60 -25t25 -60q0 -34 -25 -59.5t-60 -25.5zM306 429q-35 0 -60 25.5t-25 59.5q0 35 25 60t60 25t60 -25t25 -60q0 -34 -25 -59.5t-60 -25.5z" />
    <glyph glyph-name="oslash" unicode="&#xf8;" horiz-adv-x="600" 
d="M116 -25l-69 60l456 493l72 -60zM315 -15q-53 0 -103 20t-90 56t-63.5 85.5t-23.5 108.5t23.5 108.5t63.5 85.5t90 56t103 20t103 -20t90 -56t63.5 -85.5t23.5 -108.5t-23.5 -108.5t-63.5 -85.5t-90 -56t-103 -20zM315 150q19 0 41 8t38 31t16 66q0 44 -16 66.5t-38 30.5
t-41 8q-18 0 -40.5 -8t-38.5 -30.5t-16 -66.5q0 -43 16 -66t38.5 -31t40.5 -8z" />
    <glyph glyph-name="ugrave" unicode="&#xf9;" horiz-adv-x="618" 
d="M309 -15q-71 0 -126 26t-86.5 75t-31.5 118v306h173v-260q0 -52 16.5 -76t54.5 -24t54.5 24t16.5 76v260h173v-306q0 -69 -31.5 -118t-86.5 -75t-126 -26zM259 560l-132 150h154l100 -150h-122z" />
    <glyph glyph-name="uacute" unicode="&#xfa;" horiz-adv-x="618" 
d="M309 -15q-71 0 -126 26t-86.5 75t-31.5 118v306h173v-260q0 -52 16.5 -76t54.5 -24t54.5 24t16.5 76v260h173v-306q0 -69 -31.5 -118t-86.5 -75t-126 -26zM233 560l100 150h154l-132 -150h-122z" />
    <glyph glyph-name="ucircumflex" unicode="&#xfb;" horiz-adv-x="618" 
d="M309 -15q-71 0 -126 26t-86.5 75t-31.5 118v306h173v-260q0 -52 16.5 -76t54.5 -24t54.5 24t16.5 76v260h173v-306q0 -69 -31.5 -118t-86.5 -75t-126 -26zM145 560l120 150h104l120 -150h-132l-40 59l-40 -59h-132z" />
    <glyph glyph-name="udieresis" unicode="&#xfc;" horiz-adv-x="618" 
d="M309 -15q-71 0 -126 26t-86.5 75t-31.5 118v306h173v-260q0 -52 16.5 -76t54.5 -24t54.5 24t16.5 76v260h173v-306q0 -69 -31.5 -118t-86.5 -75t-126 -26zM422 573q-31 0 -53.5 22.5t-22.5 53.5q0 32 22.5 54t53.5 22t53.5 -22t22.5 -54q0 -31 -22.5 -53.5t-53.5 -22.5z
M212 573q-31 0 -53.5 22.5t-22.5 53.5q0 32 22.5 54t53.5 22t53.5 -22t22.5 -54q0 -31 -22.5 -53.5t-53.5 -22.5z" />
    <glyph glyph-name="yacute" unicode="&#xfd;" horiz-adv-x="622" 
d="M59 -240l221 390l145 360h192l-366 -750h-192zM250 -20l-245 530h198l166 -400zM222 560l100 150h154l-132 -150h-122z" />
    <glyph glyph-name="thorn" unicode="&#xfe;" 
d="M70 -210v930h172v-295q19 42 58 71t94 29q57 0 107.5 -29t81.5 -89t31 -153q0 -86 -31.5 -146t-84 -91.5t-114.5 -31.5q-40 0 -78.5 17.5t-63.5 44.5v-257h-172zM348 153q25 0 44.5 14t30.5 37t11 50q0 28 -11.5 49.5t-31.5 34.5t-48 13q-21 0 -44.5 -11.5t-40 -35
t-16.5 -60.5v-49q23 -18 50.5 -30t55.5 -12z" />
    <glyph glyph-name="ydieresis" unicode="&#xff;" horiz-adv-x="622" 
d="M59 -240l221 390l145 360h192l-366 -750h-192zM250 -20l-245 530h198l166 -400zM411 573q-31 0 -53.5 22.5t-22.5 53.5q0 32 22.5 54t53.5 22t53.5 -22t22.5 -54q0 -31 -22.5 -53.5t-53.5 -22.5zM201 573q-31 0 -53.5 22.5t-22.5 53.5q0 32 22.5 54t53.5 22t53.5 -22
t22.5 -54q0 -31 -22.5 -53.5t-53.5 -22.5z" />
    <glyph glyph-name="Amacron" unicode="&#x100;" horiz-adv-x="732" 
d="M15 0l304 680h94l304 -680h-218l-133 378l-133 -378h-218zM166 100v140h381v-140h-381zM179 760v110h370v-110h-370z" />
    <glyph glyph-name="amacron" unicode="&#x101;" 
d="M255 -15q-57 0 -107 29t-81.5 89.5t-31.5 152.5q0 86 31.5 146t84 91.5t114.5 31.5q40 0 78.5 -17.5t63.5 -44.5v47h172v-510h-172v85q-19 -42 -58 -71t-94 -29zM306 159q22 0 45 11.5t39.5 35t16.5 60.5v49q-22 18 -49.5 30t-56.5 12q-25 0 -44.5 -14t-30.5 -37t-11 -50
t11.5 -49t32 -35t47.5 -13zM138 600v110h370v-110h-370z" />
    <glyph glyph-name="Abreve" unicode="&#x102;" horiz-adv-x="732" 
d="M15 0l304 680h94l304 -680h-218l-133 378l-133 -378h-218zM166 100v140h381v-140h-381zM364 720q-67 0 -113.5 40.5t-48.5 109.5h102q5 -21 20 -31.5t40 -10.5t40.5 14.5t19.5 27.5h102q-2 -69 -48 -109.5t-114 -40.5z" />
    <glyph glyph-name="abreve" unicode="&#x103;" 
d="M255 -15q-57 0 -107 29t-81.5 89.5t-31.5 152.5q0 86 31.5 146t84 91.5t114.5 31.5q40 0 78.5 -17.5t63.5 -44.5v47h172v-510h-172v85q-19 -42 -58 -71t-94 -29zM306 159q22 0 45 11.5t39.5 35t16.5 60.5v49q-22 18 -49.5 30t-56.5 12q-25 0 -44.5 -14t-30.5 -37t-11 -50
t11.5 -49t32 -35t47.5 -13zM323 560q-67 0 -113.5 40.5t-48.5 109.5h102q5 -21 20 -31.5t40 -10.5t40.5 14.5t19.5 27.5h102q-2 -69 -48 -109.5t-114 -40.5z" />
    <glyph glyph-name="Aogonek" unicode="&#x104;" horiz-adv-x="732" 
d="M15 0l304 680h94l304 -680h-218l-133 378l-133 -378h-218zM166 100v140h381v-140h-381zM523 -225q-30 0 -59 11t-48.5 33t-19.5 55q0 35 17.5 61t44.5 42.5t55 23.5h140q-29 -7 -53.5 -20.5t-38.5 -28t-14 -25.5q0 -16 10 -25.5t26 -9.5q17 0 30 5.5t24 12.5v-113
q-10 -5 -41 -13.5t-73 -8.5z" />
    <glyph glyph-name="aogonek" unicode="&#x105;" 
d="M255 -15q-57 0 -107 29t-81.5 89.5t-31.5 152.5q0 86 31.5 146t84 91.5t114.5 31.5q40 0 78.5 -17.5t63.5 -44.5v47h172v-510h-172v85q-19 -42 -58 -71t-94 -29zM306 159q22 0 45 11.5t39.5 35t16.5 60.5v49q-22 18 -49.5 30t-56.5 12q-25 0 -44.5 -14t-30.5 -37t-11 -50
t11.5 -49t32 -35t47.5 -13zM423 -225q-30 0 -59 11t-48.5 33t-19.5 55q0 35 17.5 61t44.5 42.5t55 23.5h140q-29 -7 -53.5 -20.5t-38.5 -28t-14 -25.5q0 -16 10 -25.5t26 -9.5q17 0 30 5.5t24 12.5v-113q-10 -5 -41 -13.5t-73 -8.5z" />
    <glyph glyph-name="Cacute" unicode="&#x106;" horiz-adv-x="612" 
d="M395 -15q-68 0 -131.5 23.5t-114 68.5t-80 110t-29.5 148t29.5 148t80 110t114 68.5t131.5 23.5q53 0 98 -15t79 -44v-181q-26 22 -50.5 36t-52.5 21.5t-67 7.5q-45 0 -83.5 -23t-62.5 -62.5t-24 -89.5t24 -89.5t62.5 -62.5t83.5 -23q58 0 94 16.5t76 48.5v-181
q-34 -29 -79 -44t-98 -15zM310 720l100 150h154l-132 -150h-122z" />
    <glyph glyph-name="cacute" unicode="&#x107;" horiz-adv-x="472" 
d="M304 -15q-57 0 -106 21.5t-85.5 59t-57 85.5t-20.5 101t20.5 102t57 87.5t85.5 61t106 22.5q59 0 90.5 -18.5t57.5 -38.5v-150q-23 17 -52.5 27t-72.5 10q-23 0 -48 -12t-42 -34.5t-17 -56.5q0 -33 15 -56t39.5 -34.5t52.5 -11.5q43 0 72.5 10.5t52.5 26.5v-150
q-26 -20 -57.5 -36t-90.5 -16zM216 560l100 150h154l-132 -150h-122z" />
    <glyph glyph-name="Cdotaccent" unicode="&#x10a;" horiz-adv-x="612" 
d="M395 -15q-68 0 -131.5 23.5t-114 68.5t-80 110t-29.5 148t29.5 148t80 110t114 68.5t131.5 23.5q53 0 98 -15t79 -44v-181q-26 22 -50.5 36t-52.5 21.5t-67 7.5q-45 0 -83.5 -23t-62.5 -62.5t-24 -89.5t24 -89.5t62.5 -62.5t83.5 -23q58 0 94 16.5t76 48.5v-181
q-34 -29 -79 -44t-98 -15zM394 718q-31 0 -53.5 22.5t-22.5 53.5q0 32 22.5 54t53.5 22t53.5 -22t22.5 -54q0 -31 -22.5 -53.5t-53.5 -22.5z" />
    <glyph glyph-name="cdotaccent" unicode="&#x10b;" horiz-adv-x="472" 
d="M304 -15q-57 0 -106 21.5t-85.5 59t-57 85.5t-20.5 101t20.5 102t57 87.5t85.5 61t106 22.5q59 0 90.5 -18.5t57.5 -38.5v-150q-23 17 -52.5 27t-72.5 10q-23 0 -48 -12t-42 -34.5t-17 -56.5q0 -33 15 -56t39.5 -34.5t52.5 -11.5q43 0 72.5 10.5t52.5 26.5v-150
q-26 -20 -57.5 -36t-90.5 -16zM300 558q-31 0 -53.5 22.5t-22.5 53.5q0 32 22.5 54t53.5 22t53.5 -22t22.5 -54q0 -31 -22.5 -53.5t-53.5 -22.5z" />
    <glyph glyph-name="Ccaron" unicode="&#x10c;" horiz-adv-x="612" 
d="M395 -15q-68 0 -131.5 23.5t-114 68.5t-80 110t-29.5 148t29.5 148t80 110t114 68.5t131.5 23.5q53 0 98 -15t79 -44v-181q-26 22 -50.5 36t-52.5 21.5t-67 7.5q-45 0 -83.5 -23t-62.5 -62.5t-24 -89.5t24 -89.5t62.5 -62.5t83.5 -23q58 0 94 16.5t76 48.5v-181
q-34 -29 -79 -44t-98 -15zM342 720l-120 150h132l40 -59l40 59h132l-120 -150h-104z" />
    <glyph glyph-name="ccaron" unicode="&#x10d;" horiz-adv-x="472" 
d="M304 -15q-57 0 -106 21.5t-85.5 59t-57 85.5t-20.5 101t20.5 102t57 87.5t85.5 61t106 22.5q59 0 90.5 -18.5t57.5 -38.5v-150q-23 17 -52.5 27t-72.5 10q-23 0 -48 -12t-42 -34.5t-17 -56.5q0 -33 15 -56t39.5 -34.5t52.5 -11.5q43 0 72.5 10.5t52.5 26.5v-150
q-26 -20 -57.5 -36t-90.5 -16zM248 560l-120 150h132l40 -59l40 59h132l-120 -150h-104z" />
    <glyph glyph-name="Dcaron" unicode="&#x10e;" horiz-adv-x="751" 
d="M368 -15q-46 0 -97.5 3.5t-100.5 10t-90 14.5v645q64 11 135.5 19.5t137.5 8.5q100 0 181 -40t129 -116t48 -184q0 -74 -24.5 -139.5t-69.5 -115.5t-108 -78t-141 -28zM359 160q51 0 86.5 23.5t54.5 63.5t19 89q0 52 -19 91.5t-54.5 61.5t-86.5 22q-23 0 -47.5 -3.5
t-44.5 -8.5v-327q23 -7 47 -9.5t45 -2.5zM268 720l-120 150h132l40 -59l40 59h132l-120 -150h-104z" />
    <glyph glyph-name="dcaron" unicode="&#x10f;" 
d="M255 -15q-57 0 -107 29t-81.5 89.5t-31.5 152.5q0 86 31.5 146t84 91.5t114.5 31.5q40 0 78.5 -17.5t63.5 -44.5v257h172v-720h-172v85q-19 -42 -58 -71t-94 -29zM306 159q22 0 45 11.5t39.5 35t16.5 60.5v49q-22 18 -49.5 30t-56.5 12q-25 0 -44.5 -14t-30.5 -37
t-11 -50t11.5 -49t32 -35t47.5 -13zM605 530l10 188h142l-30 -188h-122z" />
    <glyph glyph-name="Dcroat" unicode="&#x110;" horiz-adv-x="751" 
d="M26 261v150h301v-150h-301zM368 -15q-46 0 -97.5 3.5t-100.5 10t-90 14.5v645q64 11 135.5 19.5t137.5 8.5q100 0 181 -40t129 -116t48 -184q0 -74 -24.5 -139.5t-69.5 -115.5t-108 -78t-141 -28zM359 160q51 0 86.5 23.5t54.5 63.5t19 89q0 52 -19 91.5t-54.5 61.5
t-86.5 22q-23 0 -47.5 -3.5t-44.5 -8.5v-327q23 -7 47 -9.5t45 -2.5z" />
    <glyph glyph-name="dcroat" unicode="&#x111;" horiz-adv-x="645" 
d="M307 543v110h328v-110h-328zM255 -15q-57 0 -107 29t-81.5 89.5t-31.5 152.5q0 86 31.5 146t84 91.5t114.5 31.5q40 0 78.5 -17.5t63.5 -44.5v257h172v-720h-172v85q-19 -42 -58 -71t-94 -29zM306 159q22 0 45 11.5t39.5 35t16.5 60.5v49q-22 18 -49.5 30t-56.5 12
q-25 0 -44.5 -14t-30.5 -37t-11 -50t11.5 -49t32 -35t47.5 -13z" />
    <glyph glyph-name="Emacron" unicode="&#x112;" horiz-adv-x="644" 
d="M80 0v670h494v-155h-307v-355h307v-160h-494zM185 264v150h355v-150h-355zM139 760v110h370v-110h-370z" />
    <glyph glyph-name="emacron" unicode="&#x113;" horiz-adv-x="578" 
d="M316 -15q-54 0 -104.5 18t-90.5 52t-63 82.5t-23 109.5q0 76 35.5 139t97 101t138.5 38q72 0 128 -32t87.5 -89.5t31.5 -136.5v-59h-361v104h198q0 24 -13 40t-33 23.5t-43 7.5q-30 0 -52.5 -14.5t-35.5 -44.5t-13 -77q0 -38 16.5 -63t45.5 -37t64 -12q58 0 100.5 16.5
t63.5 28.5v-147q-17 -11 -43.5 -22t-59.5 -18.5t-71 -7.5zM126 600v110h370v-110h-370z" />
    <glyph glyph-name="Edotaccent" unicode="&#x116;" horiz-adv-x="644" 
d="M80 0v670h494v-155h-307v-355h307v-160h-494zM185 264v150h355v-150h-355zM324 718q-31 0 -53.5 22.5t-22.5 53.5q0 32 22.5 54t53.5 22t53.5 -22t22.5 -54q0 -31 -22.5 -53.5t-53.5 -22.5z" />
    <glyph glyph-name="edotaccent" unicode="&#x117;" horiz-adv-x="578" 
d="M316 -15q-54 0 -104.5 18t-90.5 52t-63 82.5t-23 109.5q0 76 35.5 139t97 101t138.5 38q72 0 128 -32t87.5 -89.5t31.5 -136.5v-59h-361v104h198q0 24 -13 40t-33 23.5t-43 7.5q-30 0 -52.5 -14.5t-35.5 -44.5t-13 -77q0 -38 16.5 -63t45.5 -37t64 -12q58 0 100.5 16.5
t63.5 28.5v-147q-17 -11 -43.5 -22t-59.5 -18.5t-71 -7.5zM311 558q-31 0 -53.5 22.5t-22.5 53.5q0 32 22.5 54t53.5 22t53.5 -22t22.5 -54q0 -31 -22.5 -53.5t-53.5 -22.5z" />
    <glyph glyph-name="Eogonek" unicode="&#x118;" horiz-adv-x="644" 
d="M80 0v670h494v-155h-307v-355h307v-160h-494zM185 264v150h355v-150h-355zM445 -225q-30 0 -59 11t-48.5 33t-19.5 55q0 35 17.5 61t44.5 42.5t55 23.5h140q-29 -7 -53.5 -20.5t-38.5 -28t-14 -25.5q0 -16 10 -25.5t26 -9.5q17 0 30 5.5t24 12.5v-113q-10 -5 -41 -13.5
t-73 -8.5z" />
    <glyph glyph-name="eogonek" unicode="&#x119;" horiz-adv-x="578" 
d="M316 -15q-54 0 -104.5 18t-90.5 52t-63 82.5t-23 109.5q0 76 35.5 139t97 101t138.5 38q72 0 128 -32t87.5 -89.5t31.5 -136.5v-59h-361v104h198q0 24 -13 40t-33 23.5t-43 7.5q-30 0 -52.5 -14.5t-35.5 -44.5t-13 -77q0 -38 16.5 -63t45.5 -37t64 -12q58 0 100.5 16.5
t63.5 28.5v-147q-17 -11 -43.5 -22t-59.5 -18.5t-71 -7.5zM313 -217q-30 0 -59 11t-48.5 33t-19.5 55q0 35 17.5 61t44.5 42.5t55 23.5h140q-29 -7 -53.5 -20.5t-38.5 -28t-14 -25.5q0 -16 10 -25.5t26 -9.5q17 0 30 5.5t24 12.5v-113q-10 -5 -41 -13.5t-73 -8.5z" />
    <glyph glyph-name="Ecaron" unicode="&#x11a;" horiz-adv-x="644" 
d="M80 0v670h494v-155h-307v-355h307v-160h-494zM185 264v150h355v-150h-355zM272 720l-120 150h132l40 -59l40 59h132l-120 -150h-104z" />
    <glyph glyph-name="ecaron" unicode="&#x11b;" horiz-adv-x="578" 
d="M316 -15q-54 0 -104.5 18t-90.5 52t-63 82.5t-23 109.5q0 76 35.5 139t97 101t138.5 38q72 0 128 -32t87.5 -89.5t31.5 -136.5v-59h-361v104h198q0 24 -13 40t-33 23.5t-43 7.5q-30 0 -52.5 -14.5t-35.5 -44.5t-13 -77q0 -38 16.5 -63t45.5 -37t64 -12q58 0 100.5 16.5
t63.5 28.5v-147q-17 -11 -43.5 -22t-59.5 -18.5t-71 -7.5zM259 560l-120 150h132l40 -59l40 59h132l-120 -150h-104z" />
    <glyph glyph-name="Gbreve" unicode="&#x11e;" horiz-adv-x="695" 
d="M395 -15q-68 0 -131.5 23.5t-114 68.5t-80 110t-29.5 148t29.5 148t80 110t114 68.5t131.5 23.5q53 0 98 -15t79 -44v-181q-26 22 -50.5 36t-52.5 21.5t-67 7.5q-45 0 -83.5 -23t-62.5 -62.5t-24 -89.5t24 -89.5t62.5 -62.5t83.5 -23q24 0 43.5 4.5t34 12t22.5 16.5
l138 -104q-31 -33 -69 -56t-82 -35.5t-94 -12.5zM479 29v209v1v120h161v-270zM373 720q-67 0 -113.5 40.5t-48.5 109.5h102q5 -21 20 -31.5t40 -10.5t40.5 14.5t19.5 27.5h102q-2 -69 -48 -109.5t-114 -40.5z" />
    <glyph glyph-name="gbreve" unicode="&#x11f;" 
d="M288 -255q-42 0 -77 8t-66 22.5t-62 35.5v152q32 -18 58.5 -32t57.5 -22.5t73 -8.5t72 16t46.5 42.5t16.5 55.5v71q-19 -42 -58 -71t-94 -29q-57 0 -107 29t-81.5 89.5t-31.5 152.5q0 86 31.5 146t84 91.5t114.5 31.5q40 0 78.5 -17.5t63.5 -44.5v47h172v-495
q0 -81 -40 -141.5t-106 -94.5t-145 -34zM306 159q22 0 45 11.5t39.5 35t16.5 60.5v49q-22 18 -49.5 30t-56.5 12q-25 0 -44.5 -14t-30.5 -37t-11 -50t11.5 -49t32 -35t47.5 -13zM320 560q-67 0 -113.5 40.5t-48.5 109.5h102q5 -21 20 -31.5t40 -10.5t40.5 14.5t19.5 27.5
h102q-2 -69 -48 -109.5t-114 -40.5z" />
    <glyph glyph-name="Gdotaccent" unicode="&#x120;" horiz-adv-x="695" 
d="M395 -15q-68 0 -131.5 23.5t-114 68.5t-80 110t-29.5 148t29.5 148t80 110t114 68.5t131.5 23.5q53 0 98 -15t79 -44v-181q-26 22 -50.5 36t-52.5 21.5t-67 7.5q-45 0 -83.5 -23t-62.5 -62.5t-24 -89.5t24 -89.5t62.5 -62.5t83.5 -23q24 0 43.5 4.5t34 12t22.5 16.5
l138 -104q-31 -33 -69 -56t-82 -35.5t-94 -12.5zM479 29v209v1v120h161v-270zM373 718q-31 0 -53.5 22.5t-22.5 53.5q0 32 22.5 54t53.5 22t53.5 -22t22.5 -54q0 -31 -22.5 -53.5t-53.5 -22.5z" />
    <glyph glyph-name="gdotaccent" unicode="&#x121;" 
d="M288 -255q-42 0 -77 8t-66 22.5t-62 35.5v152q32 -18 58.5 -32t57.5 -22.5t73 -8.5t72 16t46.5 42.5t16.5 55.5v71q-19 -42 -58 -71t-94 -29q-57 0 -107 29t-81.5 89.5t-31.5 152.5q0 86 31.5 146t84 91.5t114.5 31.5q40 0 78.5 -17.5t63.5 -44.5v47h172v-495
q0 -81 -40 -141.5t-106 -94.5t-145 -34zM306 159q22 0 45 11.5t39.5 35t16.5 60.5v49q-22 18 -49.5 30t-56.5 12q-25 0 -44.5 -14t-30.5 -37t-11 -50t11.5 -49t32 -35t47.5 -13zM320 558q-31 0 -53.5 22.5t-22.5 53.5q0 32 22.5 54t53.5 22t53.5 -22t22.5 -54
q0 -31 -22.5 -53.5t-53.5 -22.5z" />
    <glyph glyph-name="uni0122" unicode="&#x122;" horiz-adv-x="695" 
d="M395 -15q-68 0 -131.5 23.5t-114 68.5t-80 110t-29.5 148t29.5 148t80 110t114 68.5t131.5 23.5q53 0 98 -15t79 -44v-181q-26 22 -50.5 36t-52.5 21.5t-67 7.5q-45 0 -83.5 -23t-62.5 -62.5t-24 -89.5t24 -89.5t62.5 -62.5t83.5 -23q24 0 43.5 4.5t34 12t22.5 16.5
l138 -104q-31 -33 -69 -56t-82 -35.5t-94 -12.5zM479 29v209v1v120h161v-270zM393 -225q-16 0 -29.5 5.5t-23.5 12.5v84q22 -15 47 -15q11 0 18.5 4.5t7.5 13.5t-8 14t-19 5v79q43 0 76.5 -24t33.5 -73q0 -35 -14.5 -59t-38 -35.5t-50.5 -11.5z" />
    <glyph glyph-name="uni0123" unicode="&#x123;" 
d="M288 -255q-42 0 -77 8t-66 22.5t-62 35.5v152q32 -18 58.5 -32t57.5 -22.5t73 -8.5t72 16t46.5 42.5t16.5 55.5v71q-19 -42 -58 -71t-94 -29q-57 0 -107 29t-81.5 89.5t-31.5 152.5q0 86 31.5 146t84 91.5t114.5 31.5q40 0 78.5 -17.5t63.5 -44.5v47h172v-495
q0 -81 -40 -141.5t-106 -94.5t-145 -34zM306 159q22 0 45 11.5t39.5 35t16.5 60.5v49q-22 18 -49.5 30t-56.5 12q-25 0 -44.5 -14t-30.5 -37t-11 -50t11.5 -49t32 -35t47.5 -13zM350 735q17 0 30 -5.5t23 -12.5v-84q-22 15 -47 15q-11 0 -18.5 -4.5t-7.5 -13.5t8 -14t19 -5
v-79q-43 0 -76.5 24t-33.5 73q0 36 14.5 59.5t38.5 35t50 11.5z" />
    <glyph glyph-name="Hbar" unicode="&#x126;" horiz-adv-x="774" 
d="M7 477v110h760v-110h-760zM507 0v670h187v-670h-187zM80 0v670h187v-670h-187zM247 240v165h288v-165h-288z" />
    <glyph glyph-name="hbar" unicode="&#x127;" horiz-adv-x="628" 
d="M3 560v90h382v-90h-382zM391 0l-1 288q0 38 -21 53.5t-47 15.5q-28 0 -47 -14.5t-33 -34.5v136q16 22 36.5 40.5t47 29.5t60.5 11q52 0 92 -23.5t62.5 -70.5t22.5 -116v-315h-172zM70 0v720h172v-720h-172z" />
    <glyph glyph-name="Imacron" unicode="&#x12a;" horiz-adv-x="573" 
d="M193 0v670h187v-670h-187zM70 0v155h433v-155h-433zM70 515v155h433v-155h-433zM102 760v110h370v-110h-370z" />
    <glyph glyph-name="imacron" unicode="&#x12b;" horiz-adv-x="375" 
d="M133 0v510h172v-510h-172zM50 370v140h255v-140h-255zM8 600v110h370v-110h-370z" />
    <glyph glyph-name="Iogonek" unicode="&#x12e;" horiz-adv-x="573" 
d="M193 0v670h187v-670h-187zM70 0v155h433v-155h-433zM70 515v155h433v-155h-433zM239 -225q-30 0 -59 11t-48.5 33t-19.5 55q0 35 17.5 61t44.5 42.5t55 23.5h140q-29 -7 -53.5 -20.5t-38.5 -28t-14 -25.5q0 -16 10 -25.5t26 -9.5q17 0 30 5.5t24 12.5v-113
q-10 -5 -41 -13.5t-73 -8.5z" />
    <glyph glyph-name="iogonek" unicode="&#x12f;" horiz-adv-x="338" 
d="M142 -226q-30 0 -59 11t-48.5 33t-19.5 55q0 35 17.5 61t44.5 42.5t55 23.5h140q-29 -7 -53.5 -20.5t-38.5 -28t-14 -25.5q0 -16 10 -25.5t26 -9.5q17 0 30 5.5t24 12.5v-113q-10 -5 -41 -13.5t-73 -8.5zM171 588q-44 0 -76 30.5t-32 73.5q0 44 32 74t76 30
q28 0 52.5 -14t39.5 -37.5t15 -52.5q0 -28 -15 -52t-39.5 -38t-52.5 -14zM100 0v510h172v-510h-172zM17 370v140h255v-140h-255z" />
    <glyph glyph-name="Idotaccent" unicode="&#x130;" horiz-adv-x="573" 
d="M193 0v670h187v-670h-187zM70 0v155h433v-155h-433zM70 515v155h433v-155h-433zM287 718q-31 0 -53.5 22.5t-22.5 53.5q0 32 22.5 54t53.5 22t53.5 -22t22.5 -54q0 -31 -22.5 -53.5t-53.5 -22.5z" />
    <glyph glyph-name="dotlessi" unicode="&#x131;" horiz-adv-x="375" 
d="M133 0v510h172v-510h-172zM50 370v140h255v-140h-255z" />
    <glyph glyph-name="IJ" unicode="&#x132;" horiz-adv-x="947" 
d="M193 0v670h187v-670h-187zM70 0v155h433v-155h-433zM70 515v155h433v-155h-433zM605 -255l-62 162q147 32 147 147v618h187v-625q0 -83 -34.5 -145t-95.5 -101t-142 -56z" />
    <glyph glyph-name="ij" unicode="&#x133;" horiz-adv-x="748" 
d="M199 588q-44 0 -76 30.5t-32 73.5q0 44 32 74t76 30q28 0 52.5 -14t39.5 -37.5t15 -52.5q0 -28 -15 -52t-39.5 -38t-52.5 -14zM128 0v510h172v-510h-172zM45 370v140h255v-140h-255zM570 796q29 0 53.5 -14t39.5 -37.5t15 -52.5q0 -28 -15 -52t-39.5 -38t-53.5 -14
t-53.5 14t-39.5 38t-15 52q0 44 32.5 74t75.5 30zM472 -255l-75 147q39 17 65.5 46t26.5 73v359h-83v140h255v-501q0 -104 -47.5 -169t-141.5 -95z" />
    <glyph glyph-name="uni0136" unicode="&#x136;" horiz-adv-x="710" 
d="M248 181l-119 87l338 402h215zM80 0v670h187v-670h-187zM465 0l-234 330l146 99l318 -429h-230zM349 -225q-16 0 -29.5 5.5t-23.5 12.5v84q22 -15 47 -15q11 0 18.5 4.5t7.5 13.5t-8 14t-19 5v79q43 0 76.5 -24t33.5 -73q0 -35 -14.5 -59t-38 -35.5t-50.5 -11.5z" />
    <glyph glyph-name="uni0137" unicode="&#x137;" horiz-adv-x="617" 
d="M218 98v197l187 215h198zM70 0v720h172v-720h-172zM395 0l-124 214l106 117l235 -331h-217zM298 -225q-16 0 -29.5 5.5t-23.5 12.5v84q22 -15 47 -15q11 0 18.5 4.5t7.5 13.5t-8 14t-19 5v79q43 0 76.5 -24t33.5 -73q0 -35 -14.5 -59t-38 -35.5t-50.5 -11.5z" />
    <glyph glyph-name="Lacute" unicode="&#x139;" horiz-adv-x="618" 
d="M80 0v670h187v-505h291v-165h-478zM154 720l100 150h154l-132 -150h-122z" />
    <glyph glyph-name="lacute" unicode="&#x13a;" horiz-adv-x="312" 
d="M70 0v720h172v-720h-172zM101 770l100 150h154l-132 -150h-122z" />
    <glyph glyph-name="uni013B" unicode="&#x13b;" horiz-adv-x="618" 
d="M80 0v670h187v-505h291v-165h-478zM279 -225q-16 0 -29.5 5.5t-23.5 12.5v84q22 -15 47 -15q11 0 18.5 4.5t7.5 13.5t-8 14t-19 5v79q43 0 76.5 -24t33.5 -73q0 -35 -14.5 -59t-38 -35.5t-50.5 -11.5z" />
    <glyph glyph-name="uni013C" unicode="&#x13c;" horiz-adv-x="312" 
d="M70 0v720h172v-720h-172zM126 -225q-16 0 -29.5 5.5t-23.5 12.5v84q22 -15 47 -15q11 0 18.5 4.5t7.5 13.5t-8 14t-19 5v79q43 0 76.5 -24t33.5 -73q0 -35 -14.5 -59t-38 -35.5t-50.5 -11.5z" />
    <glyph glyph-name="Lcaron" unicode="&#x13d;" horiz-adv-x="618" 
d="M80 0v670h187v-505h291v-165h-478zM325 530l10 188h142l-30 -188h-122z" />
    <glyph glyph-name="lcaron" unicode="&#x13e;" horiz-adv-x="312" 
d="M70 0v720h172v-720h-172zM265 532l10 188h142l-30 -188h-122z" />
    <glyph glyph-name="Ldot" unicode="&#x13f;" horiz-adv-x="618" 
d="M80 0v670h187v-505h291v-165h-478zM429 321q-37 0 -63.5 26.5t-26.5 63.5q0 38 26.5 64t63.5 26t63.5 -26t26.5 -64q0 -37 -26.5 -63.5t-63.5 -26.5z" />
    <glyph glyph-name="ldot" unicode="&#x140;" horiz-adv-x="378" 
d="M70 0v720h172v-720h-172zM345 345q-37 0 -63.5 26.5t-26.5 63.5q0 38 26.5 64t63.5 26t63.5 -26t26.5 -64q0 -37 -26.5 -63.5t-63.5 -26.5z" />
    <glyph glyph-name="Lslash" unicode="&#x141;" horiz-adv-x="598" 
d="M10 173v156l351 218v-156zM80 0v670h187v-505h291v-165h-478z" />
    <glyph glyph-name="lslash" unicode="&#x142;" horiz-adv-x="341" 
d="M10 173v156l321 208v-156zM85 0v720h172v-720h-172z" />
    <glyph glyph-name="Nacute" unicode="&#x143;" horiz-adv-x="772" 
d="M626 -10l-359 329v-319h-187v680h66l359 -335v325h187v-680h-66zM302 720l100 150h154l-132 -150h-122z" />
    <glyph glyph-name="nacute" unicode="&#x144;" horiz-adv-x="628" 
d="M390 0v288q0 38 -21 53.5t-47 15.5q-28 0 -47 -14.5t-33 -34.5v136q16 22 36.5 40.5t47 29.5t60.5 11q52 0 92 -23.5t62.5 -70.5t22.5 -116v-315h-173zM70 0v510h172v-510h-172zM249 563l100 150h154l-132 -150h-122z" />
    <glyph glyph-name="uni0145" unicode="&#x145;" horiz-adv-x="772" 
d="M626 -10l-359 329v-319h-187v680h66l359 -335v325h187v-680h-66zM356 -225q-16 0 -29.5 5.5t-23.5 12.5v84q22 -15 47 -15q11 0 18.5 4.5t7.5 13.5t-8 14t-19 5v79q43 0 76.5 -24t33.5 -73q0 -35 -14.5 -59t-38 -35.5t-50.5 -11.5z" />
    <glyph glyph-name="uni0146" unicode="&#x146;" horiz-adv-x="628" 
d="M390 0v288q0 38 -21 53.5t-47 15.5q-28 0 -47 -14.5t-33 -34.5v136q16 22 36.5 40.5t47 29.5t60.5 11q52 0 92 -23.5t62.5 -70.5t22.5 -116v-315h-173zM70 0v510h172v-510h-172zM293 -225q-16 0 -29.5 5.5t-23.5 12.5v84q22 -15 47 -15q11 0 18.5 4.5t7.5 13.5t-8 14
t-19 5v79q43 0 76.5 -24t33.5 -73q0 -35 -14.5 -59t-38 -35.5t-50.5 -11.5z" />
    <glyph glyph-name="Ncaron" unicode="&#x147;" horiz-adv-x="772" 
d="M626 -10l-359 329v-319h-187v680h66l359 -335v325h187v-680h-66zM334 720l-120 150h132l40 -59l40 59h132l-120 -150h-104z" />
    <glyph glyph-name="ncaron" unicode="&#x148;" horiz-adv-x="628" 
d="M390 0v288q0 38 -21 53.5t-47 15.5q-28 0 -47 -14.5t-33 -34.5v136q16 22 36.5 40.5t47 29.5t60.5 11q52 0 92 -23.5t62.5 -70.5t22.5 -116v-315h-173zM70 0v510h172v-510h-172zM281 563l-120 150h132l40 -59l40 59h132l-120 -150h-104z" />
    <glyph glyph-name="Eng" unicode="&#x14a;" horiz-adv-x="762" 
d="M80 0v680h66l478 -456l-63 -173l-294 278v-329h-187zM420 -255l-62 162q147 32 147 147v618h187v-625q0 -83 -34.5 -145t-95.5 -101t-142 -56z" />
    <glyph glyph-name="eng" unicode="&#x14b;" horiz-adv-x="633" 
d="M373 -255l-75 147q39 17 65.5 46t26.5 73v173h172v-225q0 -67 -47.5 -125.5t-141.5 -88.5zM390 0v288q0 38 -21 53.5t-47 15.5q-28 0 -47 -14.5t-33 -34.5v136q16 22 36.5 40.5t47 29.5t60.5 11q52 0 92 -23.5t62.5 -70.5t22.5 -116v-315h-173zM70 0v510h172v-510h-172z
" />
    <glyph glyph-name="Omacron" unicode="&#x14c;" horiz-adv-x="776" 
d="M388 -15q-68 0 -130.5 23.5t-111.5 68.5t-77.5 110t-28.5 148t28.5 148t77.5 110t111.5 68.5t130.5 23.5t130.5 -23.5t111.5 -68.5t77.5 -110t28.5 -148t-28.5 -148t-77.5 -110t-111.5 -68.5t-130.5 -23.5zM388 160q45 0 80.5 23t55.5 62.5t20 89.5t-20 89.5t-55.5 62.5
t-80.5 23t-80 -23t-55.5 -62.5t-20.5 -89.5t20.5 -89.5t55.5 -62.5t80 -23zM203 760v110h370v-110h-370z" />
    <glyph glyph-name="omacron" unicode="&#x14d;" horiz-adv-x="630" 
d="M315 -15q-53 0 -103 20t-90 56t-63.5 85.5t-23.5 108.5t23.5 108.5t63.5 85.5t90 56t103 20t103 -20t90 -56t63.5 -85.5t23.5 -108.5t-23.5 -108.5t-63.5 -85.5t-90 -56t-103 -20zM315 150q19 0 41 8t38 31t16 66q0 44 -16 66.5t-38 30.5t-41 8q-18 0 -40.5 -8
t-38.5 -30.5t-16 -66.5q0 -43 16 -66t38.5 -31t40.5 -8zM130 600v110h370v-110h-370z" />
    <glyph glyph-name="Ohungarumlaut" unicode="&#x150;" horiz-adv-x="776" 
d="M388 -15q-68 0 -130.5 23.5t-111.5 68.5t-77.5 110t-28.5 148t28.5 148t77.5 110t111.5 68.5t130.5 23.5t130.5 -23.5t111.5 -68.5t77.5 -110t28.5 -148t-28.5 -148t-77.5 -110t-111.5 -68.5t-130.5 -23.5zM388 160q45 0 80.5 23t55.5 62.5t20 89.5t-20 89.5t-55.5 62.5
t-80.5 23t-80 -23t-55.5 -62.5t-20.5 -89.5t20.5 -89.5t55.5 -62.5t80 -23zM403 720l100 150h154l-132 -150h-122zM199 720l100 150h154l-132 -150h-122z" />
    <glyph glyph-name="ohungarumlaut" unicode="&#x151;" horiz-adv-x="630" 
d="M315 -15q-53 0 -103 20t-90 56t-63.5 85.5t-23.5 108.5t23.5 108.5t63.5 85.5t90 56t103 20t103 -20t90 -56t63.5 -85.5t23.5 -108.5t-23.5 -108.5t-63.5 -85.5t-90 -56t-103 -20zM315 150q19 0 41 8t38 31t16 66q0 44 -16 66.5t-38 30.5t-41 8q-18 0 -40.5 -8
t-38.5 -30.5t-16 -66.5q0 -43 16 -66t38.5 -31t40.5 -8zM330 560l100 150h154l-132 -150h-122zM126 560l100 150h154l-132 -150h-122z" />
    <glyph glyph-name="OE" unicode="&#x152;" horiz-adv-x="1023" 
d="M393 0q-72 0 -136 25t-112.5 70.5t-76.5 106.5t-28 133t28 133t76.5 106.5t112.5 70.5t136 25h93v-145h-93q-55 0 -98 -22.5t-68 -65t-25 -102.5t25 -105t68 -70t98 -25h93v-135h-93zM459 0v670h494v-155h-307v-355h307v-160h-494zM564 264v150h355v-150h-355z" />
    <glyph glyph-name="oe" unicode="&#x153;" horiz-adv-x="972" 
d="M315 -15q-53 0 -103 20t-90 56t-63.5 85.5t-23.5 108.5t23.5 108.5t63.5 85.5t90 56t103 20t103 -20t90 -56t63.5 -85.5t23.5 -108.5t-23.5 -108.5t-63.5 -85.5t-90 -56t-103 -20zM315 150q19 0 41 8t38 31t16 66q0 44 -16 66.5t-38 30.5t-41 8q-18 0 -40.5 -8
t-38.5 -30.5t-16 -66.5q0 -43 16 -66t38.5 -31t40.5 -8zM710 -15q-54 0 -104.5 18t-90.5 52t-63 82.5t-23 109.5q0 76 35.5 139t97 101t138.5 38q72 0 128 -32t87.5 -89.5t31.5 -136.5v-59h-361v104h198q0 24 -13 40t-33 23.5t-43 7.5q-30 0 -52.5 -14.5t-35.5 -44.5
t-13 -77q0 -38 16.5 -63t45.5 -37t64 -12q58 0 100.5 16.5t63.5 28.5v-147q-17 -11 -43.5 -22t-59.5 -18.5t-71 -7.5z" />
    <glyph glyph-name="Racute" unicode="&#x154;" horiz-adv-x="689" 
d="M80 0v670h287q51 0 99.5 -14t87.5 -43t62.5 -73t23.5 -103q0 -62 -30 -104.5t-80.5 -64t-112.5 -21.5q-13 0 -37 5t-51 11.5t-50 12.5t-34 8v95q20 -9 45.5 -16t54.5 -7q44 0 73.5 22.5t29.5 58.5q0 41 -29.5 59.5t-73.5 18.5h-78v-515h-187zM446 0l-191 284l168 49
l251 -333h-228zM225 720l100 150h154l-132 -150h-122z" />
    <glyph glyph-name="racute" unicode="&#x155;" horiz-adv-x="438" 
d="M70 0v510h172v-510h-172zM242 262v157q24 41 53.5 71t77.5 30q26 0 45 -9v-190q-15 8 -31.5 12.5t-38.5 4.5q-35 0 -62 -21t-44 -55zM162 560l100 150h154l-132 -150h-122z" />
    <glyph glyph-name="uni0156" unicode="&#x156;" horiz-adv-x="689" 
d="M80 0v670h287q51 0 99.5 -14t87.5 -43t62.5 -73t23.5 -103q0 -62 -30 -104.5t-80.5 -64t-112.5 -21.5q-13 0 -37 5t-51 11.5t-50 12.5t-34 8v95q20 -9 45.5 -16t54.5 -7q44 0 73.5 22.5t29.5 58.5q0 41 -29.5 59.5t-73.5 18.5h-78v-515h-187zM446 0l-191 284l168 49
l251 -333h-228zM319 -225q-16 0 -29.5 5.5t-23.5 12.5v84q22 -15 47 -15q11 0 18.5 4.5t7.5 13.5t-8 14t-19 5v79q43 0 76.5 -24t33.5 -73q0 -35 -14.5 -59t-38 -35.5t-50.5 -11.5z" />
    <glyph glyph-name="uni0157" unicode="&#x157;" horiz-adv-x="438" 
d="M70 0v510h172v-510h-172zM242 262v157q24 41 53.5 71t77.5 30q26 0 45 -9v-190q-15 8 -31.5 12.5t-38.5 4.5q-35 0 -62 -21t-44 -55zM135 -225q-16 0 -29.5 5.5t-23.5 12.5v84q22 -15 47 -15q11 0 18.5 4.5t7.5 13.5t-8 14t-19 5v79q43 0 76.5 -24t33.5 -73
q0 -35 -14.5 -59t-38 -35.5t-50.5 -11.5z" />
    <glyph glyph-name="Rcaron" unicode="&#x158;" horiz-adv-x="689" 
d="M80 0v670h287q51 0 99.5 -14t87.5 -43t62.5 -73t23.5 -103q0 -62 -30 -104.5t-80.5 -64t-112.5 -21.5q-13 0 -37 5t-51 11.5t-50 12.5t-34 8v95q20 -9 45.5 -16t54.5 -7q44 0 73.5 22.5t29.5 58.5q0 41 -29.5 59.5t-73.5 18.5h-78v-515h-187zM446 0l-191 284l168 49
l251 -333h-228zM257 720l-120 150h132l40 -59l40 59h132l-120 -150h-104z" />
    <glyph glyph-name="rcaron" unicode="&#x159;" horiz-adv-x="438" 
d="M70 0v510h172v-510h-172zM242 262v157q24 41 53.5 71t77.5 30q26 0 45 -9v-190q-15 8 -31.5 12.5t-38.5 4.5q-35 0 -62 -21t-44 -55zM194 560l-120 150h132l40 -59l40 59h132l-120 -150h-104z" />
    <glyph glyph-name="Sacute" unicode="&#x15a;" horiz-adv-x="573" 
d="M265 -15q-60 0 -119 21t-103 52v171q48 -36 108.5 -59t116.5 -23q35 0 51.5 13.5t16.5 34.5q0 10 -7 19t-20.5 17t-31.5 13l-95 30q-56 18 -87 48t-43 67.5t-12 77.5q0 71 36 119.5t94 73.5t123 25q59 0 116.5 -14.5t92.5 -38.5v-171q-43 25 -90 43.5t-104 18.5
q-22 0 -38 -7t-24.5 -18.5t-8.5 -27.5q0 -25 29 -39t71 -31l68 -27q73 -28 105.5 -71t32.5 -97q0 -64 -37 -113.5t-100 -78t-141 -28.5zM210 720l100 150h154l-132 -150h-122z" />
    <glyph glyph-name="sacute" unicode="&#x15b;" horiz-adv-x="456" 
d="M227 -15q-38 0 -72.5 7.5t-64.5 20.5t-53 29v134q24 -15 53 -26.5t57.5 -18.5t52.5 -7q29 0 42.5 7t13.5 25q0 14 -16 21.5t-46 17.5l-51 16q-56 17 -82 53.5t-26 89.5t28 91t76.5 59t108.5 21q50 0 92.5 -14.5t68.5 -39.5v-135q-26 16 -59 30.5t-71 14.5
q-24 0 -42.5 -9.5t-18.5 -29.5q0 -14 11 -21t43 -15l31 -8q68 -17 100.5 -52.5t32.5 -90.5q0 -50 -29.5 -88.5t-77 -60t-102.5 -21.5zM144 560l100 150h154l-132 -150h-122z" />
    <glyph glyph-name="Scedilla" unicode="&#x15e;" horiz-adv-x="573" 
d="M265 -15q-60 0 -119 21t-103 52v171q48 -36 108.5 -59t116.5 -23q35 0 51.5 13.5t16.5 34.5q0 10 -7 19t-20.5 17t-31.5 13l-95 30q-56 18 -87 48t-43 67.5t-12 77.5q0 71 36 119.5t94 73.5t123 25q59 0 116.5 -14.5t92.5 -38.5v-171q-43 25 -90 43.5t-104 18.5
q-22 0 -38 -7t-24.5 -18.5t-8.5 -27.5q0 -25 29 -39t71 -31l68 -27q73 -28 105.5 -71t32.5 -97q0 -64 -37 -113.5t-100 -78t-141 -28.5zM269 -240q-15 0 -39.5 6t-40.5 19l7 74q16 -8 32 -17t38 -9q10 0 21 6.5t11 19.5q0 12 -9.5 18t-20.5 6q-7 0 -13.5 -2t-16.5 -7l-24 12
l12 116h74l-3 -48q41 2 65.5 -23t24.5 -62q0 -51 -33 -80t-85 -29z" />
    <glyph glyph-name="scedilla" unicode="&#x15f;" horiz-adv-x="456" 
d="M227 -15q-38 0 -72.5 7.5t-64.5 20.5t-53 29v134q24 -15 53 -26.5t57.5 -18.5t52.5 -7q29 0 42.5 7t13.5 25q0 14 -16 21.5t-46 17.5l-51 16q-56 17 -82 53.5t-26 89.5t28 91t76.5 59t108.5 21q50 0 92.5 -14.5t68.5 -39.5v-135q-26 16 -59 30.5t-71 14.5
q-24 0 -42.5 -9.5t-18.5 -29.5q0 -14 11 -21t43 -15l31 -8q68 -17 100.5 -52.5t32.5 -90.5q0 -50 -29.5 -88.5t-77 -60t-102.5 -21.5zM210 -240q-15 0 -39.5 6t-40.5 19l7 74q16 -8 32 -17t38 -9q10 0 21 6.5t11 19.5q0 12 -9.5 18t-20.5 6q-7 0 -13.5 -2t-16.5 -7l-24 12
l12 116h74l-3 -48q41 2 65.5 -23t24.5 -62q0 -51 -33 -80t-85 -29z" />
    <glyph glyph-name="Scaron" unicode="&#x160;" horiz-adv-x="573" 
d="M265 -15q-60 0 -119 21t-103 52v171q48 -36 108.5 -59t116.5 -23q35 0 51.5 13.5t16.5 34.5q0 10 -7 19t-20.5 17t-31.5 13l-95 30q-56 18 -87 48t-43 67.5t-12 77.5q0 71 36 119.5t94 73.5t123 25q59 0 116.5 -14.5t92.5 -38.5v-171q-43 25 -90 43.5t-104 18.5
q-22 0 -38 -7t-24.5 -18.5t-8.5 -27.5q0 -25 29 -39t71 -31l68 -27q73 -28 105.5 -71t32.5 -97q0 -64 -37 -113.5t-100 -78t-141 -28.5zM242 720l-120 150h132l40 -59l40 59h132l-120 -150h-104z" />
    <glyph glyph-name="scaron" unicode="&#x161;" horiz-adv-x="456" 
d="M227 -15q-38 0 -72.5 7.5t-64.5 20.5t-53 29v134q24 -15 53 -26.5t57.5 -18.5t52.5 -7q29 0 42.5 7t13.5 25q0 14 -16 21.5t-46 17.5l-51 16q-56 17 -82 53.5t-26 89.5t28 91t76.5 59t108.5 21q50 0 92.5 -14.5t68.5 -39.5v-135q-26 16 -59 30.5t-71 14.5
q-24 0 -42.5 -9.5t-18.5 -29.5q0 -14 11 -21t43 -15l31 -8q68 -17 100.5 -52.5t32.5 -90.5q0 -50 -29.5 -88.5t-77 -60t-102.5 -21.5zM176 560l-120 150h132l40 -59l40 59h132l-120 -150h-104z" />
    <glyph glyph-name="uni0162" unicode="&#x162;" horiz-adv-x="621" 
d="M217 0v670h187v-670h-187zM35 515v155h551v-155h-551zM311 -240q-15 0 -39.5 6t-40.5 19l7 74q16 -8 32 -17t38 -9q10 0 21 6.5t11 19.5q0 12 -9.5 18t-20.5 6q-7 0 -13.5 -2t-16.5 -7l-24 12l12 116h74l-3 -48q41 2 65.5 -23t24.5 -62q0 -51 -33 -80t-85 -29z" />
    <glyph glyph-name="uni0163" unicode="&#x163;" horiz-adv-x="481" 
d="M294 -15q-48 0 -89.5 22t-67 63t-25.5 99v206h-72v105q49 13 79.5 54t52.5 106h112v-130h144v-135h-144v-143q0 -37 14.5 -58.5t49.5 -21.5q30 0 49.5 10.5t38.5 21.5v-144q-16 -22 -54 -38.5t-88 -16.5zM278 -240q-15 0 -39.5 6t-40.5 19l7 74q16 -8 32 -17t38 -9
q10 0 21 6.5t11 19.5q0 12 -9.5 18t-20.5 6q-7 0 -13.5 -2t-16.5 -7l-24 12l12 116h74l-3 -48q41 2 65.5 -23t24.5 -62q0 -51 -33 -80t-85 -29z" />
    <glyph glyph-name="Tcaron" unicode="&#x164;" horiz-adv-x="621" 
d="M217 0v670h187v-670h-187zM35 515v155h551v-155h-551zM259 720l-120 150h132l40 -59l40 59h132l-120 -150h-104z" />
    <glyph glyph-name="tcaron" unicode="&#x165;" horiz-adv-x="481" 
d="M294 -15q-48 0 -89.5 22t-67 63t-25.5 99v206h-72v105q49 13 79.5 54t52.5 106h112v-130h144v-135h-144v-143q0 -37 14.5 -58.5t49.5 -21.5q30 0 49.5 10.5t38.5 21.5v-144q-16 -22 -54 -38.5t-88 -16.5zM346 560l10 188h142l-30 -188h-122z" />
    <glyph glyph-name="Tbar" unicode="&#x166;" horiz-adv-x="621" 
d="M126 281v110h370v-110h-370zM217 0v670h187v-670h-187zM35 515v155h551v-155h-551z" />
    <glyph glyph-name="tbar" unicode="&#x167;" horiz-adv-x="448" 
d="M24 229v90h382v-90h-382zM294 -15q-48 0 -89.5 22t-67 63t-25.5 99v206h-72v105q49 13 79.5 54t52.5 106h112v-130h144v-135h-144v-143q0 -37 14.5 -58.5t49.5 -21.5q30 0 49.5 10.5t38.5 21.5v-144q-16 -22 -54 -38.5t-88 -16.5z" />
    <glyph glyph-name="Umacron" unicode="&#x16a;" horiz-adv-x="746" 
d="M373 -15q-83 0 -152 33.5t-110 96.5t-41 150v407h187v-394q0 -34 12.5 -61t38 -42t65.5 -15t65.5 15t38 42t12.5 61v394h187v-407q0 -87 -41 -150t-109.5 -96.5t-152.5 -33.5zM188 760v110h370v-110h-370z" />
    <glyph glyph-name="umacron" unicode="&#x16b;" horiz-adv-x="618" 
d="M309 -15q-71 0 -126 26t-86.5 75t-31.5 118v306h173v-260q0 -52 16.5 -76t54.5 -24t54.5 24t16.5 76v260h173v-306q0 -69 -31.5 -118t-86.5 -75t-126 -26zM132 600v110h370v-110h-370z" />
    <glyph glyph-name="Ubreve" unicode="&#x16c;" horiz-adv-x="746" 
d="M373 -15q-83 0 -152 33.5t-110 96.5t-41 150v407h187v-394q0 -34 12.5 -61t38 -42t65.5 -15t65.5 15t38 42t12.5 61v394h187v-407q0 -87 -41 -150t-109.5 -96.5t-152.5 -33.5zM373 720q-67 0 -113.5 40.5t-48.5 109.5h102q5 -21 20 -31.5t40 -10.5t40.5 14.5t19.5 27.5
h102q-2 -69 -48 -109.5t-114 -40.5z" />
    <glyph glyph-name="ubreve" unicode="&#x16d;" horiz-adv-x="618" 
d="M309 -15q-71 0 -126 26t-86.5 75t-31.5 118v306h173v-260q0 -52 16.5 -76t54.5 -24t54.5 24t16.5 76v260h173v-306q0 -69 -31.5 -118t-86.5 -75t-126 -26zM317 560q-67 0 -113.5 40.5t-48.5 109.5h102q5 -21 20 -31.5t40 -10.5t40.5 14.5t19.5 27.5h102
q-2 -69 -48 -109.5t-114 -40.5z" />
    <glyph glyph-name="Uring" unicode="&#x16e;" horiz-adv-x="746" 
d="M373 -15q-83 0 -152 33.5t-110 96.5t-41 150v407h187v-394q0 -34 12.5 -61t38 -42t65.5 -15t65.5 15t38 42t12.5 61v394h187v-407q0 -87 -41 -150t-109.5 -96.5t-152.5 -33.5zM373 711q-40 0 -68.5 26.5t-28.5 64.5t28.5 64.5t68.5 26.5t68 -26.5t28 -64.5t-28 -64.5
t-68 -26.5zM373 766q15 0 26.5 10t11.5 26q0 15 -11.5 25.5t-26.5 10.5q-16 0 -27.5 -10.5t-11.5 -25.5q0 -16 11.5 -26t27.5 -10z" />
    <glyph glyph-name="uring" unicode="&#x16f;" horiz-adv-x="618" 
d="M309 -15q-71 0 -126 26t-86.5 75t-31.5 118v306h173v-260q0 -52 16.5 -76t54.5 -24t54.5 24t16.5 76v260h173v-306q0 -69 -31.5 -118t-86.5 -75t-126 -26zM317 551q-40 0 -68.5 26.5t-28.5 64.5t28.5 64.5t68.5 26.5t68 -26.5t28 -64.5t-28 -64.5t-68 -26.5zM317 606
q15 0 26.5 10t11.5 26q0 15 -11.5 25.5t-26.5 10.5q-16 0 -27.5 -10.5t-11.5 -25.5q0 -16 11.5 -26t27.5 -10z" />
    <glyph glyph-name="Uhungarumlaut" unicode="&#x170;" horiz-adv-x="746" 
d="M373 -15q-83 0 -152 33.5t-110 96.5t-41 150v407h187v-394q0 -34 12.5 -61t38 -42t65.5 -15t65.5 15t38 42t12.5 61v394h187v-407q0 -87 -41 -150t-109.5 -96.5t-152.5 -33.5zM388 720l100 150h154l-132 -150h-122zM184 720l100 150h154l-132 -150h-122z" />
    <glyph glyph-name="uhungarumlaut" unicode="&#x171;" horiz-adv-x="618" 
d="M309 -15q-71 0 -126 26t-86.5 75t-31.5 118v306h173v-260q0 -52 16.5 -76t54.5 -24t54.5 24t16.5 76v260h173v-306q0 -69 -31.5 -118t-86.5 -75t-126 -26zM332 560l100 150h154l-132 -150h-122zM128 560l100 150h154l-132 -150h-122z" />
    <glyph glyph-name="Uogonek" unicode="&#x172;" horiz-adv-x="746" 
d="M373 -15q-83 0 -152 33.5t-110 96.5t-41 150v407h187v-394q0 -34 12.5 -61t38 -42t65.5 -15t65.5 15t38 42t12.5 61v394h187v-407q0 -87 -41 -150t-109.5 -96.5t-152.5 -33.5zM353 -225q-30 0 -59 11t-48.5 33t-19.5 55q0 35 17.5 61t44.5 42.5t55 23.5h140
q-29 -7 -53.5 -20.5t-38.5 -28t-14 -25.5q0 -16 10 -25.5t26 -9.5q17 0 30 5.5t24 12.5v-113q-10 -5 -41 -13.5t-73 -8.5z" />
    <glyph glyph-name="uogonek" unicode="&#x173;" horiz-adv-x="618" 
d="M309 -15q-71 0 -126 26t-86.5 75t-31.5 118v306h173v-260q0 -52 16.5 -76t54.5 -24t54.5 24t16.5 76v260h173v-306q0 -69 -31.5 -118t-86.5 -75t-126 -26zM281 -225q-30 0 -59 11t-48.5 33t-19.5 55q0 35 17.5 61t44.5 42.5t55 23.5h140q-29 -7 -53.5 -20.5t-38.5 -28
t-14 -25.5q0 -16 10 -25.5t26 -9.5q17 0 30 5.5t24 12.5v-113q-10 -5 -41 -13.5t-73 -8.5z" />
    <glyph glyph-name="Wcircumflex" unicode="&#x174;" horiz-adv-x="984" 
d="M235 0l-220 670h218l91 -348l104 348h128l106 -348l89 348h218l-218 -670h-141l-117 355l-117 -355h-141zM320 720l120 150h104l120 -150h-132l-40 59l-40 -59h-132z" />
    <glyph glyph-name="wcircumflex" unicode="&#x175;" horiz-adv-x="824" 
d="M178 0l-173 510h178l75 -248l86 248h136l86 -248l75 248h178l-175 -510h-133l-99 301l-99 -301h-135zM231 560l120 150h104l120 -150h-132l-40 59l-40 -59h-132z" />
    <glyph glyph-name="Ycircumflex" unicode="&#x176;" horiz-adv-x="741" 
d="M315 167l-300 503h218l138 -261l137 261h218l-300 -503h-111zM277 0v254h187v-254h-187zM199 720l120 150h104l120 -150h-132l-40 59l-40 -59h-132z" />
    <glyph glyph-name="ycircumflex" unicode="&#x177;" horiz-adv-x="622" 
d="M59 -240l221 390l145 360h192l-366 -750h-192zM250 -20l-245 530h198l166 -400zM134 560l120 150h104l120 -150h-132l-40 59l-40 -59h-132z" />
    <glyph glyph-name="Ydieresis" unicode="&#x178;" horiz-adv-x="741" 
d="M315 167l-300 503h218l138 -261l137 261h218l-300 -503h-111zM277 0v254h187v-254h-187zM476 733q-31 0 -53.5 22.5t-22.5 53.5q0 32 22.5 54t53.5 22t53.5 -22t22.5 -54q0 -31 -22.5 -53.5t-53.5 -22.5zM266 733q-31 0 -53.5 22.5t-22.5 53.5q0 32 22.5 54t53.5 22
t53.5 -22t22.5 -54q0 -31 -22.5 -53.5t-53.5 -22.5z" />
    <glyph glyph-name="Zacute" unicode="&#x179;" horiz-adv-x="699" 
d="M50 0v36l284 469h-262v165h567v-36l-285 -469h285v-165h-589zM267 720l100 150h154l-132 -150h-122z" />
    <glyph glyph-name="zacute" unicode="&#x17a;" horiz-adv-x="564" 
d="M50 0v36l210 334h-200v140h449v-36l-221 -334h231v-140h-469zM201 560l100 150h154l-132 -150h-122z" />
    <glyph glyph-name="Zdotaccent" unicode="&#x17b;" horiz-adv-x="699" 
d="M50 0v36l284 469h-262v165h567v-36l-285 -469h285v-165h-589zM351 718q-31 0 -53.5 22.5t-22.5 53.5q0 32 22.5 54t53.5 22t53.5 -22t22.5 -54q0 -31 -22.5 -53.5t-53.5 -22.5z" />
    <glyph glyph-name="zdotaccent" unicode="&#x17c;" horiz-adv-x="564" 
d="M50 0v36l210 334h-200v140h449v-36l-221 -334h231v-140h-469zM285 558q-31 0 -53.5 22.5t-22.5 53.5q0 32 22.5 54t53.5 22t53.5 -22t22.5 -54q0 -31 -22.5 -53.5t-53.5 -22.5z" />
    <glyph glyph-name="Zcaron" unicode="&#x17d;" horiz-adv-x="699" 
d="M50 0v36l284 469h-262v165h567v-36l-285 -469h285v-165h-589zM299 720l-120 150h132l40 -59l40 59h132l-120 -150h-104z" />
    <glyph glyph-name="zcaron" unicode="&#x17e;" horiz-adv-x="564" 
d="M50 0v36l210 334h-200v140h449v-36l-221 -334h231v-140h-469zM233 560l-120 150h132l40 -59l40 59h132l-120 -150h-104z" />
    <glyph glyph-name="uni0218" unicode="&#x218;" horiz-adv-x="573" 
d="M265 -15q-60 0 -119 21t-103 52v171q48 -36 108.5 -59t116.5 -23q35 0 51.5 13.5t16.5 34.5q0 10 -7 19t-20.5 17t-31.5 13l-95 30q-56 18 -87 48t-43 67.5t-12 77.5q0 71 36 119.5t94 73.5t123 25q59 0 116.5 -14.5t92.5 -38.5v-171q-43 25 -90 43.5t-104 18.5
q-22 0 -38 -7t-24.5 -18.5t-8.5 -27.5q0 -25 29 -39t71 -31l68 -27q73 -28 105.5 -71t32.5 -97q0 -64 -37 -113.5t-100 -78t-141 -28.5zM257 -225q-16 0 -29.5 5.5t-23.5 12.5v84q22 -15 47 -15q11 0 18.5 4.5t7.5 13.5t-8 14t-19 5v79q43 0 76.5 -24t33.5 -73
q0 -35 -14.5 -59t-38 -35.5t-50.5 -11.5z" />
    <glyph glyph-name="uni0219" unicode="&#x219;" horiz-adv-x="456" 
d="M227 -15q-38 0 -72.5 7.5t-64.5 20.5t-53 29v134q24 -15 53 -26.5t57.5 -18.5t52.5 -7q29 0 42.5 7t13.5 25q0 14 -16 21.5t-46 17.5l-51 16q-56 17 -82 53.5t-26 89.5t28 91t76.5 59t108.5 21q50 0 92.5 -14.5t68.5 -39.5v-135q-26 16 -59 30.5t-71 14.5
q-24 0 -42.5 -9.5t-18.5 -29.5q0 -14 11 -21t43 -15l31 -8q68 -17 100.5 -52.5t32.5 -90.5q0 -50 -29.5 -88.5t-77 -60t-102.5 -21.5zM198 -225q-16 0 -29.5 5.5t-23.5 12.5v84q22 -15 47 -15q11 0 18.5 4.5t7.5 13.5t-8 14t-19 5v79q43 0 76.5 -24t33.5 -73
q0 -35 -14.5 -59t-38 -35.5t-50.5 -11.5z" />
    <glyph glyph-name="uni021A" unicode="&#x21a;" horiz-adv-x="621" 
d="M217 0v670h187v-670h-187zM35 515v155h551v-155h-551zM299 -225q-16 0 -29.5 5.5t-23.5 12.5v84q22 -15 47 -15q11 0 18.5 4.5t7.5 13.5t-8 14t-19 5v79q43 0 76.5 -24t33.5 -73q0 -35 -14.5 -59t-38 -35.5t-50.5 -11.5z" />
    <glyph glyph-name="uni021B" unicode="&#x21b;" horiz-adv-x="481" 
d="M294 -15q-48 0 -89.5 22t-67 63t-25.5 99v206h-72v105q49 13 79.5 54t52.5 106h112v-130h144v-135h-144v-143q0 -37 14.5 -58.5t49.5 -21.5q30 0 49.5 10.5t38.5 21.5v-144q-16 -22 -54 -38.5t-88 -16.5zM266 -225q-16 0 -29.5 5.5t-23.5 12.5v84q22 -15 47 -15
q11 0 18.5 4.5t7.5 13.5t-8 14t-19 5v79q43 0 76.5 -24t33.5 -73q0 -35 -14.5 -59t-38 -35.5t-50.5 -11.5z" />
    <glyph glyph-name="uni0237" unicode="&#x237;" horiz-adv-x="382" 
d="M106 -255l-75 147q39 17 65.5 46t26.5 73v359h-83v140h255v-501q0 -104 -47.5 -169t-141.5 -95z" />
    <glyph glyph-name="circumflex" unicode="&#x2c6;" horiz-adv-x="504" 
d="M80 560l120 150h104l120 -150h-132l-40 59l-40 -59h-132z" />
    <glyph glyph-name="caron" unicode="&#x2c7;" horiz-adv-x="464" 
d="M180 560l-120 150h132l40 -59l40 59h132l-120 -150h-104z" />
    <glyph glyph-name="breve" unicode="&#x2d8;" horiz-adv-x="484" 
d="M242 560q-67 0 -113.5 40.5t-48.5 109.5h102q5 -21 20 -31.5t40 -10.5t40.5 14.5t19.5 27.5h102q-2 -69 -48 -109.5t-114 -40.5z" />
    <glyph glyph-name="dotaccent" unicode="&#x2d9;" horiz-adv-x="312" 
d="M156 558q-31 0 -53.5 22.5t-22.5 53.5q0 32 22.5 54t53.5 22t53.5 -22t22.5 -54q0 -31 -22.5 -53.5t-53.5 -22.5z" />
    <glyph glyph-name="ring" unicode="&#x2da;" horiz-adv-x="341" 
d="M171 551q-40 0 -68.5 26.5t-28.5 64.5t28.5 64.5t68.5 26.5t68 -26.5t28 -64.5t-28 -64.5t-68 -26.5zM171 606q15 0 26.5 10t11.5 26q0 15 -11.5 25.5t-26.5 10.5q-16 0 -27.5 -10.5t-11.5 -25.5q0 -16 11.5 -26t27.5 -10z" />
    <glyph glyph-name="ogonek" unicode="&#x2db;" horiz-adv-x="600" 
d="M260 -225q-30 0 -59 11t-48.5 33t-19.5 55q0 35 17.5 61t44.5 42.5t55 23.5h140q-29 -7 -53.5 -20.5t-38.5 -28t-14 -25.5q0 -16 10 -25.5t26 -9.5q17 0 30 5.5t24 12.5v-113q-10 -5 -41 -13.5t-73 -8.5z" />
    <glyph glyph-name="tilde" unicode="&#x2dc;" horiz-adv-x="450" 
d="M288 546q-25 0 -42.5 6t-30.5 14.5t-23 14.5t-21 6q-16 0 -24.5 -10t-8.5 -27h-94q0 70 38 104.5t90 34.5q25 0 42.5 -6t30.5 -14.5t23.5 -14.5t20.5 -6q17 0 25 10t8 27h94q0 -70 -37.5 -104.5t-90.5 -34.5z" />
    <glyph glyph-name="hungarumlaut" unicode="&#x2dd;" horiz-adv-x="548" 
d="M274 560l100 150h154l-132 -150h-122zM70 560l100 150h154l-132 -150h-122z" />
    <glyph glyph-name="gravecomb" unicode="&#x300;" horiz-adv-x="0" 
d="M212 560l-132 150h154l100 -150h-122z" />
    <glyph glyph-name="acutecomb" unicode="&#x301;" horiz-adv-x="0" 
d="M80 560l100 150h154l-132 -150h-122z" />
    <glyph glyph-name="uni0302" unicode="&#x302;" horiz-adv-x="0" 
d="M80 560l120 150h104l120 -150h-132l-40 59l-40 -59h-132z" />
    <glyph glyph-name="tildecomb" unicode="&#x303;" horiz-adv-x="0" 
d="M288 546q-25 0 -42.5 6t-30.5 14.5t-23 14.5t-21 6q-16 0 -24.5 -10t-8.5 -27h-94q0 70 38 104.5t90 34.5q25 0 42.5 -6t30.5 -14.5t23.5 -14.5t20.5 -6q17 0 25 10t8 27h94q0 -70 -37.5 -104.5t-90.5 -34.5z" />
    <glyph glyph-name="uni0304" unicode="&#x304;" horiz-adv-x="0" 
d="M100 600v110h370v-110h-370z" />
    <glyph glyph-name="uni0306" unicode="&#x306;" horiz-adv-x="0" 
d="M242 560q-67 0 -113.5 40.5t-48.5 109.5h102q5 -21 20 -31.5t40 -10.5t40.5 14.5t19.5 27.5h102q-2 -69 -48 -109.5t-114 -40.5z" />
    <glyph glyph-name="uni0307" unicode="&#x307;" horiz-adv-x="0" 
d="M156 558q-31 0 -53.5 22.5t-22.5 53.5q0 32 22.5 54t53.5 22t53.5 -22t22.5 -54q0 -31 -22.5 -53.5t-53.5 -22.5z" />
    <glyph glyph-name="uni0308" unicode="&#x308;" horiz-adv-x="0" 
d="M372 573q-31 0 -53.5 22.5t-22.5 53.5q0 32 22.5 54t53.5 22t53.5 -22t22.5 -54q0 -31 -22.5 -53.5t-53.5 -22.5zM162 573q-31 0 -53.5 22.5t-22.5 53.5q0 32 22.5 54t53.5 22t53.5 -22t22.5 -54q0 -31 -22.5 -53.5t-53.5 -22.5z" />
    <glyph glyph-name="uni030A" unicode="&#x30a;" horiz-adv-x="0" 
d="M171 551q-40 0 -68.5 26.5t-28.5 64.5t28.5 64.5t68.5 26.5t68 -26.5t28 -64.5t-28 -64.5t-68 -26.5zM171 606q15 0 26.5 10t11.5 26q0 15 -11.5 25.5t-26.5 10.5q-16 0 -27.5 -10.5t-11.5 -25.5q0 -16 11.5 -26t27.5 -10z" />
    <glyph glyph-name="uni030B" unicode="&#x30b;" horiz-adv-x="0" 
d="M274 560l100 150h154l-132 -150h-122zM70 560l100 150h154l-132 -150h-122z" />
    <glyph glyph-name="uni030C" unicode="&#x30c;" horiz-adv-x="0" 
d="M180 560l-120 150h132l40 -59l40 59h132l-120 -150h-104z" />
    <glyph glyph-name="uni0312" unicode="&#x312;" horiz-adv-x="0" 
d="M172 735q17 0 30 -5.5t23 -12.5v-84q-22 15 -47 15q-11 0 -18.5 -4.5t-7.5 -13.5t8 -14t19 -5v-79q-43 0 -76.5 24t-33.5 73q0 36 14.5 59.5t38.5 35t50 11.5z" />
    <glyph glyph-name="uni0326" unicode="&#x326;" horiz-adv-x="0" 
d="M122 -225q-16 0 -29.5 5.5t-23.5 12.5v84q22 -15 47 -15q11 0 18.5 4.5t7.5 13.5t-8 14t-19 5v79q43 0 76.5 -24t33.5 -73q0 -35 -14.5 -59t-38 -35.5t-50.5 -11.5z" />
    <glyph glyph-name="uni0327" unicode="&#x327;" horiz-adv-x="0" 
d="M160 -240q-15 0 -39.5 6t-40.5 19l7 74q16 -8 32 -17t38 -9q10 0 21 6.5t11 19.5q0 12 -9.5 18t-20.5 6q-7 0 -13.5 -2t-16.5 -7l-24 12l12 116h74l-3 -48q41 2 65.5 -23t24.5 -62q0 -51 -33 -80t-85 -29z" />
    <glyph glyph-name="uni0328" unicode="&#x328;" horiz-adv-x="0" 
d="M260 -225q-30 0 -59 11t-48.5 33t-19.5 55q0 35 17.5 61t44.5 42.5t55 23.5h140q-29 -7 -53.5 -20.5t-38.5 -28t-14 -25.5q0 -16 10 -25.5t26 -9.5q17 0 30 5.5t24 12.5v-113q-10 -5 -41 -13.5t-73 -8.5z" />
    <glyph glyph-name="Wgrave" unicode="&#x1e80;" horiz-adv-x="984" 
d="M235 0l-220 670h218l91 -348l104 348h128l106 -348l89 348h218l-218 -670h-141l-117 355l-117 -355h-141zM434 720l-132 150h154l100 -150h-122z" />
    <glyph glyph-name="wgrave" unicode="&#x1e81;" horiz-adv-x="824" 
d="M178 0l-173 510h178l75 -248l86 248h136l86 -248l75 248h178l-175 -510h-133l-99 301l-99 -301h-135zM345 560l-132 150h154l100 -150h-122z" />
    <glyph glyph-name="Wacute" unicode="&#x1e82;" horiz-adv-x="984" 
d="M235 0l-220 670h218l91 -348l104 348h128l106 -348l89 348h218l-218 -670h-141l-117 355l-117 -355h-141zM408 720l100 150h154l-132 -150h-122z" />
    <glyph glyph-name="wacute" unicode="&#x1e83;" horiz-adv-x="824" 
d="M178 0l-173 510h178l75 -248l86 248h136l86 -248l75 248h178l-175 -510h-133l-99 301l-99 -301h-135zM319 560l100 150h154l-132 -150h-122z" />
    <glyph glyph-name="Wdieresis" unicode="&#x1e84;" horiz-adv-x="984" 
d="M235 0l-220 670h218l91 -348l104 348h128l106 -348l89 348h218l-218 -670h-141l-117 355l-117 -355h-141zM597 733q-31 0 -53.5 22.5t-22.5 53.5q0 32 22.5 54t53.5 22t53.5 -22t22.5 -54q0 -31 -22.5 -53.5t-53.5 -22.5zM387 733q-31 0 -53.5 22.5t-22.5 53.5
q0 32 22.5 54t53.5 22t53.5 -22t22.5 -54q0 -31 -22.5 -53.5t-53.5 -22.5z" />
    <glyph glyph-name="wdieresis" unicode="&#x1e85;" horiz-adv-x="824" 
d="M178 0l-173 510h178l75 -248l86 248h136l86 -248l75 248h178l-175 -510h-133l-99 301l-99 -301h-135zM508 573q-31 0 -53.5 22.5t-22.5 53.5q0 32 22.5 54t53.5 22t53.5 -22t22.5 -54q0 -31 -22.5 -53.5t-53.5 -22.5zM298 573q-31 0 -53.5 22.5t-22.5 53.5q0 32 22.5 54
t53.5 22t53.5 -22t22.5 -54q0 -31 -22.5 -53.5t-53.5 -22.5z" />
    <glyph glyph-name="uni1E9E" unicode="&#x1e9e;" horiz-adv-x="708" 
d="M80 -100v820h548v-820h-548zM257 65h194v490h-194v-490z" />
    <glyph glyph-name="Ygrave" unicode="&#x1ef2;" horiz-adv-x="741" 
d="M315 167l-300 503h218l138 -261l137 261h218l-300 -503h-111zM277 0v254h187v-254h-187zM313 720l-132 150h154l100 -150h-122z" />
    <glyph glyph-name="ygrave" unicode="&#x1ef3;" horiz-adv-x="622" 
d="M59 -240l221 390l145 360h192l-366 -750h-192zM250 -20l-245 530h198l166 -400zM248 560l-132 150h154l100 -150h-122z" />
    <glyph glyph-name="endash" unicode="&#x2013;" horiz-adv-x="600" 
d="M60 188v150h490v-150h-490z" />
    <glyph glyph-name="emdash" unicode="&#x2014;" horiz-adv-x="888" 
d="M60 188v150h768v-150h-768z" />
    <glyph glyph-name="quoteleft" unicode="&#x2018;" horiz-adv-x="292" 
d="M182 423l-142 28l110 237l122 -16z" />
    <glyph glyph-name="quoteright" unicode="&#x2019;" horiz-adv-x="292" 
d="M152 423l-122 16l90 249l142 -28z" />
    <glyph glyph-name="quotesinglbase" unicode="&#x201a;" horiz-adv-x="379" 
d="M182 -153l-122 16l90 249l142 -28z" />
    <glyph glyph-name="quotedblleft" unicode="&#x201c;" horiz-adv-x="512" 
d="M182 428l-142 28l110 237l122 -16zM402 428l-142 28l110 237l122 -16z" />
    <glyph glyph-name="quotedblright" unicode="&#x201d;" horiz-adv-x="472" 
d="M320 690l142 -28l-110 -237l-122 16zM100 690l142 -28l-110 -237l-122 16z" />
    <glyph glyph-name="quotedblbase" unicode="&#x201e;" horiz-adv-x="472" 
d="M320 124l142 -28l-110 -237l-122 16zM100 124l142 -28l-110 -237l-122 16z" />
    <glyph glyph-name="dagger" unicode="&#x2020;" horiz-adv-x="463" 
d="M153 -100v770h157v-770h-157zM40 380v140h383v-140h-383z" />
    <glyph glyph-name="daggerdbl" unicode="&#x2021;" horiz-adv-x="600" 
d="M153 -100v770h157v-770h-157zM40 105v140h383v-140h-383zM40 380v140h383v-140h-383z" />
    <glyph glyph-name="bullet" unicode="&#x2022;" horiz-adv-x="479" 
d="M239 144q-44 0 -80 22t-57.5 58t-21.5 79q0 44 21.5 80.5t57.5 58t80 21.5t80 -21.5t58 -58t22 -80.5q0 -43 -22 -79t-58 -58t-80 -22z" />
    <glyph glyph-name="ellipsis" unicode="&#x2026;" horiz-adv-x="800" 
d="M400 -19q-37 0 -63.5 26.5t-26.5 63.5q0 38 26.5 64t63.5 26t63.5 -26t26.5 -64q0 -37 -26.5 -63.5t-63.5 -26.5zM670 -19q-37 0 -63.5 26.5t-26.5 63.5q0 38 26.5 64t63.5 26t63.5 -26t26.5 -64q0 -37 -26.5 -63.5t-63.5 -26.5zM130 -19q-37 0 -63.5 26.5t-26.5 63.5
q0 38 26.5 64t63.5 26t63.5 -26t26.5 -64q0 -37 -26.5 -63.5t-63.5 -26.5z" />
    <glyph glyph-name="guilsinglleft" unicode="&#x2039;" horiz-adv-x="325" 
d="M265 32l-235 195v38l235 203v-153l-80 -67l80 -63v-153z" />
    <glyph glyph-name="guilsinglright" unicode="&#x203a;" horiz-adv-x="325" 
d="M60 32v153l80 67l-80 63v153l235 -195v-38z" />
    <glyph glyph-name="fraction" unicode="&#x2044;" horiz-adv-x="82" 
d="M-250 0l461 670h121l-464 -670h-118z" />
    <glyph glyph-name="uni2074" unicode="&#x2074;" horiz-adv-x="283" 
d="M135 373v66h-115v57q35 40 65 81t61 93h63v-165h34v-66h-34v-66h-74zM107 505h28v39q-6 -8 -10 -14l-8 -12t-10 -13z" />
    <glyph glyph-name="Euro" unicode="&#x20ac;" horiz-adv-x="627" 
d="M448 -15q-61 0 -120.5 23.5t-108 68.5t-77.5 110t-29 148t29 148t77.5 110t108 68.5t120.5 23.5q22 0 49.5 -5.5t52.5 -15t37 -22.5v-177q-23 20 -50 32.5t-62 12.5q-45 0 -83.5 -23t-62.5 -62.5t-24 -89.5t24 -89.5t62.5 -62.5t83.5 -23q35 0 62 12.5t50 32.5v-177
q-26 -19 -66.5 -31t-72.5 -12zM40 225v90h450v-90h-450zM40 350v90h450v-90h-450z" />
    <glyph glyph-name="trademark" unicode="&#x2122;" horiz-adv-x="551" 
d="M279 467v203h47l71 -97l68 97h46v-203h-73v70l-32 -36h-18l-36 36v-70h-73zM109 467v203h72v-203h-72zM40 609v62h210v-62h-210z" />
    <glyph glyph-name="minus" unicode="&#x2212;" horiz-adv-x="610" 
d="M120 238v150h371v-150h-371z" />
    <glyph glyph-name="uni2215" unicode="&#x2215;" horiz-adv-x="662" 
d="M40 0l461 670h121l-464 -670h-118z" />
    <glyph glyph-name="approxequal" unicode="&#x2248;" horiz-adv-x="610" 
d="M394 119q-33 0 -57 9.5t-43 21.5t-36 21.5t-36 9.5q-21 0 -32.5 -16.5t-11.5 -39.5h-122q0 83 43 134t113 51q33 0 57 -9.5t43 -21.5t36 -21.5t36 -9.5q22 0 33 17t11 39h122q0 -82 -43 -133.5t-113 -51.5zM394 334q-33 0 -57 9.5t-43 21.5t-36 21.5t-36 9.5
q-21 0 -32.5 -16.5t-11.5 -39.5h-122q0 83 43 134t113 51q33 0 57 -9.5t43 -21.5t36 -21.5t36 -9.5q22 0 33 17t11 39h122q0 -82 -43 -133.5t-113 -51.5z" />
    <glyph glyph-name="notequal" unicode="&#x2260;" horiz-adv-x="610" 
d="M114 42l229 508h121l-232 -508h-118zM110 343v150h391v-150h-391zM110 128v150h391v-150h-391z" />
    <glyph glyph-name="lessequal" unicode="&#x2264;" horiz-adv-x="610" 
d="M514 149l-418 228v42l418 219v-141l-213 -98l213 -109v-141zM514 0h-418v130h418v-130z" />
    <glyph glyph-name="greaterequal" unicode="&#x2265;" horiz-adv-x="610" 
d="M96 149v141l213 109l-213 98v141l418 -219v-42zM96 0v130h418v-130h-418z" />
    <glyph glyph-name="i.loclTRK" horiz-adv-x="375" 
d="M133 0v510h172v-510h-172zM50 370v140h255v-140h-255zM193 558q-31 0 -53.5 22.5t-22.5 53.5q0 32 22.5 54t53.5 22t53.5 -22t22.5 -54q0 -31 -22.5 -53.5t-53.5 -22.5z" />
    <glyph glyph-name="uni030C.alt" horiz-adv-x="0" 
d="M65 530l10 188h142l-30 -188h-122z" />
    </font>
</defs>
</svg>
