<?xml version="1.0" standalone="no"?>
<!DOCTYPE svg PUBLIC "-//W3C//DTD SVG 1.1//EN" "http://www.w3.org/Graphics/SVG/1.1/DTD/svg11.dtd" >
<svg xmlns="http://www.w3.org/2000/svg" xmlns:xlink="http://www.w3.org/1999/xlink" version="1.1">
<metadata>
Created by FontForge 20201107 at Thu Jun 22 15:21:58 2023
 By 
Copyright 2023 The Sen Project Authors (https://github.com/philatype/Sen/)
</metadata>
<defs>
<font id="Sen-SemiBold" horiz-adv-x="633" >
  <font-face 
    font-family="Sen SemiBold"
    font-weight="600"
    font-stretch="normal"
    units-per-em="1024"
    panose-1="0 0 0 0 0 0 0 0 0 0"
    ascent="819"
    descent="-205"
    x-height="504"
    cap-height="670"
    bbox="-250 -255 1002 932"
    underline-thickness="50"
    underline-position="-125"
    unicode-range="U+000D-263A"
  />
<missing-glyph horiz-adv-x="691" 
d="M98 -106v826h495v-826h-495zM223 11h245v592h-245v-592z" />
    <glyph glyph-name="smileface" unicode="&#x3a;D" horiz-adv-x="579" 
d="M376 -6q-52 -18 -105 -14t-100 27t-82.5 62.5t-53.5 91.5q-18 53 -14 105.5t27 99.5t62.5 82.5t91.5 53.5q71 24 140 9.5t123.5 -60.5t78.5 -116t9.5 -139.5t-60.5 -123.5t-117 -78zM297 1q0 4 3 4q6 2 8 -3v-1q5 1 10.5 1.5t9.5 1.5q-2 0 -2 2q-2 6 4 8q5 2 7 -4
q0 -3 -1 -5q15 3 34 9q64 22 106.5 72t56 114t-9.5 128q-22 65 -72 107t-113.5 55.5t-127.5 -8.5q-8 -2 -15.5 -5.5t-14.5 -7.5v-1q2 -6 -3 -8t-7 4q-4 -2 -9 -5l-10 -6q-2 -2 -3 -2l-11 -8q5 0 6 -4q2 -5 -4 -7q-5 -2 -7 4v3q-7 -6 -14 -13l-14 -14q3 -5 -3 -7q-1 -1 -3 0
q-4 -6 -6 -8q3 -3 3 -4q2 -5 -3 -7q-4 -1 -7 2l-2 -4t-3 -4q5 0 6 -5q2 -5 -4 -7q-4 -1 -7 3l-6 -11q5 2 7 -4q2 -5 -3 -7t-7 4q-2 -4 -4 -10q4 0 5 -3q2 -6 -4 -8q-4 0 -5 2l-3 -11l3 -3q2 -5 -5 -7q-1 -1 -3 -1q-3 -12 -5 -24.5t-3 -26.5q4 -2 5 -4q2 -5 -4 -7l-1 -1
q0 -7 0.5 -15.5t1.5 -17.5q2 -2 2 -3q2 -3 -1 -6l2 -8t2 -9q5 3 7 -3t-4 -7v-1q1 -2 2 -5l2 -6l3 -8q5 2 7 -4q2 -5 -3 -7q2 -4 4 -7.5t3 -7.5q5 0 5 -4q2 -2 0 -4q7 -15 18 -28l0.5 0.5t1.5 0.5q5 2 7 -3t-2 -7q6 -7 12.5 -13t12.5 -13q4 0 6 -4v-1q3 -2 7 -6q2 3 4 3
q5 2 7 -3q0 -5 -2 -6q4 -4 11 -7q-2 5 3 7q6 2 8 -4q2 -5 -4 -7q15 -9 30 -15q0 1 -1 2q-2 5 4 7q5 2 7 -3q2 -6 -3 -9h-2q5 -2 13 -4q-2 7 4 9q5 2 7 -5q1 -4 -3 -7l11 -3q0 4 4 4q5 2 7 -3v-3q2 -1 4.5 -1t4.5 -1l1 1q5 2 7 -2q9 -1 18 -1.5t19 0.5zM118 79q-5 -2 -7 4
q-2 5 4 7q5 2 7 -4q2 -5 -4 -7zM90 115q-6 -2 -8 3q-2 6 4 8q5 2 7 -3q2 -6 -3 -8zM136 72q-5 -2 -7 3t4 7q5 2 7 -3t-4 -7zM183 28q-5 -2 -7 3t3 7t7 -3t-3 -7zM109 105q-1 -1 -4 0.5t-4 3.5q-2 5 5 7q5 2 7 -4q2 -5 -4 -7zM155 61q-5 -2 -7 4t3 8q7 2 9 -5q3 -5 -5 -7z
M81 142q-5 -2 -7 3t3 7t7 -3t-3 -7zM127 98q-5 -2 -7 3q-2 6 4 8q5 2 7 -4q2 -5 -4 -7zM174 54q-5 -2 -7 3q-2 6 3 8t7 -4q2 -5 -3 -7zM98 132q-6 0 -6 6q0 5 6 5q5 0 5 -5q0 -6 -5 -6zM146 88q-5 -2 -7 4q-2 5 3 7q6 2 8 -3q1 -4 -4 -8zM193 45q-5 -2 -7 3q-3 5 3 7
q5 2 7 -3t-3 -7zM71 169q-5 -2 -7 5q-2 5 4 7q5 2 7 -4t-4 -8zM118 125q-5 -2 -7 4q-2 5 4 7q5 2 7 -4q2 -5 -4 -7zM165 81q-5 -2 -7 4q-2 5 3 7t7 -4q2 -5 -3 -7zM212 37q-7 -2 -9 4q-2 5 5 7q5 2 7 -4q2 -5 -3 -7zM91 159q-6 -2 -8 3t4 7q5 2 7 -3t-3 -7zM137 115
q-5 -2 -7 3q-1 6 3 8q6 2 8 -3q2 -6 -4 -8zM184 72q-5 -2 -7 3t3 7t7 -3t-3 -7zM62 196q-5 -2 -7 4q-3 5 4 7q5 2 7 -3q2 -6 -4 -8zM230 28q-5 -2 -7 3q-2 6 4 8q5 2 7 -4q2 -5 -4 -7zM109 151q-6 -2 -8 4q-2 5 5 7q5 2 7 -4q2 -5 -4 -7zM155 107q-5 -2 -7 4q-2 5 3 7t9 -4
q2 -5 -5 -7zM202 63q-6 -2 -8 4t4 8q5 2 7 -3q2 -7 -3 -9zM248 20q-5 -2 -7 4q-2 5 3 7q6 2 8 -3q2 -6 -4 -8zM81 189q-6 -2 -8 4q-2 5 4 7q5 2 7 -4q2 -5 -3 -7zM128 142q-5 -2 -7 3q-2 6 4 8q5 2 7 -4q2 -5 -4 -7zM175 98q-5 -2 -7 3q-2 6 3 8t7 -4q2 -5 -3 -7zM52 224
q-5 -2 -7 3t4 7t8 -3t-5 -7zM99 180q-5 -2 -7 3t3 7t7 -3t-3 -7zM268 10q-5 -2 -7 4t3 8t7 -5q3 -5 -3 -7zM144 134q-5 0 -5 6q0 5 5 5q6 0 6 -5q0 -6 -6 -6zM72 215q-6 -2 -8 4t4 8q5 2 7 -4t-3 -8zM119 168q-5 -2 -7 5q-2 5 4 7q5 2 7 -4t-4 -8zM286 3q-5 -2 -7 3t3 7
t7 -3t-3 -7zM90 206q-5 -2 -7 3q-2 6 3 8q6 2 8 -4q2 -5 -4 -7zM137 161q-5 -2 -7 3t3 8q6 2 8 -4q2 -5 -4 -7zM61 242q-6 0 -6 6q0 5 6 5q5 0 5 -5q0 -6 -5 -6zM109 198q-6 -2 -8 4q-2 5 5 7q5 3 7 -3t-4 -8zM81 233q-5 -2 -7 4q-3 5 3 7t8 -4q2 -5 -4 -7zM128 189
q-6 -2 -8 4q-2 5 4 7q5 2 7 -4q2 -5 -3 -7zM53 269q-6 -2 -8 3q-2 6 4 8t8 -3q2 -7 -4 -8zM99 226q-5 -2 -7 3t4 7q5 2 7 -3t-4 -7zM315 12q-6 -2 -8 4q-2 7 4 8q5 2 7 -4t-3 -8zM72 259q-5 -2 -7 4q-2 5 3 7q6 2 8 -4q2 -5 -4 -7zM90 252q-5 -2 -7 3q-2 6 4 8q5 2 7 -4
q2 -5 -4 -7zM137 208q-5 -2 -7 3q-2 6 3 8t7 -4q2 -5 -3 -7zM63 286q-5 -2 -7 4q-2 5 4 7q5 3 7 -3t-4 -8zM155 199q-5 -2 -7 3t4 7t8 -3t-5 -7zM81 279q-5 -2 -7 4q-2 5 4 7q5 2 7 -4q2 -5 -4 -7zM100 269q-5 -2 -7 3q-2 6 3 8t7 -3q2 -6 -3 -8zM72 305q-5 -2 -7 4
q-2 5 4 7q5 2 7 -4q2 -5 -4 -7zM119 261q-5 -2 -7 4q-2 5 3 7t7 -3q2 -6 -3 -8zM166 217q-6 -2 -8 4t4 8q5 2 7 -3q2 -7 -3 -9zM91 296q-5 -2 -7 3q-2 6 3 8t7 -4q2 -5 -3 -7zM324 50q22 0 49 9q2 1 5 2l6 2q-16 19 -39 29.5t-45 9.5t-34 -15q-10 2 -17.5 2.5t-16.5 -2.5
q8 -7 11 -10t14 -10q8 -4 15 -7t14 -5q18 -5 38 -5zM184 208q-5 -2 -7 4q-2 5 3 7t7 -4q2 -5 -3 -7zM110 289q-6 -2 -8 3q-2 6 4 7q6 2 8 -3t-4 -7zM82 322q-5 -2 -7 5q-2 5 3 7t7 -4t-3 -8zM100 315q-5 -2 -7 3t3 8q6 2 8 -4q3 -5 -4 -7zM193 228q-5 -2 -7 3q-2 6 4 8
q5 2 7 -4q2 -5 -4 -7zM120 305q-6 -2 -8 4q-2 5 4 7q5 2 7 -3q2 -6 -3 -8zM213 218q-7 -2 -9 3q-2 6 5 8q5 2 7 -3q2 -6 -3 -8zM91 342q-5 -2 -7 3q-2 6 3 8q6 2 8 -4q2 -5 -4 -7zM111 333q-2 -1 -5 0t-4 3q-2 5 5 7q5 2 7 -3t-3 -7zM203 245q-5 -2 -7 3t3 7t7 -3
q3 -5 -3 -7zM129 324q-5 -2 -7 5q-2 5 3 7t7 -4q2 -5 -3 -8zM99 358q-6 0 -6 6t6 6q5 0 5 -6t-5 -6zM222 237q-5 -2 -7 4q-2 5 3 7t7 -3q2 -6 -3 -8zM241 228q-6 -2 -8 4q-2 5 4 7q5 2 7 -4q2 -5 -3 -7zM138 342q-5 -2 -7 4q-2 5 4 7q5 2 7 -4q2 -5 -4 -7zM295 22
q-5 -2 -7 3q-2 6 3 8h1q-5 0 -11 2q0 -3 -4 -5q-5 -2 -7 3q-1 3 0 6l-7 3q-2 -4 -4 -5q-6 -2 -8 4q-1 3 1 5l-9 5q-2 -4 -4 -4q-5 -2 -7 3q-2 4 2 6q-3 2 -5.5 4t-4.5 3q0 -1 0.5 -1t0.5 -1q2 -5 -4 -7q-5 -2 -7 4q-2 5 4 7h3q-17 14 -28 26q-6 -2 -8 3q0 3 1 4
q-12 13 -20 27q-5 -2 -7 4q-2 4 2 6q-2 5 -5 9t-5 8q-2 0 -2 3q-1 2 0 3q-2 4 -2 6q-3 7 -1 14q-5 0 -6 4q-2 5 3 7t7 -3q1 0 1 -0.5v-0.5q4 5 17 9q0 3 4 5q3 1 7 -3q5 1 9 2l8 2v1q-2 5 4 7q5 2 8 -3v-2q5 1 10.5 2.5t10.5 2.5q-3 0 -5 4q-2 5 4 7q5 2 7 -4q2 -4 -2 -6
q6 2 12.5 3.5t12.5 3.5q-4 0 -6 4q-2 6 4 8t8 -3q2 -4 -2 -8q11 3 20 5.5t19 6.5q0 1 2 1q2 2 2 0l23 7l1.5 1.5l1.5 1.5h4q5 2 10.5 3.5t10.5 2.5q2 3 3 3q4 1 5 0q5 2 10.5 4t10.5 3q0 2 3 3h4q5 2 10.5 4t11.5 3l2 2h3q20 8 35 14.5t23 9.5q40 19 37 -53
q-2 -33 -14.5 -73t-42 -74.5t-82.5 -53.5q0 -5 -4 -6q-5 -2 -7 3q-5 -1 -9.5 -2t-9.5 -2l1 -1q2 -5 -4 -7q-5 -2 -7 3v4q-10 -1 -19 0t-19 2l2 -3q2 -5 -4 -7zM232 254q-5 -2 -7 4q-3 5 3 7q5 2 7 -4q2 -5 -3 -7zM111 379q-6 -2 -8 3q-2 6 4 7q5 2 7 -3t-3 -7zM114 233
q-5 -2 -8 2q-2 1 -2 5q0 2 2 3q-4 0 -4 3q-2 6 4 7q5 2 7 -3v-1q3 2 5.5 3.5t5.5 2.5h3q-3 12 -3 24q-2 2 -3 4q-2 5 4 7q1 13 8 30q9 20 27 34v1q-2 5 3 7q4 1 7 -2q8 5 15 6q1 1 1.5 1h0.5q2 4 4 5q4 1 7 -2q12 1 22 0q-3 1 -4 4q-2 6 4 8q5 2 7 -3q2 -7 -3 -9h-1
q3 -1 5.5 -1.5t5.5 -1.5q0 6 4 7q5 2 7 -4q1 -3 -2 -6q6 -2 10 -4q0 4 4 4q6 2 8 -3q1 -4 -2 -7q14 -9 23 -23q5 0 5 -4q3 -2 0 -5q6 -9 9 -19q2 -7 2.5 -12.5t1.5 -10.5v-2q6 0 6 -5q2 -6 -4 -7q-5 -2 -7 3q0 1 -0.5 1h-0.5q-5 -2 -9 1q-3 2 -3 7q-1 8 -5 19q-11 32 -39 46
q-25 13 -51 5l-1 -1q-8 -3 -17 -8q2 0 6 -2q9 -4 12.5 -13.5t-0.5 -17.5t-13 -11q-10 -3 -18 1t-13 12q-7 -22 0 -51q14 -1 26 -10v-0.5t1 -0.5q4 0 5 -4q2 -5 -4 -7h-3v0h-1q-4 -2 -6 1q-10 7 -24 7h-6t-6 -2q-4 -1 -7 -3l-6 -4q0 -1 -2 -1zM120 351q-5 -2 -7 4q-2 5 3 7
t7 -3q2 -6 -3 -8zM250 247q-6 -2 -8 3q-1 4 4 8q5 2 7 -4q2 -5 -3 -7zM129 368q-5 -2 -7 4t4 8q5 2 7 -5q2 -5 -4 -7zM269 237q-5 -2 -7 4q-2 5 4 7q5 2 7 -3q2 -6 -4 -8zM147 361q-5 -2 -7 3q-2 6 4 8q5 2 7 -4q2 -5 -4 -7zM120 395q-5 -2 -7 4q-2 5 4 7q5 2 7 -3
q2 -6 -4 -8zM288 227q-5 -2 -7 3q-2 6 4 8q5 2 7 -4q2 -5 -4 -7zM138 388q-5 -2 -7 4q-2 5 4 7q5 2 7 -4q2 -5 -4 -7zM278 256q-5 -2 -7 4q-2 5 4 7q5 2 7 -4q2 -5 -4 -7zM158 379q-6 -2 -8 3t3 7q6 2 8 -3q3 -5 -3 -7zM130 414q-6 -2 -8 4q-2 5 4 7q5 2 7 -4q2 -5 -3 -7z
M297 247q-5 -2 -7 3q-2 6 3 8q6 2 8 -4q2 -5 -4 -7zM176 370q-5 -2 -7 4t3 8q6 2 8 -4t-4 -8zM317 236q-5 -2 -7 4q-3 5 3 7q5 2 7 -4q3 -5 -3 -7zM148 405q-5 -2 -7 3q-2 6 3 8q6 2 8 -4q2 -5 -4 -7zM167 397q-5 -2 -7 4q-2 5 3 7q6 2 8 -3q2 -6 -4 -8zM184 388q-6 0 -6 6
q0 5 6 5t6 -5q0 -6 -6 -6zM326 256q-4 -1 -8 4q-2 5 4 7q5 2 7 -3q2 -6 -3 -8zM158 424q-7 -2 -8 4q-2 5 3 7q7 2 9 -3q2 -6 -4 -8zM204 381q-5 -2 -7 3t3 7t8 -3q2 -6 -4 -7zM345 246q-6 -2 -8 3t4 7q5 2 7 -3t-3 -7zM175 414q-6 0 -6 6q0 5 6 5t6 -5q0 -6 -6 -6zM317 284
q-5 -2 -7 3q-3 5 3 7q5 2 7 -3t-3 -7zM195 407q-5 -2 -7 3q-2 6 3 8t7 -4q2 -5 -3 -7zM166 441q-5 0 -5 6t5 6q6 0 6 -6t-6 -6zM213 397q-7 0 -7 6t7 6q5 0 5 -6t-5 -6zM307 310q-5 -2 -7 3q-2 6 3 8q6 2 8 -4t-4 -7zM186 434q-5 -2 -7 4q-2 5 3 7t7 -4q2 -5 -3 -7zM353 266
q-5 -2 -7 3q-2 7 4 9q5 2 7 -5q2 -5 -4 -7zM232 390q-5 -2 -7 4q-2 5 4 7q5 2 7 -4q2 -5 -4 -7zM279 346q-5 -2 -7 4q-2 5 3 7q6 2 8 -4q2 -5 -4 -7zM373 255q-5 -2 -7 4q-2 5 4 7q5 2 7 -4q2 -5 -4 -7zM203 424q-6 0 -6 6t6 6t6 -6t-6 -6zM251 381q-5 -2 -7 3q-2 6 4 8
q5 2 7 -4q2 -5 -4 -7zM298 337q-5 -2 -7 4q-3 5 3 7q5 2 7 -4q2 -5 -3 -7zM222 416q-6 0 -6 6t6 6q5 0 5 -6t-5 -6zM270 372q-5 -2 -7 5q-2 5 3 7q6 2 8 -3q2 -7 -4 -9zM196 451q-6 -2 -8 4q-2 5 4 7q5 2 7 -4q2 -5 -3 -7zM363 286q-6 -2 -8 3t4 7t8 -3t-4 -7zM242 407
q-5 -2 -7 4q-2 5 4 7q5 2 7 -4q2 -5 -4 -7zM289 363q-5 -2 -7 4q-2 5 3 7t7 -4q2 -5 -3 -7zM214 444q-4 -2 -8 3q-2 5 5 7q5 2 7 -3t-4 -7zM382 276q-5 -2 -7 4q-2 5 3 7q6 2 8 -3q2 -6 -4 -8zM261 400q-6 -2 -8 3t3 7q7 2 9 -3t-4 -7zM307 356q-6 -2 -8 3t4 7t8 -3
q2 -6 -4 -7zM401 265q-5 -2 -7 3q-2 6 3 8q6 2 7 -4q2 -5 -3 -7zM233 434q-5 -2 -7 4q-2 5 4 7q5 2 7 -4q2 -5 -4 -7zM280 390q-5 -2 -7 4q-2 5 3 7t7 -3q2 -6 -3 -8zM251 426q-6 -2 -7 4q-2 6 3 8q6 2 8 -4q1 -4 -4 -8zM298 383q-5 -2 -7 3q-2 6 3 8t7 -4q2 -5 -3 -7z
M224 460q-5 -2 -7 4q-2 5 4 7q5 2 7 -3q2 -6 -4 -8zM391 295q-5 -2 -7 4q-2 5 3 7t7 -4q2 -5 -3 -7zM271 417q-5 -2 -7 3t3 8q6 2 7 -4q2 -5 -3 -7zM318 373q-6 -2 -8 4q-3 5 4 7q5 2 7 -3q2 -6 -3 -8zM242 453q-5 -2 -7 4q-2 5 4 7q5 2 7 -4q2 -5 -4 -7zM410 286
q-5 -2 -7 3q-2 6 3 8q6 2 8 -4t-4 -7zM289 409q-5 -2 -7 4q-2 5 3 7t7 -4q2 -5 -3 -7zM430 275q-2 -1 -4.5 0.5t-3.5 3.5q-2 5 4 7q5 2 7 -4q2 -5 -3 -7zM262 444q-6 -2 -8 3t3 7q7 2 9 -3t-4 -7zM308 400q-6 -2 -8 3q-2 6 4 8t8 -4t-4 -7zM280 436q-5 -2 -7 4q-2 5 3 7
t7 -3q2 -6 -3 -8zM326 392q-5 -2 -7 4q-2 5 4 7q5 2 7 -3q2 -6 -4 -8zM420 305q-6 -2 -8 3q-3 5 4 7q5 2 7 -3t-3 -7zM299 426q-6 -2 -8 5q-2 5 4 7q5 2 7 -4q2 -5 -3 -8zM271 463q-5 -2 -7 3t3 7t7 -3t-3 -7zM438 295q-5 -2 -7 4q-2 5 4 7q5 2 7 -4q2 -5 -4 -7zM317 419
q-5 -2 -7 3q-1 2 0.5 4.5t3.5 3.5q6 2 7 -4q2 -5 -4 -7zM290 453q-6 -2 -8 4q-2 5 4 7q5 2 7 -4q2 -5 -3 -7zM335 276q-6 -2 -8 4v4q-1 1 -2 2.5l-3 4.5q-3 9 -4.5 18.5t-2.5 19.5q-3 0 -7 4q-2 5 5 7q1 1 2 1q1 19 8.5 36t23.5 30q-2 4 3 6q3 0 5 -1q9 6 20 9q1 0 1 0.5
t1 0.5q17 6 35 3.5t34 -11.5q34 -19 48 -65q2 -7 3 -12.5t2 -10.5q0 -7 -6 -9q-5 -2 -9 0q-4 4 -4 6q-1 10 -5 20q-13 41 -44 57q-23 11 -48 3q-4 -1 -7.5 -3t-7.5 -4q1 0 2 -1q9 -4 12.5 -14.5t-1.5 -18.5q-3 -7 -12 -11q-10 -3 -21 2q-3 2 -5.5 4.5l-4.5 4.5
q-4 -13 -3.5 -29t6.5 -36q3 -7 -3 -13v-1q2 -5 -3 -7zM457 285q-5 -2 -7 3t4 7q5 2 7 -3q3 -5 -4 -7zM336 409q-5 -2 -7 4q-2 5 4 7q5 2 7 -3q2 -6 -4 -8zM307 446q-5 -3 -7 3t4 8t8 -4q2 -5 -5 -7zM327 436q-5 -2 -7 4q-2 5 4 7q5 2 7 -3q1 -4 -4 -8zM467 305q-6 -2 -8 3
q-2 6 4 7q6 2 8 -3t-4 -7zM345 429q-5 -2 -7 4q-2 5 3 7q6 2 8 -4q2 -5 -4 -7zM365 419q-6 -2 -8 3q-2 6 4 8t7 -4q2 -5 -3 -7z" />
    <glyph glyph-name="tt" unicode="tt" horiz-adv-x="822" 
d="M652 -15q-44 0 -77.5 19.5t-52 55t-18.5 83.5v261h-137v100h62q39 0 65 15t45.5 46.5t34.5 78.5h48v-140h141v-100h-141v-233q0 -34 16 -53t47 -19q27 0 46.5 6.5t36.5 16.5v-94q-18 -18 -45.5 -30.5t-70.5 -12.5zM285 -15q-44 0 -79.5 19.5t-56 55t-20.5 83.5v261h-86
v56q49 19 81 65.5t56 116.5h67v-138h155v-100h-155v-233q0 -34 18.5 -53t51.5 -19q30 0 52.5 8.5t39.5 18.5v-101q-18 -18 -49.5 -29t-74.5 -11z" />
    <glyph glyph-name=".notdef" horiz-adv-x="691" 
d="M98 -106v826h495v-826h-495zM223 11h245v592h-245v-592z" />
    <glyph glyph-name=".null" horiz-adv-x="0" 
 />
    <glyph glyph-name="nonmarkingreturn" horiz-adv-x="341" 
 />
    <glyph glyph-name="NULL" horiz-adv-x="0" 
 />
    <glyph glyph-name="NULL" horiz-adv-x="0" 
 />
    <glyph glyph-name="CR" unicode="&#xd;" horiz-adv-x="300" 
 />
    <glyph glyph-name="space" unicode=" " horiz-adv-x="300" 
 />
    <glyph glyph-name="exclam" unicode="!" horiz-adv-x="316" 
d="M105 228v442h106v-442h-106zM158 -18q-32 0 -55 23t-23 55t23 55t55 23t55 -23t23 -55t-23 -55t-55 -23z" />
    <glyph glyph-name="quotedbl" unicode="&#x22;" horiz-adv-x="450" 
d="M272 425v270h106v-270h-106zM72 425v270h106v-270h-106z" />
    <glyph glyph-name="numbersign" unicode="#" horiz-adv-x="802" 
d="M380 0l203 670h95l-206 -670h-92zM80 158v94h572v-94h-572zM140 0l203 670h95l-206 -670h-92zM150 396v104h572v-104h-572z" />
    <glyph glyph-name="dollar" unicode="$" horiz-adv-x="559" 
d="M265 19q-53 0 -101.5 19t-84.5 43v117q39 -28 87 -48t103 -20q40 0 68.5 17t28.5 48q0 18 -11 31t-28 22.5t-35 15.5l-101 38q-47 19 -73 44t-36.5 56.5t-10.5 66.5q0 54 30 95t79 64t105 23q53 0 98 -15t74 -34v-116q-31 20 -71 37t-87 17q-24 0 -48.5 -7.5t-40.5 -23
t-16 -41.5q0 -31 26 -47.5t64 -31.5l82 -33q65 -25 95 -64t30 -91q0 -53 -31 -94t-82 -64.5t-113 -23.5zM230 -54v116h90v-116h-90zM230 580v126h90v-126h-90z" />
    <glyph glyph-name="percent" unicode="%" horiz-adv-x="824" 
d="M245 -20l-76 39l408 683l79 -39zM192 379q-45 0 -79.5 20.5t-53.5 55.5t-19 77t19 77t53.5 55.5t79.5 20.5t79.5 -20.5t53.5 -55.5t19 -77t-19 -77t-53.5 -55.5t-79.5 -20.5zM193 462q29 0 48 20.5t19 49.5t-19 49t-48 20t-48.5 -20t-19.5 -49t19.5 -49.5t48.5 -20.5z
M632 -15q-45 0 -79.5 20.5t-53.5 55.5t-19 77t19 77t53.5 55.5t79.5 20.5t79.5 -20.5t53.5 -55.5t19 -77t-19 -77t-53.5 -55.5t-79.5 -20.5zM633 68q29 0 48 20.5t19 49.5t-19 49t-48 20t-48.5 -20t-19.5 -49t19.5 -49.5t48.5 -20.5z" />
    <glyph glyph-name="ampersand" unicode="&#x26;" horiz-adv-x="735" 
d="M270 -15q-66 0 -116.5 23.5t-79 65.5t-28.5 96q0 52 25 88t64.5 62t84.5 46.5t84.5 40.5t64.5 44.5t25 58.5q0 20 -10.5 34t-26.5 21.5t-33 7.5q-27 0 -47.5 -17t-20.5 -52q0 -24 15 -48t38.5 -49.5t47.5 -53.5q77 -87 158 -171.5t174 -181.5h-149q-48 48 -93.5 97
t-92.5 100.5t-100 106.5q-31 33 -60.5 64t-49 65.5t-19.5 79.5q0 53 27.5 91.5t72.5 59.5t99 21q53 0 99 -21.5t74 -59t28 -87.5q0 -33 -12.5 -58.5t-32.5 -46t-45 -37.5t-50 -33q-35 -22 -71 -40t-66 -35.5t-48.5 -38.5t-18.5 -50q0 -39 29 -60t71 -21q37 0 62 11.5t45 32
t40 46.5q28 36 53 74t53 89h130q-37 -66 -74 -122.5t-71 -101.5q-29 -39 -63.5 -71.5t-79.5 -51t-106 -18.5z" />
    <glyph glyph-name="quotesingle" unicode="'" horiz-adv-x="250" 
d="M72 400v270h106v-270h-106z" />
    <glyph glyph-name="parenleft" unicode="(" horiz-adv-x="379" 
d="M228 -200q-41 43 -78 112.5t-60.5 155.5t-23.5 177q0 65 13.5 130t36.5 125t52 109t60 81h115q-30 -34 -57.5 -86t-48.5 -114t-33 -125.5t-12 -119.5q0 -60 12 -124t33 -124.5t48.5 -111.5t57.5 -85h-115z" />
    <glyph glyph-name="parenright" unicode=")" horiz-adv-x="401" 
d="M173 -200h-115q30 34 57.5 85t48.5 111.5t33 124.5t12 124q0 56 -12 119.5t-33 125.5t-48.5 114t-57.5 86h115q31 -32 60 -81t52 -109t36.5 -125t13.5 -130q0 -91 -23.5 -177t-60.5 -155.5t-78 -112.5z" />
    <glyph glyph-name="asterisk" unicode="*" horiz-adv-x="496" 
d="M184 377l-76 54l74 91l-104 30l30 89l99 -42l-6 114h93l-5 -114l99 42l30 -89l-104 -30l73 -91l-75 -54l-64 99z" />
    <glyph glyph-name="plus" unicode="+" horiz-adv-x="610" 
d="M248 117v391h114v-391h-114zM110 256v114h390v-114h-390z" />
    <glyph glyph-name="comma" unicode="," horiz-adv-x="283" 
d="M122 -167l-86 16l78 267l106 -28z" />
    <glyph glyph-name="hyphen" unicode="-" horiz-adv-x="421" 
d="M60 200v114h301v-114h-301z" />
    <glyph glyph-name="period" unicode="." horiz-adv-x="281" 
d="M140 -18q-32 0 -55 23t-23 55t23 55t55 23q33 0 55.5 -23t22.5 -55t-22.5 -55t-55.5 -23z" />
    <glyph glyph-name="slash" unicode="/" horiz-adv-x="438" 
d="M40 -200l263 905h95l-266 -905h-92z" />
    <glyph glyph-name="zero" unicode="0" horiz-adv-x="570" 
d="M287 -15q-64 0 -112.5 28t-80.5 76.5t-48 112t-16 133.5q0 71 16 134t48 111.5t80.5 76.5t112.5 28q65 0 113 -28t80 -76.5t48 -111.5t16 -134q0 -70 -16 -133.5t-48 -112t-80 -76.5t-113 -28zM287 100q32 0 56.5 18t40.5 50.5t24 75t8 91.5t-8 91.5t-24 75t-40.5 50.5
t-56.5 18t-56.5 -18t-40.5 -50.5t-24 -75t-8 -91.5t8 -91.5t24 -75t40.5 -50.5t56.5 -18z" />
    <glyph glyph-name="one" unicode="1" horiz-adv-x="570" 
d="M231 0v482q-30 -26 -64 -38t-66 -20v126q52 15 98.5 47.5t77.5 72.5h83v-670h-129zM95 0v114h403v-114h-403z" />
    <glyph glyph-name="two" unicode="2" horiz-adv-x="570" 
d="M70 0v52q97 106 164 179.5t102 125.5t35 93q0 54 -35 83t-87 29q-46 0 -90 -24t-73 -53v132q29 26 78 47t106 21q68 0 119.5 -25t80.5 -70.5t29 -106.5q0 -50 -16 -92t-46.5 -83.5t-74 -89.5t-98.5 -108h240v-110h-434z" />
    <glyph glyph-name="three" unicode="3" horiz-adv-x="570" 
d="M252 -15q-55 0 -101.5 17t-73.5 40v125q23 -15 47 -31t52.5 -26t64.5 -10q53 0 88.5 25.5t35.5 75.5q0 29 -18.5 49t-48 30.5t-62.5 10.5h-56v102h56q36 0 65 7.5t46.5 25t17.5 46.5q0 31 -18 52.5t-47.5 33.5t-63.5 12q-45 0 -78.5 -18.5t-62.5 -46.5v124q26 24 67 40
t90 16q70 0 124.5 -25t85 -68.5t30.5 -99.5q0 -45 -20.5 -76.5t-50.5 -50t-60 -25.5q30 -7 60 -26.5t50.5 -51.5t20.5 -77q0 -58 -31.5 -103t-86 -71t-122.5 -26z" />
    <glyph glyph-name="four" unicode="4" horiz-adv-x="570" 
d="M322 0v148h-287v72q56 60 113 129t113 149t106 172h76v-416h94v-106h-94v-148h-121zM198 254h124v170q-32 -48 -61 -89.5t-63 -80.5z" />
    <glyph glyph-name="five" unicode="5" horiz-adv-x="570" 
d="M254 -15q-43 0 -78.5 10t-62.5 25.5t-45 29.5v119q23 -15 49 -31t56.5 -27t65.5 -11q41 0 73.5 12.5t50.5 37t18 60.5q0 33 -18.5 57t-51 37.5t-73.5 13.5q-38 0 -69.5 -8t-59.5 -18v378h363v-116h-248v-149q17 7 40 11.5t51 4.5q52 0 96 -25t71 -69t27 -103
q0 -75 -34 -129t-92 -82t-129 -28z" />
    <glyph glyph-name="six" unicode="6" horiz-adv-x="570" 
d="M294 -15q-67 0 -123.5 31t-91 89t-34.5 138q0 54 17.5 106t46 100t62 90t64.5 75.5t54 55.5h166q-30 -29 -67 -63t-73.5 -71t-66 -74.5t-45.5 -73.5q23 24 53 40.5t66 16.5q62 0 109.5 -28.5t75 -77t27.5 -108.5q0 -49 -17.5 -93t-49.5 -79t-76 -54.5t-97 -19.5zM291 100
q31 0 57.5 15.5t42.5 42.5t16 62q0 33 -16 58t-42.5 39.5t-57.5 14.5t-58 -14.5t-43.5 -39.5t-16.5 -58q0 -35 16.5 -62t43.5 -42.5t58 -15.5z" />
    <glyph glyph-name="seven" unicode="7" horiz-adv-x="570" 
d="M144 0q0 77 20 148.5t53 140t73 134.5t79 131h-309v116h472v-54q-55 -90 -99.5 -166t-75.5 -148t-47.5 -145t-16.5 -157h-149z" />
    <glyph glyph-name="eight" unicode="8" horiz-adv-x="570" 
d="M285 -15q-66 0 -117.5 27t-81.5 74t-30 107q0 38 16 69.5t42 55t55 35.5q-37 20 -65 56t-28 94q0 56 28 96.5t75.5 63t105.5 22.5t105.5 -22.5t75.5 -63t28 -96.5q0 -58 -27.5 -94t-65.5 -56q30 -12 55.5 -35.5t41.5 -55t16 -69.5q0 -60 -29.5 -107t-81.5 -74t-118 -27z
M285 94q31 0 55.5 13.5t38.5 37.5t14 53q0 30 -15.5 53t-40 36t-52.5 13q-27 0 -52 -13t-40.5 -36t-15.5 -53q0 -29 14 -53t39 -37.5t55 -13.5zM285 396q24 0 45.5 11t35 31t13.5 47t-13.5 47.5t-35 32t-45.5 11.5t-45.5 -11.5t-35 -32t-13.5 -47.5t13.5 -47t35 -31
t45.5 -11z" />
    <glyph glyph-name="nine" unicode="9" horiz-adv-x="570" 
d="M283 685q67 0 123.5 -31t91 -89t34.5 -138q0 -54 -17.5 -106t-46 -100t-62 -90t-64.5 -75.5t-54 -55.5h-166q30 29 67 63t73.5 71t66 75t46.5 73q-24 -24 -54 -40.5t-66 -16.5q-61 0 -109 28.5t-75.5 77.5t-27.5 108q0 49 17.5 93t49.5 79t76 54.5t97 19.5zM286 570
q-30 0 -56.5 -15.5t-42.5 -42.5t-16 -62q0 -32 16 -57.5t42.5 -40t56.5 -14.5q32 0 58.5 14.5t43.5 40t17 57.5q0 35 -17 62t-43.5 42.5t-58.5 15.5z" />
    <glyph glyph-name="colon" unicode=":" horiz-adv-x="316" 
d="M158 382q-32 0 -55 23t-23 55t23 55t55 23q33 0 55.5 -23t22.5 -55t-22.5 -55t-55.5 -23zM158 -18q-32 0 -55 23t-23 55t23 55t55 23q33 0 55.5 -23t22.5 -55t-22.5 -55t-55.5 -23z" />
    <glyph glyph-name="semicolon" unicode=";" horiz-adv-x="361" 
d="M196 382q-32 0 -55 23t-23 55t23 55t55 23q33 0 55.5 -23t22.5 -55t-22.5 -55t-55.5 -23zM152 -167l-86 16l78 267l106 -28z" />
    <glyph glyph-name="less" unicode="&#x3c;" horiz-adv-x="610" 
d="M519 0l-428 276v51l428 265v-130l-282 -159l282 -173v-130z" />
    <glyph glyph-name="equal" unicode="=" horiz-adv-x="610" 
d="M110 352v114h391v-114h-391zM110 155v114h391v-114h-391z" />
    <glyph glyph-name="greater" unicode="&#x3e;" horiz-adv-x="610" 
d="M91 0v130l282 173l-282 159v130l428 -265v-51z" />
    <glyph glyph-name="question" unicode="?" horiz-adv-x="580" 
d="M199 218v40q0 22 17.5 42t43.5 40t52.5 40.5t44 42t17.5 46.5q0 43 -32.5 70t-86.5 27t-96.5 -20.5t-78.5 -62.5v127q30 32 79.5 53.5t113.5 21.5q60 0 112 -24.5t83.5 -70t31.5 -108.5q0 -38 -18.5 -67.5t-46 -52.5t-54.5 -42.5t-45 -39t-17 -41.5l1 -21h-121zM264 -18
q-32 0 -55 23t-23 55t23 55t55 23t55 -23t23 -55t-23 -55t-55 -23z" />
    <glyph glyph-name="at" unicode="@" horiz-adv-x="812" 
d="M406 -107q-102 0 -184 43t-130 122t-48 185q0 80 28.5 147.5t78.5 117t115.5 77t139.5 27.5q75 0 140 -23t115 -66.5t78.5 -106t28.5 -141.5q0 -59 -25.5 -107.5t-69 -77t-99.5 -28.5q-43 0 -71.5 19t-37.5 46q-27 -34 -60 -49.5t-72 -15.5q-47 0 -81 23.5t-49 65
t-8 94.5q9 60 38.5 103.5t73 67t93.5 23.5q33 0 60 -14t43 -36l8 41h85l-46 -194q-11 -45 -5.5 -70.5t41.5 -25.5q20 0 39.5 13.5t33.5 43.5t14 78q0 84 -35.5 139t-96 82.5t-135.5 27.5q-74 0 -134.5 -35.5t-96.5 -98.5t-36 -147q0 -83 34 -142t94.5 -90t138.5 -31
q44 0 78.5 5.5t65 17t64.5 29.5l40 -72q-61 -32 -120.5 -49.5t-127.5 -17.5zM355 143q43 0 73.5 23.5t43.5 80.5l16 70q-34 34 -82 34q-46 0 -76.5 -28.5t-41.5 -77.5q-9 -46 9.5 -74t57.5 -28z" />
    <glyph glyph-name="A" unicode="A" horiz-adv-x="707" 
d="M12 0l309 674h65l309 -674h-152l-188 462l-191 -462h-152zM167 136v107h375v-107h-375z" />
    <glyph glyph-name="B" unicode="B" horiz-adv-x="675" 
d="M362 -12q-43 0 -92.5 4t-94.5 10t-77 13v646q56 12 120 18.5t129 6.5q80 0 137 -24.5t88 -67.5t31 -99q0 -50 -26.5 -89t-67.5 -60q30 -8 58.5 -26t46.5 -49t18 -79q0 -56 -32 -102.5t-92.5 -74t-145.5 -27.5zM360 101q61 0 99 27t38 71q0 45 -38.5 66.5t-97.5 21.5h-156
v98h158q54 0 82.5 27t28.5 67q0 29 -16.5 49.5t-44 31.5t-63.5 11q-34 0 -65.5 -2.5t-57.5 -7.5v-448q20 -4 45 -7t49 -4t39 -1z" />
    <glyph glyph-name="C" unicode="C" horiz-adv-x="649" 
d="M400 -15q-73 0 -137 26t-113 72.5t-76.5 111t-27.5 140.5t27.5 140.5t76.5 111t113 72.5t137 26q65 0 111 -18t80 -49v-132q-23 19 -49.5 36t-59.5 28.5t-79 11.5q-63 0 -114 -29.5t-81 -81t-30 -116.5t30 -116t81 -81t114 -30q69 0 116 22t84 51v-127q-34 -30 -86 -49.5
t-117 -19.5z" />
    <glyph glyph-name="D" unicode="D" horiz-adv-x="756" 
d="M361 -12q-46 0 -91.5 3t-88 9.5t-83.5 13.5v646q62 11 125.5 18.5t131.5 7.5q108 0 187.5 -43.5t123.5 -121t44 -180.5q0 -74 -24 -138t-69 -112.5t-110 -75.5t-146 -27zM357 109q69 0 118.5 30t76 82t26.5 116q0 66 -26.5 117.5t-76 81t-118.5 29.5q-31 0 -65 -3t-65 -8
v-434q32 -5 66 -8t64 -3z" />
    <glyph glyph-name="E" unicode="E" horiz-adv-x="641" 
d="M98 0v670h473v-113h-344v-442h344v-115h-473zM174 286v111h358v-111h-358z" />
    <glyph glyph-name="F" unicode="F" horiz-adv-x="608" 
d="M98 0v670h453v-117h-324v-553h-129zM171 256v117h324v-117h-324z" />
    <glyph glyph-name="G" unicode="G" horiz-adv-x="699" 
d="M400 -15q-73 0 -137 26t-113 72.5t-76.5 111t-27.5 140.5t27.5 140.5t76.5 111t113 72.5t137 26q65 0 111 -18t80 -49v-132q-23 19 -49.5 36t-59.5 28.5t-79 11.5q-63 0 -114 -29.5t-81 -81t-30 -116.5t30 -116t81 -81t114 -30q40 0 66.5 8t43 19.5t26.5 20.5l114 -66
q-27 -29 -65 -52.5t-85.5 -38t-102.5 -14.5zM530 30v237h-119v96h242v-273z" />
    <glyph glyph-name="H" unicode="H" horiz-adv-x="779" 
d="M552 0v670h129v-670h-129zM98 0v670h129v-670h-129zM211 278v117h369v-117h-369z" />
    <glyph glyph-name="I" unicode="I" horiz-adv-x="551" 
d="M211 0v670h129v-670h-129zM94 0v113h363v-113h-363zM94 557v113h363v-113h-363z" />
    <glyph glyph-name="J" unicode="J" horiz-adv-x="339" 
d="M6 -255l-51 117q161 49 161 169v641h129v-633q0 -84 -31 -142.5t-84.5 -94.5t-123.5 -57z" />
    <glyph glyph-name="K" unicode="K" horiz-adv-x="687" 
d="M200 186l-65 82l361 402h156zM98 0v670h129v-670h-129zM508 0l-265 329l99 81l333 -410h-167z" />
    <glyph glyph-name="L" unicode="L" horiz-adv-x="616" 
d="M98 0v670h129v-553h338v-117h-467z" />
    <glyph glyph-name="M" unicode="M" horiz-adv-x="851" 
d="M98 0v674h43l286 -300l283 300h43v-674h-128v423l-179 -195h-37l-182 195v-423h-129z" />
    <glyph glyph-name="N" unicode="N" horiz-adv-x="776" 
d="M631 -4l-404 419v-415h-129v674h47l404 -425v421h129v-674h-47z" />
    <glyph glyph-name="O" unicode="O" horiz-adv-x="794" 
d="M397 -15q-73 0 -136.5 26t-111.5 72.5t-75.5 111t-27.5 140.5t27.5 140.5t75.5 111t111.5 72.5t136.5 26t136.5 -26t111.5 -72.5t75.5 -111t27.5 -140.5t-27.5 -140.5t-75.5 -111t-111.5 -72.5t-136.5 -26zM397 108q63 0 112.5 30t78 81t28.5 116t-28.5 116.5t-78 81
t-112.5 29.5t-112.5 -29.5t-78 -81t-28.5 -116.5t28.5 -116t78 -81t112.5 -30z" />
    <glyph glyph-name="P" unicode="P" horiz-adv-x="660" 
d="M94 0v670h275q46 0 90.5 -17t80 -49t57 -78t21.5 -104q0 -72 -34 -126t-91.5 -84t-124.5 -30q-54 0 -95.5 10.5t-65.5 24.5v108q22 -11 61 -21t81 -10q64 0 100.5 34t36.5 94q0 41 -19.5 69t-51.5 43t-70 15h-122v-549h-129z" />
    <glyph glyph-name="Q" unicode="Q" horiz-adv-x="795" 
d="M397 -15q-73 0 -136.5 26t-111.5 72.5t-75.5 111t-27.5 140.5t27.5 140.5t75.5 111t111.5 72.5t136.5 26t136.5 -26t111.5 -72.5t75.5 -111t27.5 -140.5t-27.5 -140.5t-75.5 -111t-111.5 -72.5t-136.5 -26zM760 -161q-57 0 -122.5 18t-128 51t-112.5 77l83 39
q44 -21 93.5 -36.5t98 -23.5t88.5 -8v-117zM397 108q63 0 112.5 30t78 81t28.5 116t-28.5 116.5t-78 81t-112.5 29.5t-112.5 -29.5t-78 -81t-28.5 -116.5t28.5 -116t78 -81t112.5 -30z" />
    <glyph glyph-name="R" unicode="R" horiz-adv-x="663" 
d="M98 0v670h269q46 0 90.5 -13t80 -39t57 -66.5t21.5 -95.5q0 -62 -33.5 -104.5t-86 -64t-112.5 -21.5q-15 0 -38.5 3t-49.5 7t-48.5 8.5t-33.5 7.5v83q28 -10 63 -16t70 -6q64 0 100.5 28t36.5 75q0 50 -39 75.5t-96 25.5h-122v-557h-129zM471 0l-259 292l110 42l323 -334
h-174z" />
    <glyph glyph-name="S" unicode="S" horiz-adv-x="543" 
d="M252 -12q-59 0 -112 20.5t-92 47.5v124q42 -30 96.5 -52t115.5 -22q44 0 73.5 20t29.5 55q0 19 -12 33.5t-30.5 25.5t-38.5 18l-105 42q-51 21 -79.5 48.5t-40 61.5t-11.5 72q0 60 32.5 105t86.5 70t115 25q59 0 105.5 -16t77.5 -37v-124q-34 22 -77 40.5t-94 18.5
q-26 0 -52 -9t-42.5 -27.5t-16.5 -46.5q0 -34 29 -52t70 -36l82 -36q71 -30 105 -70t34 -99t-34 -103.5t-90.5 -70.5t-124.5 -26z" />
    <glyph glyph-name="T" unicode="T" horiz-adv-x="615" 
d="M243 0v670h129v-670h-129zM32 557v113h552v-113h-552z" />
    <glyph glyph-name="U" unicode="U" horiz-adv-x="750" 
d="M375 -14q-80 0 -145 33.5t-103.5 96t-38.5 149.5v407h129v-400q0 -54 20 -90t56 -53.5t82 -17.5t81.5 17.5t56 53.5t20.5 90v400h129v-407q0 -87 -38.5 -149.5t-103 -96t-145.5 -33.5z" />
    <glyph glyph-name="V" unicode="V" horiz-adv-x="708" 
d="M322 -2l-310 672h152l189 -458l191 458h152l-310 -672h-64z" />
    <glyph glyph-name="W" unicode="W" horiz-adv-x="960" 
d="M235 0l-223 670h146l131 -438l147 438l86 -1l146 -437l134 438h146l-228 -670h-87l-155 446l-156 -446h-87z" />
    <glyph glyph-name="X" unicode="X" horiz-adv-x="681" 
d="M12 0l245 333l-245 337h164l167 -245l162 245h164l-248 -337l248 -333h-164l-171 237l-164 -237h-158z" />
    <glyph glyph-name="Y" unicode="Y" horiz-adv-x="675" 
d="M303 197l-291 473h152l173 -294l174 294h152l-297 -473h-63zM271 0v284h133v-284h-133z" />
    <glyph glyph-name="Z" unicode="Z" horiz-adv-x="656" 
d="M47 0v36l349 517h-326v117h535v-36l-356 -517h356v-117h-558z" />
    <glyph glyph-name="bracketleft" unicode="[" horiz-adv-x="395" 
d="M76 -200v890h283v-106h-162v-678h162v-106h-283z" />
    <glyph glyph-name="backslash" unicode="\" horiz-adv-x="384" 
d="M304 -200l-316 870h95l313 -870h-92z" />
    <glyph glyph-name="bracketright" unicode="]" horiz-adv-x="399" 
d="M323 -200h-283v106h162v678h-162v106h283v-890z" />
    <glyph glyph-name="asciicircum" unicode="^" horiz-adv-x="610" 
d="M56 318l211 352h67l221 -352h-120l-136 220l-123 -220h-120z" />
    <glyph glyph-name="underscore" unicode="_" horiz-adv-x="490" 
d="M0 -127v114h490v-114h-490z" />
    <glyph glyph-name="grave" unicode="`" horiz-adv-x="354" 
d="M181 575l-138 141h130l106 -141h-98z" />
    <glyph glyph-name="a" unicode="a" 
d="M272 -15q-61 0 -113 31t-83.5 90t-31.5 142q0 84 31.5 144t85.5 92t120 32q41 0 83.5 -19.5t71.5 -51.5v59h118v-504h-118v85q-23 -41 -65.5 -70.5t-98.5 -29.5zM300 103q36 0 67 19t50 53.5t19 81.5l-1 77q-27 31 -59.5 49t-71.5 18q-42 0 -73 -22t-47.5 -56.5
t-16.5 -74.5t16.5 -73t46.5 -52.5t70 -19.5z" />
    <glyph glyph-name="b" unicode="b" 
d="M361 -15q-56 0 -98.5 29.5t-65.5 70.5v-85h-118v720h118v-275q29 32 71 51.5t84 19.5q66 0 120 -32t85.5 -92t31.5 -144q0 -83 -31.5 -142t-83 -90t-113.5 -31zM333 103q40 0 70 19.5t46.5 52.5t16.5 73t-17 74.5t-47.5 56t-72.5 21.5q-39 0 -71 -17.5t-60 -48.5l-1 -77
q0 -47 19 -81.5t50 -53.5t67 -19z" />
    <glyph glyph-name="c" unicode="c" horiz-adv-x="495" 
d="M308 -15q-57 0 -105 21t-84 58t-55.5 84.5t-19.5 100.5t19.5 101t55.5 85.5t84 59t105 21.5t93.5 -18t55.5 -34v-110q-26 19 -59 32.5t-81 13.5q-41 0 -75 -20t-53.5 -54t-19.5 -77q0 -42 19 -76t52.5 -54t76.5 -20q48 0 81 13.5t59 32.5v-110q-19 -17 -55.5 -33.5
t-93.5 -16.5z" />
    <glyph glyph-name="d" unicode="d" 
d="M272 -15q-61 0 -113 31t-83.5 90t-31.5 142q0 84 31.5 144t85.5 92t120 32q41 0 83.5 -19.5t71.5 -51.5v275h118v-720h-118v85q-23 -41 -65.5 -70.5t-98.5 -29.5zM300 103q36 0 67 19t50 53.5t19 81.5l-1 77q-27 31 -59.5 48.5t-71.5 17.5q-42 0 -73 -21.5t-47.5 -56
t-16.5 -74.5t16.5 -73t46.5 -52.5t70 -19.5z" />
    <glyph glyph-name="e" unicode="e" horiz-adv-x="574" 
d="M313 -15q-56 0 -104.5 19.5t-86 55t-58 83.5t-20.5 104q0 73 33 134t90 98t130 37q75 0 128 -32t81 -88t28 -129v-53h-381v84h267q-3 39 -21.5 64t-46 37t-57.5 12q-41 0 -71 -21t-46.5 -58t-16.5 -85q0 -44 19.5 -79t55 -55t81.5 -20q56 0 100.5 23t72.5 48v-112
q-15 -15 -42 -30.5t-61.5 -26t-73.5 -10.5z" />
    <glyph glyph-name="f" unicode="f" horiz-adv-x="394" 
d="M116 0v553q0 58 24 98.5t64 62t85 21.5q30 0 54 -7t41 -19v-99q-15 9 -35 14.5t-42 4.5q-32 -1 -52.5 -20t-20.5 -64v-545h-118zM38 404v100h330v-100h-330z" />
    <glyph glyph-name="g" unicode="g" 
d="M280 -255q-45 0 -78.5 9.5t-59.5 24.5t-50 32v114q22 -14 47 -30t58.5 -28t75.5 -12q46 0 83 17t58.5 49t21.5 73v91q-23 -41 -65.5 -70.5t-98.5 -29.5q-61 0 -113 31t-83.5 90t-31.5 142q0 84 31.5 144t85.5 92t120 32q41 0 83.5 -19.5t71.5 -51.5v59h118v-492
q0 -86 -37.5 -145.5t-100 -90.5t-136.5 -31zM300 103q36 0 66.5 19t49.5 53.5t19 81.5v77q-27 31 -59.5 48.5t-71.5 17.5q-42 0 -73 -21.5t-47.5 -56t-16.5 -74.5t16.5 -73t46.5 -52.5t70 -19.5z" />
    <glyph glyph-name="h" unicode="h" horiz-adv-x="602" 
d="M416 0l-1 293q0 55 -25.5 81.5t-71.5 26.5q-35 0 -66 -23.5t-55 -55.5v108q16 21 39 40.5t52.5 32.5t63.5 13q52 0 93 -23t65 -69t24 -115v-309h-118zM79 0v720h118v-720h-118z" />
    <glyph glyph-name="i" unicode="i" horiz-adv-x="331" 
d="M178 598q-34 0 -58.5 24.5t-24.5 57.5q0 34 24.5 58t58.5 24q23 0 42 -11t30.5 -30t11.5 -41q0 -21 -11.5 -40.5t-30.5 -30.5t-42 -11zM132 0v504h118v-504h-118zM51 402v102h199v-102h-199z" />
    <glyph glyph-name="j" unicode="j" horiz-adv-x="326" 
d="M172 762q23 0 42 -11t30.5 -30t11.5 -41q0 -21 -11.5 -40.5t-30.5 -30.5t-42 -11t-42 11t-30.5 30.5t-11.5 40.5q0 34 25 58t59 24zM62 -255l-53 103q56 26 84.5 61t28.5 89v404h-80v102h198v-499q0 -102 -46.5 -165.5t-131.5 -94.5z" />
    <glyph glyph-name="k" unicode="k" horiz-adv-x="574" 
d="M173 123v135l239 246h145zM79 0v720h118v-720h-118zM420 0l-187 243l75 82l261 -325h-149z" />
    <glyph glyph-name="l" unicode="l" horiz-adv-x="276" 
d="M79 0v720h118v-720h-118z" />
    <glyph glyph-name="m" unicode="m" horiz-adv-x="924" 
d="M737 0v293q0 55 -28 81.5t-74 26.5q-37 0 -63 -23.5t-50 -55.5l-24 88q31 43 73 74.5t97 31.5q51 0 94 -23t68.5 -69t25.5 -115v-309h-119zM79 0v504h118v-504h-118zM408 0l-1 293q0 55 -27.5 81.5t-73.5 26.5q-37 0 -65 -23.5t-52 -55.5v108q16 21 36.5 40.5t48.5 32.5
t65 13q60 0 108.5 -32.5t67.5 -95.5l11 -43v-345h-118z" />
    <glyph glyph-name="n" unicode="n" horiz-adv-x="602" 
d="M416 0l-1 293q0 55 -25.5 81.5t-71.5 26.5q-35 0 -66 -23.5t-55 -55.5v108q16 21 39 40.5t52.5 32.5t63.5 13q52 0 93 -23t65 -69t24 -115v-309h-118zM79 0v504h118v-504h-118z" />
    <glyph glyph-name="o" unicode="o" horiz-adv-x="625" 
d="M313 -15q-56 0 -104.5 20.5t-85.5 56.5t-58 84.5t-21 103.5q0 56 21 104t58 84.5t85.5 57t104.5 20.5q55 0 103.5 -20.5t86 -57t58 -84.5t20.5 -104q0 -55 -20.5 -103.5t-58 -84.5t-86 -56.5t-103.5 -20.5zM313 99q40 0 72.5 18.5t51.5 52.5t19 80q0 47 -19 81
t-51.5 52.5t-72.5 18.5q-39 0 -72 -18.5t-52.5 -52.5t-19.5 -81q0 -46 19.5 -80t52.5 -52.5t72 -18.5z" />
    <glyph glyph-name="p" unicode="p" 
d="M79 -240v744h118v-85q23 41 65.5 69t98.5 28q62 0 113.5 -30.5t83 -88.5t31.5 -141t-31.5 -144t-85.5 -94t-120 -33q-42 0 -84 21t-71 53v-299h-118zM329 100q42 0 72.5 22.5t47.5 58.5t17 75q0 41 -16.5 72.5t-46.5 50.5t-70 19q-36 0 -67 -18t-50 -52t-19 -81l1 -77
q28 -31 60 -50.5t71 -19.5z" />
    <glyph glyph-name="q" unicode="q" 
d="M436 -240v325q-23 -41 -65.5 -70.5t-98.5 -29.5q-61 0 -113 31t-83.5 90t-31.5 142q0 84 31.5 144t85.5 92t120 32q41 0 83.5 -19.5t71.5 -51.5v59h118v-744h-118zM300 103q36 0 67 19t50 53.5t19 81.5l-1 77q-27 31 -59.5 48.5t-71.5 17.5q-42 0 -73 -21.5t-47.5 -56
t-16.5 -74.5t16.5 -73t46.5 -52.5t70 -19.5z" />
    <glyph glyph-name="r" unicode="r" horiz-adv-x="411" 
d="M79 0v504h118v-504h-118zM197 286v122q27 46 63.5 76t81.5 30q28 0 49 -10v-133q-15 9 -31 14t-35 5q-45 0 -74.5 -30t-53.5 -74z" />
    <glyph glyph-name="s" unicode="s" horiz-adv-x="439" 
d="M213 -15q-32 0 -65 7.5t-60 19t-43 22.5v107q18 -12 45 -24.5t55.5 -20t53.5 -7.5q40 0 61.5 15t21.5 41q0 20 -17.5 31.5t-50.5 23.5l-64 22q-58 20 -79.5 55t-21.5 82t24 82t67.5 55t99.5 20q46 0 86 -13.5t60 -30.5v-107q-23 16 -57.5 30.5t-72.5 14.5t-59.5 -17
t-21.5 -39q0 -17 12.5 -31.5t45.5 -24.5l63 -22q56 -17 83.5 -50t27.5 -81q0 -45 -26 -81.5t-69.5 -57.5t-98.5 -21z" />
    <glyph glyph-name="t" unicode="t" horiz-adv-x="463" 
d="M285 -15q-44 0 -79.5 19.5t-56 55t-20.5 83.5v261h-86v56q49 19 81 65.5t56 116.5h67v-138h155v-100h-155v-233q0 -34 18.5 -53t51.5 -19q30 0 52.5 8.5t39.5 18.5v-101q-18 -18 -49.5 -29t-74.5 -11z" />
    <glyph glyph-name="u" unicode="u" horiz-adv-x="586" 
d="M293 -12q-65 0 -115.5 26t-80 74.5t-29.5 115.5v300h120v-282q0 -59 30 -89.5t75 -30.5t74.5 30.5t29.5 89.5v282h121v-300q0 -67 -29.5 -115.5t-80.5 -74.5t-115 -26z" />
    <glyph glyph-name="v" unicode="v" horiz-adv-x="569" 
d="M244 0l-233 504h138l132 -324l139 324h138l-239 -504h-75z" />
    <glyph glyph-name="w" unicode="w" horiz-adv-x="783" 
d="M185 0l-174 504h130l97 -310l113 310h82l113 -310l96 310h130l-175 -504h-84l-121 332l-122 -332h-85z" />
    <glyph glyph-name="x" unicode="x" horiz-adv-x="582" 
d="M11 0l206 258l-200 246h141l133 -166l133 166h141l-200 -246l206 -258h-148l-132 182l-132 -182h-148z" />
    <glyph glyph-name="y" unicode="y" horiz-adv-x="591" 
d="M79 -240l196 358l170 386h135l-367 -744h-134zM243 6l-232 498h138l185 -410z" />
    <glyph glyph-name="z" unicode="z" horiz-adv-x="555" 
d="M53 0v31l259 371h-243v102h425v-31l-269 -371h279v-102h-451z" />
    <glyph glyph-name="braceleft" unicode="{" horiz-adv-x="458" 
d="M330 -200q-52 0 -91.5 24.5t-61.5 66t-22 91.5v124q0 45 -14 63.5t-61 18.5v114q47 0 61 18.5t14 63.5v124q0 51 22 92t61.5 65.5t91.5 24.5h88v-106h-44q-43 0 -64 -16t-27.5 -45.5t-6.5 -69.5v-113q0 -31 -18 -55.5t-47 -39.5q29 -15 47 -39t18 -56v-113
q0 -40 6.5 -69.5t27.5 -45.5t64 -16h44v-106h-88z" />
    <glyph glyph-name="bar" unicode="|" horiz-adv-x="254" 
d="M80 -200v905h94v-905h-94z" />
    <glyph glyph-name="braceright" unicode="}" horiz-adv-x="458" 
d="M128 -200h-88v106h44q43 0 64 16t27.5 45.5t6.5 69.5v113q0 32 18.5 56t46.5 39q-28 15 -46.5 39.5t-18.5 55.5v113q0 40 -6.5 69.5t-27.5 45.5t-64 16h-44v106h88q53 0 92 -24.5t61 -65.5t22 -92v-124q0 -45 14 -63.5t61 -18.5v-114q-47 0 -61 -18.5t-14 -63.5v-124
q0 -50 -22 -91.5t-61 -66t-92 -24.5z" />
    <glyph glyph-name="asciitilde" unicode="~" horiz-adv-x="610" 
d="M387 279q-33 0 -55 9.5t-39 21.5t-32 21.5t-34 9.5q-21 0 -32.5 -16.5t-11.5 -39.5h-98q0 65 38.5 107t99.5 42q33 0 55 -9.5t39 -21.5t32 -21.5t34 -9.5q22 0 33 17t11 39h98q0 -64 -38.5 -106.5t-99.5 -42.5z" />
    <glyph glyph-name="uni00A0" unicode="&#xa0;" horiz-adv-x="300" 
 />
    <glyph glyph-name="exclamdown" unicode="&#xa1;" horiz-adv-x="316" 
d="M105 266h106v-442h-106v442zM158 512q32 0 55 -22.5t23 -55.5q0 -32 -23 -55t-55 -23t-55 23t-23 55q0 33 23 55.5t55 22.5z" />
    <glyph glyph-name="cent" unicode="&#xa2;" horiz-adv-x="495" 
d="M257 -80v660h90v-660h-90zM308 -15q-57 0 -105 21t-84 58t-55.5 84.5t-19.5 100.5t19.5 101t55.5 85.5t84 59t105 21.5t93.5 -18t55.5 -34v-110q-26 19 -59 32.5t-81 13.5q-41 0 -75 -20t-53.5 -54t-19.5 -77q0 -42 19 -76t52.5 -54t76.5 -20q48 0 81 13.5t59 32.5v-110
q-19 -17 -55.5 -33.5t-93.5 -16.5z" />
    <glyph glyph-name="sterling" unicode="&#xa3;" horiz-adv-x="535" 
d="M78 0v96q26 9 44 33.5t27.5 57t9.5 64.5v200q0 76 31 127t81 76.5t105 25.5q42 0 76.5 -14t50.5 -31v-114q-21 18 -52 30.5t-64 11.5q-25 0 -49.5 -14t-39.5 -42.5t-15 -71.5v-176q0 -45 -15.5 -80.5t-40.5 -58.5h262v-120h-411zM79 283v100h346v-100h-346z" />
    <glyph glyph-name="currency" unicode="&#xa4;" horiz-adv-x="536" 
d="M268 70q-48 0 -92 23.5t-71.5 65.5t-27.5 95q0 54 27.5 95.5t71.5 65t92 23.5q49 0 92.5 -23.5t71 -65t27.5 -95.5q0 -53 -27.5 -95t-71 -65.5t-92.5 -23.5zM110 32l-66 62l100 99l62 -64zM426 32l-105 105l77 51l94 -94zM268 163q38 0 66.5 24t28.5 67t-28.5 67
t-66.5 24t-66.5 -24t-28.5 -67t28.5 -67t66.5 -24zM151 308l-105 106l62 62l108 -107zM392 314l-61 66l97 96l62 -62z" />
    <glyph glyph-name="yen" unicode="&#xa5;" horiz-adv-x="675" 
d="M119 253v78h434v-78h-434zM119 128v78h434v-78h-434zM303 197l-291 473h152l173 -294l174 294h152l-297 -473h-63zM271 0v284h133v-284h-133z" />
    <glyph glyph-name="brokenbar" unicode="&#xa6;" horiz-adv-x="254" 
d="M80 289v416h94v-416h-94zM80 -200v416h94v-416h-94z" />
    <glyph glyph-name="section" unicode="&#xa7;" horiz-adv-x="543" 
d="M413 41l-117 73q29 6 48 23t19 44q0 21 -12 36.5t-30.5 26.5t-38.5 19l-105 44q-51 21 -79.5 47t-40 58t-11.5 70q0 60 32.5 105t86.5 70t115 25q59 0 105.5 -16t77.5 -37v-128q-34 22 -75 40.5t-92 18.5q-26 0 -53 -8t-44.5 -25.5t-17.5 -45.5q0 -34 29 -51.5t70 -35.5
l84 -36q71 -29 104 -69t33 -97q0 -51 -23.5 -88t-64.5 -63zM252 -240q-59 0 -112 20.5t-92 47.5v128q42 -30 94.5 -52t113.5 -22q44 0 75.5 18t31.5 53q0 19 -12 33t-30.5 24.5t-38.5 18.5l-105 42q-51 20 -79.5 47t-40 60.5t-11.5 71.5q0 33 12 59t31 46.5t41 35.5l114 -67
q-27 -8 -45 -28.5t-18 -48.5q0 -34 29 -52.5t70 -36.5l84 -36q71 -29 104 -67t33 -95q0 -58 -34 -103t-90.5 -71t-124.5 -26z" />
    <glyph glyph-name="dieresis" unicode="&#xa8;" horiz-adv-x="506" 
d="M361 585q-29 0 -49 20.5t-20 47.5q0 29 20 48.5t49 19.5q28 0 48 -19.5t20 -48.5q0 -27 -20 -47.5t-48 -20.5zM151 585q-29 0 -49 20.5t-20 47.5q0 29 20 48.5t49 19.5q28 0 48 -19.5t20 -48.5q0 -27 -20 -47.5t-48 -20.5z" />
    <glyph glyph-name="copyright" unicode="&#xa9;" horiz-adv-x="876" 
d="M438 -53q-84 0 -155.5 30.5t-124.5 84t-82.5 123.5t-29.5 150t29.5 150t82.5 123.5t124.5 84t155.5 30.5t155.5 -30.5t124.5 -84t82.5 -123.5t29.5 -150t-29.5 -150t-82.5 -123.5t-124.5 -84t-155.5 -30.5zM438 33q89 0 156.5 38t104.5 106.5t37 157.5t-37 157.5
t-104.5 106.5t-156.5 38t-156 -38t-104.5 -106.5t-37.5 -157.5t37.5 -157.5t104.5 -106.5t156 -38zM460 123q-47 0 -86 17t-68 46.5t-45 68.5t-16 83q0 43 16 82t45 69t68 47.5t86 17.5q45 0 75 -14.5t45 -27.5v-89q-21 15 -48 26t-65 11q-34 0 -61.5 -16t-43 -44t-15.5 -62
q0 -35 15 -62.5t42 -43.5t63 -16q38 0 65 10.5t48 26.5v-89q-15 -14 -45 -27.5t-75 -13.5z" />
    <glyph glyph-name="ordfeminine" unicode="&#xaa;" horiz-adv-x="393" 
d="M180 364q-40 0 -72 18.5t-51 53.5t-19 84q0 75 42.5 117.5t104.5 42.5q25 0 50 -11.5t42 -30.5v34h78v-299h-78v50q-13 -24 -38.5 -41.5t-58.5 -17.5zM196 439q33 0 57.5 22.5t23.5 63.5v47q-16 18 -35.5 25.5t-42.5 7.5q-37 0 -59.5 -24.5t-22.5 -60.5t22 -58.5
t57 -22.5z" />
    <glyph glyph-name="guillemotleft" unicode="&#xab;" horiz-adv-x="615" 
d="M531 32l-235 195v38l235 203v-124l-116 -97l116 -91v-124zM295 32l-235 195v38l235 203v-124l-116 -97l116 -91v-124z" />
    <glyph glyph-name="logicalnot" unicode="&#xac;" horiz-adv-x="610" 
d="M114 256v114h383v-114h-383zM388 131v239h109v-239h-109z" />
    <glyph glyph-name="registered" unicode="&#xae;" horiz-adv-x="876" 
d="M438 -53q-84 0 -155.5 30.5t-124.5 84t-82.5 123.5t-29.5 150t29.5 150t82.5 123.5t124.5 84t155.5 30.5t155.5 -30.5t124.5 -84t82.5 -123.5t29.5 -150t-29.5 -150t-82.5 -123.5t-124.5 -84t-155.5 -30.5zM438 33q90 0 157 38t104 106.5t37 157.5t-37 157.5t-104 106.5
t-157 38q-89 0 -156 -38t-104.5 -106.5t-37.5 -157.5t37.5 -157.5t104.5 -106.5t156 -38zM307 136v397h160q27 0 53 -7.5t47.5 -23t34.5 -39.5t13 -57q0 -37 -20 -62t-51.5 -38t-66.5 -13q-9 0 -23 2t-29.5 4.5t-28.5 5t-21 4.5v50q17 -6 38 -10t42 -4q38 0 59.5 17t21.5 44
q0 30 -23 45t-57 15h-72v-330h-77zM528 136l-153 173l65 25l192 -198h-104z" />
    <glyph glyph-name="macron" unicode="&#xaf;" horiz-adv-x="546" 
d="M94 623v92h358v-92h-358z" />
    <glyph glyph-name="degree" unicode="&#xb0;" horiz-adv-x="431" 
d="M216 340q-50 0 -89 23.5t-61 63t-22 86.5t22 86t61 62.5t89 23.5t88.5 -23.5t60.5 -62.5t22 -86t-22 -86.5t-60.5 -63t-88.5 -23.5zM216 433q32 0 54 23.5t22 56.5q0 31 -22 54.5t-54 23.5q-33 0 -55 -23.5t-22 -54.5q0 -33 22 -56.5t55 -23.5z" />
    <glyph glyph-name="plusminus" unicode="&#xb1;" horiz-adv-x="610" 
d="M120 0v106h371v-106h-371zM120 285v106h370v-106h-370zM252 172v331h106v-331h-106z" />
    <glyph glyph-name="uni00B2" unicode="&#xb2;" horiz-adv-x="280" 
d="M40 373v29q65 71 96.5 108t31.5 62q0 19 -12.5 29.5t-35.5 10.5q-21 0 -40.5 -11t-32.5 -24v71q14 11 36 20.5t53 9.5q44 0 73 -24.5t29 -65.5q0 -29 -10 -50.5t-29.5 -44.5t-50.5 -59h92v-61h-200z" />
    <glyph glyph-name="uni00B3" unicode="&#xb3;" horiz-adv-x="266" 
d="M118 364q-24 0 -45 8t-33 17v64q13 -9 30 -19t38 -10q20 0 33 8t13 27t-15.5 27t-34.5 8h-22v55h24q20 0 34.5 5.5t14.5 22.5q0 18 -14.5 27t-34.5 9q-17 0 -32 -6.5t-26 -16.5v62q12 11 30 18t41 7q46 0 75 -23.5t29 -61.5q0 -31 -18 -48t-38 -21q20 -4 39.5 -21.5
t19.5 -47.5q0 -39 -31 -64.5t-77 -25.5z" />
    <glyph glyph-name="acute" unicode="&#xb4;" horiz-adv-x="334" 
d="M74 575l106 141h130l-138 -141h-98z" />
    <glyph glyph-name="uni00B5" unicode="&#xb5;" horiz-adv-x="586" 
d="M290 -12q-52 0 -87 32.5t-35 94.5l-100 131v258h120v-282q0 -59 30 -89.5t75 -30.5t74.5 30.5t29.5 89.5l1 282h120v-260l-108 -129q0 -62 -34.5 -94.5t-85.5 -32.5zM68 -240v538l118 -199v-339h-118zM400 0v146l118 170v-316h-118z" />
    <glyph glyph-name="paragraph" unicode="&#xb6;" horiz-adv-x="658" 
d="M329 -210v478h-50q-60 0 -114.5 20.5t-88.5 65t-34 115.5q0 73 34 117t88.5 64t114.5 20h281v-880h-68v796h-92v-796h-71z" />
    <glyph glyph-name="periodcentered" unicode="&#xb7;" horiz-adv-x="316" 
d="M158 263q-32 0 -55 23t-23 55t23 55t55 23q33 0 55.5 -23t22.5 -55t-22.5 -55t-55.5 -23z" />
    <glyph glyph-name="cedilla" unicode="&#xb8;" horiz-adv-x="351" 
d="M162 -240q-15 0 -39 6t-40 19l7 63q16 -8 33 -15.5t39 -7.5q15 0 26 8t11 21t-10 20t-26 7q-7 0 -15 -2t-18 -7l-19 12l13 118h62l-5 -62q41 3 67.5 -20.5t26.5 -60.5q0 -44 -30.5 -71.5t-82.5 -27.5z" />
    <glyph glyph-name="uni00B9" unicode="&#xb9;" horiz-adv-x="277" 
d="M107 373v200q-13 -12 -29.5 -17.5t-34.5 -7.5v69q27 7 48.5 21t35.5 32h49v-297h-69zM40 373v62h197v-62h-197z" />
    <glyph glyph-name="ordmasculine" unicode="&#xba;" horiz-adv-x="392" 
d="M196 365q-44 0 -79.5 20.5t-57 56t-21.5 78.5q0 44 21.5 79.5t57 56t79.5 20.5q43 0 79 -20.5t57.5 -56t21.5 -79.5q0 -43 -21.5 -78.5t-57.5 -56t-79 -20.5zM196 437q31 0 54.5 21t23.5 62q0 42 -23.5 63t-54.5 21q-21 0 -39 -9.5t-29 -28t-11 -46.5q0 -26 11 -45
t29 -28.5t39 -9.5z" />
    <glyph glyph-name="guillemotright" unicode="&#xbb;" horiz-adv-x="615" 
d="M320 32v124l116 97l-116 91v124l235 -195v-38zM84 32v124l116 97l-116 91v124l235 -195v-38z" />
    <glyph glyph-name="onequarter" unicode="&#xbc;" horiz-adv-x="664" 
d="M109 373v200q-13 -12 -29.5 -17.5t-34.5 -7.5v69q27 7 48.5 21t35.5 32h49v-297h-69zM42 373v62h197v-62h-197zM45 0l498 670h97l-501 -670h-94zM484 0v66h-128v31q37 41 75.5 90t71.5 110h46v-173h35v-58h-35v-66h-65zM440 124h44v58q-8 -11 -13.5 -19t-12.5 -17
t-18 -22z" />
    <glyph glyph-name="onehalf" unicode="&#xbd;" horiz-adv-x="695" 
d="M124 373v200q-13 -12 -29.5 -17.5t-34.5 -7.5v69q27 7 48.5 21t35.5 32h49v-297h-69zM57 373v62h197v-62h-197zM50 0l498 670h97l-501 -670h-94zM440 0v29q65 71 96.5 108t31.5 62q0 19 -12.5 29.5t-35.5 10.5q-21 0 -40.5 -11t-32.5 -24v71q14 11 36 20.5t53 9.5
q44 0 73 -24.5t29 -65.5q0 -29 -10 -50.5t-29.5 -44.5t-50.5 -59h92v-61h-200z" />
    <glyph glyph-name="threequarters" unicode="&#xbe;" horiz-adv-x="688" 
d="M124 364q-24 0 -45 8t-33 17v64q13 -9 30 -19t38 -10q20 0 33 8t13 27t-15.5 27t-34.5 8h-22v55h24q20 0 34.5 5.5t14.5 22.5q0 18 -14.5 27t-34.5 9q-17 0 -32 -6.5t-26 -16.5v62q12 11 30 18t41 7q46 0 75 -23.5t29 -61.5q0 -31 -18 -48t-38 -21q20 -4 39.5 -21.5
t19.5 -47.5q0 -39 -31 -64.5t-77 -25.5zM47 0l498 670h97l-501 -670h-94zM488 0v66h-128v31q37 41 75.5 90t71.5 110h46v-173h35v-58h-35v-66h-65zM444 124h44v58q-8 -11 -13.5 -19t-12.5 -17t-18 -22z" />
    <glyph glyph-name="questiondown" unicode="&#xbf;" horiz-adv-x="580" 
d="M381 276v-40q0 -22 -17.5 -42t-43.5 -40t-52.5 -40.5t-44 -42t-17.5 -46.5q0 -43 32.5 -70t86.5 -27t96.5 20.5t78.5 62.5v-127q-30 -32 -79.5 -53.5t-113.5 -21.5q-60 0 -111.5 24.5t-83.5 70.5t-32 108q0 38 18.5 67.5t46 52.5t54.5 42.5t45 39t17 41.5l-1 21h121z
M316 512q33 0 55.5 -22.5t22.5 -55.5q0 -32 -22.5 -55t-55.5 -23q-32 0 -55 23t-23 55q0 33 23 55.5t55 22.5z" />
    <glyph glyph-name="Agrave" unicode="&#xc0;" horiz-adv-x="707" 
d="M12 0l309 674h65l309 -674h-152l-188 462l-191 -462h-152zM167 136v107h375v-107h-375zM307 741l-138 141h130l106 -141h-98z" />
    <glyph glyph-name="Aacute" unicode="&#xc1;" horiz-adv-x="707" 
d="M12 0l309 674h65l309 -674h-152l-188 462l-191 -462h-152zM167 136v107h375v-107h-375zM288 741l106 141h130l-138 -141h-98z" />
    <glyph glyph-name="Acircumflex" unicode="&#xc2;" horiz-adv-x="707" 
d="M12 0l309 674h65l309 -674h-152l-188 462l-191 -462h-152zM167 136v107h375v-107h-375zM187 739l132 143h68l132 -143h-102l-64 70l-64 -70h-102z" />
    <glyph glyph-name="Atilde" unicode="&#xc3;" horiz-adv-x="707" 
d="M12 0l309 674h65l309 -674h-152l-188 462l-191 -462h-152zM167 136v107h375v-107h-375zM421 745q-26 0 -43.5 6.5t-30.5 16.5t-24 17t-25 7q-16 0 -25 -12.5t-9 -30.5h-79q0 55 33 86.5t81 31.5q26 0 43.5 -7t30 -17t24 -16.5t24.5 -6.5q18 0 26.5 12t8.5 30h78
q0 -54 -32.5 -85.5t-80.5 -31.5z" />
    <glyph glyph-name="Adieresis" unicode="&#xc4;" horiz-adv-x="707" 
d="M12 0l309 674h65l309 -674h-152l-188 462l-191 -462h-152zM167 136v107h375v-107h-375zM459 751q-29 0 -49 20.5t-20 47.5q0 29 20 48.5t49 19.5q28 0 48 -19.5t20 -48.5q0 -27 -20 -47.5t-48 -20.5zM249 751q-29 0 -49 20.5t-20 47.5q0 29 20 48.5t49 19.5
q28 0 48 -19.5t20 -48.5q0 -27 -20 -47.5t-48 -20.5z" />
    <glyph glyph-name="Aring" unicode="&#xc5;" horiz-adv-x="707" 
d="M12 0l309 674h65l309 -674h-152l-188 462l-191 -462h-152zM167 136v107h375v-107h-375zM353 722q-37 0 -62.5 25t-25.5 61t25.5 61t62.5 25q38 0 63 -25t25 -61t-25 -61t-63 -25zM353 768q16 0 27.5 11.5t11.5 28.5q0 16 -11.5 28t-27.5 12t-28 -12t-12 -28
q0 -17 12 -28.5t28 -11.5z" />
    <glyph glyph-name="AE" unicode="&#xc6;" horiz-adv-x="1072" 
d="M12 0l485 670h67l-22 -126l-384 -544h-146zM257 169v101h321v-101h-321zM529 0v670h473v-113h-344v-442h344v-115h-473zM605 286v111h358v-111h-358z" />
    <glyph glyph-name="Ccedilla" unicode="&#xc7;" horiz-adv-x="649" 
d="M400 -15q-73 0 -137 26t-113 72.5t-76.5 111t-27.5 140.5t27.5 140.5t76.5 111t113 72.5t137 26q65 0 111 -18t80 -49v-132q-23 19 -49.5 36t-59.5 28.5t-79 11.5q-63 0 -114 -29.5t-81 -81t-30 -116.5t30 -116t81 -81t114 -30q69 0 116 22t84 51v-127q-34 -30 -86 -49.5
t-117 -19.5zM390 -240q-15 0 -39 6t-40 19l7 63q16 -8 33 -15.5t39 -7.5q15 0 26 8t11 21t-10 20t-26 7q-7 0 -15 -2t-18 -7l-19 12l13 118h62l-5 -62q41 3 67.5 -20.5t26.5 -60.5q0 -44 -30.5 -71.5t-82.5 -27.5z" />
    <glyph glyph-name="Egrave" unicode="&#xc8;" horiz-adv-x="641" 
d="M98 0v670h473v-113h-344v-442h344v-115h-473zM174 286v111h358v-111h-358zM288 741l-138 141h130l106 -141h-98z" />
    <glyph glyph-name="Eacute" unicode="&#xc9;" horiz-adv-x="641" 
d="M98 0v670h473v-113h-344v-442h344v-115h-473zM174 286v111h358v-111h-358zM269 741l106 141h130l-138 -141h-98z" />
    <glyph glyph-name="Ecircumflex" unicode="&#xca;" horiz-adv-x="641" 
d="M98 0v670h473v-113h-344v-442h344v-115h-473zM174 286v111h358v-111h-358zM168 739l132 143h68l132 -143h-102l-64 70l-64 -70h-102z" />
    <glyph glyph-name="Edieresis" unicode="&#xcb;" horiz-adv-x="641" 
d="M98 0v670h473v-113h-344v-442h344v-115h-473zM174 286v111h358v-111h-358zM439 751q-29 0 -49 20.5t-20 47.5q0 29 20 48.5t49 19.5q28 0 48 -19.5t20 -48.5q0 -27 -20 -47.5t-48 -20.5zM229 751q-29 0 -49 20.5t-20 47.5q0 29 20 48.5t49 19.5q28 0 48 -19.5t20 -48.5
q0 -27 -20 -47.5t-48 -20.5z" />
    <glyph glyph-name="Igrave" unicode="&#xcc;" horiz-adv-x="551" 
d="M211 0v670h129v-670h-129zM94 0v113h363v-113h-363zM94 557v113h363v-113h-363zM232 741l-138 141h130l106 -141h-98z" />
    <glyph glyph-name="Iacute" unicode="&#xcd;" horiz-adv-x="551" 
d="M211 0v670h129v-670h-129zM94 0v113h363v-113h-363zM94 557v113h363v-113h-363zM213 741l106 141h130l-138 -141h-98z" />
    <glyph glyph-name="Icircumflex" unicode="&#xce;" horiz-adv-x="551" 
d="M211 0v670h129v-670h-129zM94 0v113h363v-113h-363zM94 557v113h363v-113h-363zM112 739l132 143h68l132 -143h-102l-64 70l-64 -70h-102z" />
    <glyph glyph-name="Idieresis" unicode="&#xcf;" horiz-adv-x="551" 
d="M211 0v670h129v-670h-129zM94 0v113h363v-113h-363zM94 557v113h363v-113h-363zM383 751q-29 0 -49 20.5t-20 47.5q0 29 20 48.5t49 19.5q28 0 48 -19.5t20 -48.5q0 -27 -20 -47.5t-48 -20.5zM173 751q-29 0 -49 20.5t-20 47.5q0 29 20 48.5t49 19.5q28 0 48 -19.5
t20 -48.5q0 -27 -20 -47.5t-48 -20.5z" />
    <glyph glyph-name="Eth" unicode="&#xd0;" horiz-adv-x="756" 
d="M18 280v114h301v-114h-301zM361 -12q-46 0 -91.5 3t-88 9.5t-83.5 13.5v646q62 11 125.5 18.5t131.5 7.5q108 0 187.5 -43.5t123.5 -121t44 -180.5q0 -74 -24 -138t-69 -112.5t-110 -75.5t-146 -27zM357 109q69 0 118.5 30t76 82t26.5 116q0 66 -26.5 117.5t-76 81
t-118.5 29.5q-31 0 -65 -3t-65 -8v-434q32 -5 66 -8t64 -3z" />
    <glyph glyph-name="Ntilde" unicode="&#xd1;" horiz-adv-x="776" 
d="M631 -4l-404 419v-415h-129v674h47l404 -425v421h129v-674h-47zM454 745q-26 0 -43.5 6.5t-30.5 16.5t-24 17t-25 7q-16 0 -25 -12.5t-9 -30.5h-79q0 55 33 86.5t81 31.5q26 0 43.5 -7t30 -17t24 -16.5t24.5 -6.5q18 0 26.5 12t8.5 30h78q0 -54 -32.5 -85.5t-80.5 -31.5z
" />
    <glyph glyph-name="Ograve" unicode="&#xd2;" horiz-adv-x="794" 
d="M397 -15q-73 0 -136.5 26t-111.5 72.5t-75.5 111t-27.5 140.5t27.5 140.5t75.5 111t111.5 72.5t136.5 26t136.5 -26t111.5 -72.5t75.5 -111t27.5 -140.5t-27.5 -140.5t-75.5 -111t-111.5 -72.5t-136.5 -26zM397 108q63 0 112.5 30t78 81t28.5 116t-28.5 116.5t-78 81
t-112.5 29.5t-112.5 -29.5t-78 -81t-28.5 -116.5t28.5 -116t78 -81t112.5 -30zM351 741l-138 141h130l106 -141h-98z" />
    <glyph glyph-name="Oacute" unicode="&#xd3;" horiz-adv-x="794" 
d="M397 -15q-73 0 -136.5 26t-111.5 72.5t-75.5 111t-27.5 140.5t27.5 140.5t75.5 111t111.5 72.5t136.5 26t136.5 -26t111.5 -72.5t75.5 -111t27.5 -140.5t-27.5 -140.5t-75.5 -111t-111.5 -72.5t-136.5 -26zM397 108q63 0 112.5 30t78 81t28.5 116t-28.5 116.5t-78 81
t-112.5 29.5t-112.5 -29.5t-78 -81t-28.5 -116.5t28.5 -116t78 -81t112.5 -30zM332 741l106 141h130l-138 -141h-98z" />
    <glyph glyph-name="Ocircumflex" unicode="&#xd4;" horiz-adv-x="794" 
d="M397 -15q-73 0 -136.5 26t-111.5 72.5t-75.5 111t-27.5 140.5t27.5 140.5t75.5 111t111.5 72.5t136.5 26t136.5 -26t111.5 -72.5t75.5 -111t27.5 -140.5t-27.5 -140.5t-75.5 -111t-111.5 -72.5t-136.5 -26zM397 108q63 0 112.5 30t78 81t28.5 116t-28.5 116.5t-78 81
t-112.5 29.5t-112.5 -29.5t-78 -81t-28.5 -116.5t28.5 -116t78 -81t112.5 -30zM231 739l132 143h68l132 -143h-102l-64 70l-64 -70h-102z" />
    <glyph glyph-name="Otilde" unicode="&#xd5;" horiz-adv-x="794" 
d="M397 -15q-73 0 -136.5 26t-111.5 72.5t-75.5 111t-27.5 140.5t27.5 140.5t75.5 111t111.5 72.5t136.5 26t136.5 -26t111.5 -72.5t75.5 -111t27.5 -140.5t-27.5 -140.5t-75.5 -111t-111.5 -72.5t-136.5 -26zM397 108q63 0 112.5 30t78 81t28.5 116t-28.5 116.5t-78 81
t-112.5 29.5t-112.5 -29.5t-78 -81t-28.5 -116.5t28.5 -116t78 -81t112.5 -30zM464 745q-26 0 -43.5 6.5t-30.5 16.5t-24 17t-25 7q-16 0 -25 -12.5t-9 -30.5h-79q0 55 33 86.5t81 31.5q26 0 43.5 -7t30 -17t24 -16.5t24.5 -6.5q18 0 26.5 12t8.5 30h78q0 -54 -32.5 -85.5
t-80.5 -31.5z" />
    <glyph glyph-name="Odieresis" unicode="&#xd6;" horiz-adv-x="794" 
d="M397 -15q-73 0 -136.5 26t-111.5 72.5t-75.5 111t-27.5 140.5t27.5 140.5t75.5 111t111.5 72.5t136.5 26t136.5 -26t111.5 -72.5t75.5 -111t27.5 -140.5t-27.5 -140.5t-75.5 -111t-111.5 -72.5t-136.5 -26zM397 108q63 0 112.5 30t78 81t28.5 116t-28.5 116.5t-78 81
t-112.5 29.5t-112.5 -29.5t-78 -81t-28.5 -116.5t28.5 -116t78 -81t112.5 -30zM502 751q-29 0 -49 20.5t-20 47.5q0 29 20 48.5t49 19.5q28 0 48 -19.5t20 -48.5q0 -27 -20 -47.5t-48 -20.5zM292 751q-29 0 -49 20.5t-20 47.5q0 29 20 48.5t49 19.5q28 0 48 -19.5t20 -48.5
q0 -27 -20 -47.5t-48 -20.5z" />
    <glyph glyph-name="multiply" unicode="&#xd7;" horiz-adv-x="610" 
d="M207 134l-80 80l276 277l80 -80zM403 135l-276 276l81 80l275 -276z" />
    <glyph glyph-name="Oslash" unicode="&#xd8;" horiz-adv-x="794" 
d="M166 -15l-61 48l537 652l64 -48zM397 -15q-73 0 -136.5 26t-111.5 72.5t-75.5 111t-27.5 140.5t27.5 140.5t75.5 111t111.5 72.5t136.5 26t136.5 -26t111.5 -72.5t75.5 -111t27.5 -140.5t-27.5 -140.5t-75.5 -111t-111.5 -72.5t-136.5 -26zM397 108q63 0 112.5 30t78 81
t28.5 116t-28.5 116.5t-78 81t-112.5 29.5t-112.5 -29.5t-78 -81t-28.5 -116.5t28.5 -116t78 -81t112.5 -30z" />
    <glyph glyph-name="Ugrave" unicode="&#xd9;" horiz-adv-x="750" 
d="M375 -14q-80 0 -145 33.5t-103.5 96t-38.5 149.5v407h129v-400q0 -54 20 -90t56 -53.5t82 -17.5t81.5 17.5t56 53.5t20.5 90v400h129v-407q0 -87 -38.5 -149.5t-103 -96t-145.5 -33.5zM329 741l-138 141h130l106 -141h-98z" />
    <glyph glyph-name="Uacute" unicode="&#xda;" horiz-adv-x="750" 
d="M375 -14q-80 0 -145 33.5t-103.5 96t-38.5 149.5v407h129v-400q0 -54 20 -90t56 -53.5t82 -17.5t81.5 17.5t56 53.5t20.5 90v400h129v-407q0 -87 -38.5 -149.5t-103 -96t-145.5 -33.5zM310 741l106 141h130l-138 -141h-98z" />
    <glyph glyph-name="Ucircumflex" unicode="&#xdb;" horiz-adv-x="750" 
d="M375 -14q-80 0 -145 33.5t-103.5 96t-38.5 149.5v407h129v-400q0 -54 20 -90t56 -53.5t82 -17.5t81.5 17.5t56 53.5t20.5 90v400h129v-407q0 -87 -38.5 -149.5t-103 -96t-145.5 -33.5zM209 739l132 143h68l132 -143h-102l-64 70l-64 -70h-102z" />
    <glyph glyph-name="Udieresis" unicode="&#xdc;" horiz-adv-x="750" 
d="M375 -14q-80 0 -145 33.5t-103.5 96t-38.5 149.5v407h129v-400q0 -54 20 -90t56 -53.5t82 -17.5t81.5 17.5t56 53.5t20.5 90v400h129v-407q0 -87 -38.5 -149.5t-103 -96t-145.5 -33.5zM480 751q-29 0 -49 20.5t-20 47.5q0 29 20 48.5t49 19.5q28 0 48 -19.5t20 -48.5
q0 -27 -20 -47.5t-48 -20.5zM270 751q-29 0 -49 20.5t-20 47.5q0 29 20 48.5t49 19.5q28 0 48 -19.5t20 -48.5q0 -27 -20 -47.5t-48 -20.5z" />
    <glyph glyph-name="Yacute" unicode="&#xdd;" horiz-adv-x="675" 
d="M303 197l-291 473h152l173 -294l174 294h152l-297 -473h-63zM271 0v284h133v-284h-133zM273 741l106 141h130l-138 -141h-98z" />
    <glyph glyph-name="Thorn" unicode="&#xde;" horiz-adv-x="650" 
d="M98 0v670h121v-116h163q58 0 109.5 -26.5t84 -74t32.5 -109.5q0 -61 -29.5 -110t-83.5 -77.5t-125 -28.5q-44 0 -80 7t-71 17v-152h-121zM361 237q62 0 91.5 29.5t29.5 77.5q0 46 -39.5 71t-97.5 25h-126v-173q31 -16 71 -23t71 -7z" />
    <glyph glyph-name="germandbls" unicode="&#xdf;" horiz-adv-x="682" 
d="M458 -12q-51 0 -93.5 14t-71.5 32v106q31 -20 73.5 -34.5t90.5 -14.5q35 0 59.5 13t24.5 38q0 17 -15.5 29.5t-34 22t-30.5 13.5l-68 25q-26 11 -48 26t-35.5 38.5t-13.5 56.5q0 31 11 54t26.5 43t26.5 39.5t11 42.5q0 28 -13 48.5t-34.5 32t-45.5 10.5q-24 0 -45.5 -10
t-34.5 -33.5t-13 -64.5v-515h-118v532q0 67 30.5 109.5t78.5 63t98 20.5q41 0 80 -12.5t70 -37.5t50 -61t19 -82q0 -35 -13 -57.5t-30 -39t-30 -32t-13 -35.5q0 -17 12 -28t30 -18t36 -17l55 -25q50 -24 80 -57t30 -80q0 -49 -27.5 -83.5t-71.5 -53t-93 -18.5z" />
    <glyph glyph-name="agrave" unicode="&#xe0;" 
d="M272 -15q-61 0 -113 31t-83.5 90t-31.5 142q0 84 31.5 144t85.5 92t120 32q41 0 83.5 -19.5t71.5 -51.5v59h118v-504h-118v85q-23 -41 -65.5 -70.5t-98.5 -29.5zM300 103q36 0 67 19t50 53.5t19 81.5l-1 77q-27 31 -59.5 49t-71.5 18q-42 0 -73 -22t-47.5 -56.5
t-16.5 -74.5t16.5 -73t46.5 -52.5t70 -19.5zM270 575l-138 141h130l106 -141h-98z" />
    <glyph glyph-name="aacute" unicode="&#xe1;" 
d="M272 -15q-61 0 -113 31t-83.5 90t-31.5 142q0 84 31.5 144t85.5 92t120 32q41 0 83.5 -19.5t71.5 -51.5v59h118v-504h-118v85q-23 -41 -65.5 -70.5t-98.5 -29.5zM300 103q36 0 67 19t50 53.5t19 81.5l-1 77q-27 31 -59.5 49t-71.5 18q-42 0 -73 -22t-47.5 -56.5
t-16.5 -74.5t16.5 -73t46.5 -52.5t70 -19.5zM251 575l106 141h130l-138 -141h-98z" />
    <glyph glyph-name="acircumflex" unicode="&#xe2;" 
d="M272 -15q-61 0 -113 31t-83.5 90t-31.5 142q0 84 31.5 144t85.5 92t120 32q41 0 83.5 -19.5t71.5 -51.5v59h118v-504h-118v85q-23 -41 -65.5 -70.5t-98.5 -29.5zM300 103q36 0 67 19t50 53.5t19 81.5l-1 77q-27 31 -59.5 49t-71.5 18q-42 0 -73 -22t-47.5 -56.5
t-16.5 -74.5t16.5 -73t46.5 -52.5t70 -19.5zM150 573l132 143h68l132 -143h-102l-64 70l-64 -70h-102z" />
    <glyph glyph-name="atilde" unicode="&#xe3;" 
d="M272 -15q-61 0 -113 31t-83.5 90t-31.5 142q0 84 31.5 144t85.5 92t120 32q41 0 83.5 -19.5t71.5 -51.5v59h118v-504h-118v85q-23 -41 -65.5 -70.5t-98.5 -29.5zM300 103q36 0 67 19t50 53.5t19 81.5l-1 77q-27 31 -59.5 49t-71.5 18q-42 0 -73 -22t-47.5 -56.5
t-16.5 -74.5t16.5 -73t46.5 -52.5t70 -19.5zM383 579q-26 0 -43.5 6.5t-30.5 16.5t-24 17t-25 7q-16 0 -25 -12.5t-9 -30.5h-79q0 55 33 86.5t81 31.5q26 0 43.5 -7t30 -17t24 -16.5t24.5 -6.5q18 0 26.5 12t8.5 30h78q0 -54 -32.5 -85.5t-80.5 -31.5z" />
    <glyph glyph-name="adieresis" unicode="&#xe4;" 
d="M272 -15q-61 0 -113 31t-83.5 90t-31.5 142q0 84 31.5 144t85.5 92t120 32q41 0 83.5 -19.5t71.5 -51.5v59h118v-504h-118v85q-23 -41 -65.5 -70.5t-98.5 -29.5zM300 103q36 0 67 19t50 53.5t19 81.5l-1 77q-27 31 -59.5 49t-71.5 18q-42 0 -73 -22t-47.5 -56.5
t-16.5 -74.5t16.5 -73t46.5 -52.5t70 -19.5zM421 585q-29 0 -49 20.5t-20 47.5q0 29 20 48.5t49 19.5q28 0 48 -19.5t20 -48.5q0 -27 -20 -47.5t-48 -20.5zM211 585q-29 0 -49 20.5t-20 47.5q0 29 20 48.5t49 19.5q28 0 48 -19.5t20 -48.5q0 -27 -20 -47.5t-48 -20.5z" />
    <glyph glyph-name="aring" unicode="&#xe5;" 
d="M272 -15q-61 0 -113 31t-83.5 90t-31.5 142q0 84 31.5 144t85.5 92t120 32q41 0 83.5 -19.5t71.5 -51.5v59h118v-504h-118v85q-23 -41 -65.5 -70.5t-98.5 -29.5zM300 103q36 0 67 19t50 53.5t19 81.5l-1 77q-27 31 -59.5 49t-71.5 18q-42 0 -73 -22t-47.5 -56.5
t-16.5 -74.5t16.5 -73t46.5 -52.5t70 -19.5zM316 556q-37 0 -62.5 25t-25.5 61t25.5 61t62.5 25q38 0 63 -25t25 -61t-25 -61t-63 -25zM316 602q16 0 27.5 11.5t11.5 28.5q0 16 -11.5 28t-27.5 12t-28 -12t-12 -28q0 -17 12 -28.5t28 -11.5z" />
    <glyph glyph-name="ae" unicode="&#xe6;" horiz-adv-x="1000" 
d="M739 -15q-56 0 -104.5 19.5t-86 55t-58 83.5t-20.5 104q0 73 33 134t90 98t130 37q75 0 128 -32t81 -88t28 -129v-53h-381v84h267q-3 39 -21.5 64t-46 37t-57.5 12q-41 0 -71 -21t-46.5 -58t-16.5 -85q0 -44 19.5 -79t55 -55t81.5 -20q56 0 100.5 23t72.5 48v-112
q-15 -15 -42 -30.5t-61.5 -26t-73.5 -10.5zM272 -15q-61 0 -113 31t-83.5 90t-31.5 142q0 84 31.5 144t85.5 92t120 32q41 0 83.5 -19.5t71.5 -51.5v59h118v-504h-118v85q-23 -41 -65.5 -70.5t-98.5 -29.5zM300 103q36 0 67 19t50 53.5t19 81.5l-1 77q-27 31 -59.5 49
t-71.5 18q-42 0 -73 -22t-47.5 -56.5t-16.5 -74.5t16.5 -73t46.5 -52.5t70 -19.5z" />
    <glyph glyph-name="ccedilla" unicode="&#xe7;" horiz-adv-x="495" 
d="M308 -15q-57 0 -105 21t-84 58t-55.5 84.5t-19.5 100.5t19.5 101t55.5 85.5t84 59t105 21.5t93.5 -18t55.5 -34v-110q-26 19 -59 32.5t-81 13.5q-41 0 -75 -20t-53.5 -54t-19.5 -77q0 -42 19 -76t52.5 -54t76.5 -20q48 0 81 13.5t59 32.5v-110q-19 -17 -55.5 -33.5
t-93.5 -16.5zM297 -240q-15 0 -39 6t-40 19l7 63q16 -8 33 -15.5t39 -7.5q15 0 26 8t11 21t-10 20t-26 7q-7 0 -15 -2t-18 -7l-19 12l13 118h62l-5 -62q41 3 67.5 -20.5t26.5 -60.5q0 -44 -30.5 -71.5t-82.5 -27.5z" />
    <glyph glyph-name="egrave" unicode="&#xe8;" horiz-adv-x="574" 
d="M313 -15q-56 0 -104.5 19.5t-86 55t-58 83.5t-20.5 104q0 73 33 134t90 98t130 37q75 0 128 -32t81 -88t28 -129v-53h-381v84h267q-3 39 -21.5 64t-46 37t-57.5 12q-41 0 -71 -21t-46.5 -58t-16.5 -85q0 -44 19.5 -79t55 -55t81.5 -20q56 0 100.5 23t72.5 48v-112
q-15 -15 -42 -30.5t-61.5 -26t-73.5 -10.5zM256 575l-138 141h130l106 -141h-98z" />
    <glyph glyph-name="eacute" unicode="&#xe9;" horiz-adv-x="574" 
d="M313 -15q-56 0 -104.5 19.5t-86 55t-58 83.5t-20.5 104q0 73 33 134t90 98t130 37q75 0 128 -32t81 -88t28 -129v-53h-381v84h267q-3 39 -21.5 64t-46 37t-57.5 12q-41 0 -71 -21t-46.5 -58t-16.5 -85q0 -44 19.5 -79t55 -55t81.5 -20q56 0 100.5 23t72.5 48v-112
q-15 -15 -42 -30.5t-61.5 -26t-73.5 -10.5zM237 575l106 141h130l-138 -141h-98z" />
    <glyph glyph-name="ecircumflex" unicode="&#xea;" horiz-adv-x="574" 
d="M313 -15q-56 0 -104.5 19.5t-86 55t-58 83.5t-20.5 104q0 73 33 134t90 98t130 37q75 0 128 -32t81 -88t28 -129v-53h-381v84h267q-3 39 -21.5 64t-46 37t-57.5 12q-41 0 -71 -21t-46.5 -58t-16.5 -85q0 -44 19.5 -79t55 -55t81.5 -20q56 0 100.5 23t72.5 48v-112
q-15 -15 -42 -30.5t-61.5 -26t-73.5 -10.5zM136 573l132 143h68l132 -143h-102l-64 70l-64 -70h-102z" />
    <glyph glyph-name="edieresis" unicode="&#xeb;" horiz-adv-x="574" 
d="M313 -15q-56 0 -104.5 19.5t-86 55t-58 83.5t-20.5 104q0 73 33 134t90 98t130 37q75 0 128 -32t81 -88t28 -129v-53h-381v84h267q-3 39 -21.5 64t-46 37t-57.5 12q-41 0 -71 -21t-46.5 -58t-16.5 -85q0 -44 19.5 -79t55 -55t81.5 -20q56 0 100.5 23t72.5 48v-112
q-15 -15 -42 -30.5t-61.5 -26t-73.5 -10.5zM407 585q-29 0 -49 20.5t-20 47.5q0 29 20 48.5t49 19.5q28 0 48 -19.5t20 -48.5q0 -27 -20 -47.5t-48 -20.5zM197 585q-29 0 -49 20.5t-20 47.5q0 29 20 48.5t49 19.5q28 0 48 -19.5t20 -48.5q0 -27 -20 -47.5t-48 -20.5z" />
    <glyph glyph-name="igrave" unicode="&#xec;" horiz-adv-x="331" 
d="M134 0v504h118v-504h-118zM53 402v102h199v-102h-199zM136 575l-138 141h130l106 -141h-98z" />
    <glyph glyph-name="iacute" unicode="&#xed;" horiz-adv-x="331" 
d="M134 0v504h118v-504h-118zM53 402v102h199v-102h-199zM117 575l106 141h130l-138 -141h-98z" />
    <glyph glyph-name="icircumflex" unicode="&#xee;" horiz-adv-x="331" 
d="M134 0v504h118v-504h-118zM53 402v102h199v-102h-199zM16 573l132 143h68l132 -143h-102l-64 70l-64 -70h-102z" />
    <glyph glyph-name="idieresis" unicode="&#xef;" horiz-adv-x="331" 
d="M134 0v504h118v-504h-118zM53 402v102h199v-102h-199zM288 585q-29 0 -49 20.5t-20 47.5q0 29 20 48.5t49 19.5q28 0 48 -19.5t20 -48.5q0 -27 -20 -47.5t-48 -20.5zM78 585q-29 0 -49 20.5t-20 47.5q0 29 20 48.5t49 19.5q28 0 48 -19.5t20 -48.5q0 -27 -20 -47.5
t-48 -20.5z" />
    <glyph glyph-name="eth" unicode="&#xf0;" horiz-adv-x="613" 
d="M308 -15q-74 0 -134 35t-95 95t-35 134t35 132t94 91.5t131 33.5q39 0 77.5 -19.5t72.5 -59.5q-11 32 -32 64t-48 61.5t-55.5 54.5t-52.5 42l63 67q78 -61 132 -128.5t81 -143.5t27 -162q0 -88 -34.5 -155t-93.5 -104.5t-133 -37.5zM313 99q40 0 72.5 18.5t51.5 52.5
t19 80q0 47 -19 81t-51.5 52.5t-72.5 18.5q-39 0 -72 -18.5t-52.5 -52.5t-19.5 -81q0 -46 19.5 -80t52.5 -52.5t72 -18.5zM288 518l-30 58l239 116l30 -60z" />
    <glyph glyph-name="ntilde" unicode="&#xf1;" horiz-adv-x="602" 
d="M416 0l-1 293q0 55 -25.5 81.5t-71.5 26.5q-35 0 -66 -23.5t-55 -55.5v108q16 21 39 40.5t52.5 32.5t63.5 13q52 0 93 -23t65 -69t24 -115v-309h-118zM79 0v504h118v-504h-118zM384 581q-26 0 -43.5 6.5t-30.5 16.5t-24 17t-25 7q-16 0 -25 -12.5t-9 -30.5h-79
q0 55 33 86.5t81 31.5q26 0 43.5 -7t30 -17t24 -16.5t24.5 -6.5q18 0 26.5 12t8.5 30h78q0 -54 -32.5 -85.5t-80.5 -31.5z" />
    <glyph glyph-name="ograve" unicode="&#xf2;" horiz-adv-x="625" 
d="M313 -15q-56 0 -104.5 20.5t-85.5 56.5t-58 84.5t-21 103.5q0 56 21 104t58 84.5t85.5 57t104.5 20.5q55 0 103.5 -20.5t86 -57t58 -84.5t20.5 -104q0 -55 -20.5 -103.5t-58 -84.5t-86 -56.5t-103.5 -20.5zM313 99q40 0 72.5 18.5t51.5 52.5t19 80q0 47 -19 81
t-51.5 52.5t-72.5 18.5q-39 0 -72 -18.5t-52.5 -52.5t-19.5 -81q0 -46 19.5 -80t52.5 -52.5t72 -18.5zM267 575l-138 141h130l106 -141h-98z" />
    <glyph glyph-name="oacute" unicode="&#xf3;" horiz-adv-x="625" 
d="M313 -15q-56 0 -104.5 20.5t-85.5 56.5t-58 84.5t-21 103.5q0 56 21 104t58 84.5t85.5 57t104.5 20.5q55 0 103.5 -20.5t86 -57t58 -84.5t20.5 -104q0 -55 -20.5 -103.5t-58 -84.5t-86 -56.5t-103.5 -20.5zM313 99q40 0 72.5 18.5t51.5 52.5t19 80q0 47 -19 81
t-51.5 52.5t-72.5 18.5q-39 0 -72 -18.5t-52.5 -52.5t-19.5 -81q0 -46 19.5 -80t52.5 -52.5t72 -18.5zM248 575l106 141h130l-138 -141h-98z" />
    <glyph glyph-name="ocircumflex" unicode="&#xf4;" horiz-adv-x="625" 
d="M313 -15q-56 0 -104.5 20.5t-85.5 56.5t-58 84.5t-21 103.5q0 56 21 104t58 84.5t85.5 57t104.5 20.5q55 0 103.5 -20.5t86 -57t58 -84.5t20.5 -104q0 -55 -20.5 -103.5t-58 -84.5t-86 -56.5t-103.5 -20.5zM313 99q40 0 72.5 18.5t51.5 52.5t19 80q0 47 -19 81
t-51.5 52.5t-72.5 18.5q-39 0 -72 -18.5t-52.5 -52.5t-19.5 -81q0 -46 19.5 -80t52.5 -52.5t72 -18.5zM147 573l132 143h68l132 -143h-102l-64 70l-64 -70h-102z" />
    <glyph glyph-name="otilde" unicode="&#xf5;" horiz-adv-x="625" 
d="M313 -15q-56 0 -104.5 20.5t-85.5 56.5t-58 84.5t-21 103.5q0 56 21 104t58 84.5t85.5 57t104.5 20.5q55 0 103.5 -20.5t86 -57t58 -84.5t20.5 -104q0 -55 -20.5 -103.5t-58 -84.5t-86 -56.5t-103.5 -20.5zM313 99q40 0 72.5 18.5t51.5 52.5t19 80q0 47 -19 81
t-51.5 52.5t-72.5 18.5q-39 0 -72 -18.5t-52.5 -52.5t-19.5 -81q0 -46 19.5 -80t52.5 -52.5t72 -18.5zM380 579q-26 0 -43.5 6.5t-30.5 16.5t-24 17t-25 7q-16 0 -25 -12.5t-9 -30.5h-79q0 55 33 86.5t81 31.5q26 0 43.5 -7t30 -17t24 -16.5t24.5 -6.5q18 0 26.5 12t8.5 30
h78q0 -54 -32.5 -85.5t-80.5 -31.5z" />
    <glyph glyph-name="odieresis" unicode="&#xf6;" horiz-adv-x="625" 
d="M313 -15q-56 0 -104.5 20.5t-85.5 56.5t-58 84.5t-21 103.5q0 56 21 104t58 84.5t85.5 57t104.5 20.5q55 0 103.5 -20.5t86 -57t58 -84.5t20.5 -104q0 -55 -20.5 -103.5t-58 -84.5t-86 -56.5t-103.5 -20.5zM313 99q40 0 72.5 18.5t51.5 52.5t19 80q0 47 -19 81
t-51.5 52.5t-72.5 18.5q-39 0 -72 -18.5t-52.5 -52.5t-19.5 -81q0 -46 19.5 -80t52.5 -52.5t72 -18.5zM418 585q-29 0 -49 20.5t-20 47.5q0 29 20 48.5t49 19.5q28 0 48 -19.5t20 -48.5q0 -27 -20 -47.5t-48 -20.5zM208 585q-29 0 -49 20.5t-20 47.5q0 29 20 48.5t49 19.5
q28 0 48 -19.5t20 -48.5q0 -27 -20 -47.5t-48 -20.5z" />
    <glyph glyph-name="divide" unicode="&#xf7;" horiz-adv-x="610" 
d="M110 256v114h391v-114h-391zM306 50q-30 0 -51 21.5t-21 50.5q0 30 21 51t51 21t51 -21t21 -51q0 -29 -21 -50.5t-51 -21.5zM306 430q-30 0 -51 21.5t-21 50.5q0 30 21 51t51 21t51 -21t21 -51q0 -29 -21 -50.5t-51 -21.5z" />
    <glyph glyph-name="oslash" unicode="&#xf8;" horiz-adv-x="607" 
d="M104 -19l-57 48l456 488l60 -48zM313 -15q-56 0 -104.5 20.5t-85.5 56.5t-58 84.5t-21 103.5q0 56 21 104t58 84.5t85.5 57t104.5 20.5q55 0 103.5 -20.5t86 -57t58 -84.5t20.5 -104q0 -55 -20.5 -103.5t-58 -84.5t-86 -56.5t-103.5 -20.5zM313 99q40 0 72.5 18.5
t51.5 52.5t19 80q0 47 -19 81t-51.5 52.5t-72.5 18.5q-39 0 -72 -18.5t-52.5 -52.5t-19.5 -81q0 -46 19.5 -80t52.5 -52.5t72 -18.5z" />
    <glyph glyph-name="ugrave" unicode="&#xf9;" horiz-adv-x="586" 
d="M293 -12q-65 0 -115.5 26t-80 74.5t-29.5 115.5v300h120v-282q0 -59 30 -89.5t75 -30.5t74.5 30.5t29.5 89.5v282h121v-300q0 -67 -29.5 -115.5t-80.5 -74.5t-115 -26zM253 575l-138 141h130l106 -141h-98z" />
    <glyph glyph-name="uacute" unicode="&#xfa;" horiz-adv-x="586" 
d="M293 -12q-65 0 -115.5 26t-80 74.5t-29.5 115.5v300h120v-282q0 -59 30 -89.5t75 -30.5t74.5 30.5t29.5 89.5v282h121v-300q0 -67 -29.5 -115.5t-80.5 -74.5t-115 -26zM234 575l106 141h130l-138 -141h-98z" />
    <glyph glyph-name="ucircumflex" unicode="&#xfb;" horiz-adv-x="586" 
d="M293 -12q-65 0 -115.5 26t-80 74.5t-29.5 115.5v300h120v-282q0 -59 30 -89.5t75 -30.5t74.5 30.5t29.5 89.5v282h121v-300q0 -67 -29.5 -115.5t-80.5 -74.5t-115 -26zM133 573l132 143h68l132 -143h-102l-64 70l-64 -70h-102z" />
    <glyph glyph-name="udieresis" unicode="&#xfc;" horiz-adv-x="586" 
d="M293 -12q-65 0 -115.5 26t-80 74.5t-29.5 115.5v300h120v-282q0 -59 30 -89.5t75 -30.5t74.5 30.5t29.5 89.5v282h121v-300q0 -67 -29.5 -115.5t-80.5 -74.5t-115 -26zM404 585q-29 0 -49 20.5t-20 47.5q0 29 20 48.5t49 19.5q28 0 48 -19.5t20 -48.5q0 -27 -20 -47.5
t-48 -20.5zM194 585q-29 0 -49 20.5t-20 47.5q0 29 20 48.5t49 19.5q28 0 48 -19.5t20 -48.5q0 -27 -20 -47.5t-48 -20.5z" />
    <glyph glyph-name="yacute" unicode="&#xfd;" horiz-adv-x="591" 
d="M79 -240l196 358l170 386h135l-367 -744h-134zM243 6l-232 498h138l185 -410zM229 575l106 141h130l-138 -141h-98z" />
    <glyph glyph-name="thorn" unicode="&#xfe;" 
d="M79 -228v948h118v-301q23 41 65.5 69t98.5 28q62 0 113.5 -30.5t83 -88.5t31.5 -141t-31.5 -143.5t-85.5 -92.5t-120 -32q-42 0 -84 19.5t-71 51.5v-287h-118zM329 104q42 0 72.5 21.5t47.5 56.5t17 74q0 41 -16.5 72.5t-46.5 50.5t-70 19q-36 0 -67 -18t-50 -52t-19 -81
l1 -77q28 -31 60 -48.5t71 -17.5z" />
    <glyph glyph-name="ydieresis" unicode="&#xff;" horiz-adv-x="591" 
d="M79 -240l196 358l170 386h135l-367 -744h-134zM243 6l-232 498h138l185 -410zM399 585q-29 0 -49 20.5t-20 47.5q0 29 20 48.5t49 19.5q28 0 48 -19.5t20 -48.5q0 -27 -20 -47.5t-48 -20.5zM189 585q-29 0 -49 20.5t-20 47.5q0 29 20 48.5t49 19.5q28 0 48 -19.5
t20 -48.5q0 -27 -20 -47.5t-48 -20.5z" />
    <glyph glyph-name="Amacron" unicode="&#x100;" horiz-adv-x="707" 
d="M12 0l309 674h65l309 -674h-152l-188 462l-191 -462h-152zM167 136v107h375v-107h-375zM174 789v92h358v-92h-358z" />
    <glyph glyph-name="amacron" unicode="&#x101;" 
d="M272 -15q-61 0 -113 31t-83.5 90t-31.5 142q0 84 31.5 144t85.5 92t120 32q41 0 83.5 -19.5t71.5 -51.5v59h118v-504h-118v85q-23 -41 -65.5 -70.5t-98.5 -29.5zM300 103q36 0 67 19t50 53.5t19 81.5l-1 77q-27 31 -59.5 49t-71.5 18q-42 0 -73 -22t-47.5 -56.5
t-16.5 -74.5t16.5 -73t46.5 -52.5t70 -19.5zM137 623v92h358v-92h-358z" />
    <glyph glyph-name="Abreve" unicode="&#x102;" horiz-adv-x="707" 
d="M12 0l309 674h65l309 -674h-152l-188 462l-191 -462h-152zM167 136v107h375v-107h-375zM353 732q-67 0 -113.5 40.5t-48.5 109.5h84q5 -30 24.5 -48t53.5 -18t54 19.5t24 46.5h84q-2 -69 -48 -109.5t-114 -40.5z" />
    <glyph glyph-name="abreve" unicode="&#x103;" 
d="M272 -15q-61 0 -113 31t-83.5 90t-31.5 142q0 84 31.5 144t85.5 92t120 32q41 0 83.5 -19.5t71.5 -51.5v59h118v-504h-118v85q-23 -41 -65.5 -70.5t-98.5 -29.5zM300 103q36 0 67 19t50 53.5t19 81.5l-1 77q-27 31 -59.5 49t-71.5 18q-42 0 -73 -22t-47.5 -56.5
t-16.5 -74.5t16.5 -73t46.5 -52.5t70 -19.5zM316 566q-67 0 -113.5 40.5t-48.5 109.5h84q5 -30 24.5 -48t53.5 -18t54 19.5t24 46.5h84q-2 -69 -48 -109.5t-114 -40.5z" />
    <glyph glyph-name="Aogonek" unicode="&#x104;" horiz-adv-x="707" 
d="M12 0l309 674h65l309 -674h-152l-188 462l-191 -462h-152zM167 136v107h375v-107h-375zM562 -225q-30 0 -57.5 11t-45.5 33t-18 55q0 35 19 61t45.5 42.5t48.5 23.5h104q-25 -8 -50 -22.5t-40.5 -31.5t-15.5 -35q0 -19 12 -32t34 -13q17 0 30 5.5t24 12.5v-86
q-10 -5 -33.5 -14.5t-56.5 -9.5z" />
    <glyph glyph-name="aogonek" unicode="&#x105;" 
d="M272 -15q-61 0 -113 31t-83.5 90t-31.5 142q0 84 31.5 144t85.5 92t120 32q41 0 83.5 -19.5t71.5 -51.5v59h118v-504h-118v85q-23 -41 -65.5 -70.5t-98.5 -29.5zM300 103q36 0 67 19t50 53.5t19 81.5l-1 77q-27 31 -59.5 49t-71.5 18q-42 0 -73 -22t-47.5 -56.5
t-16.5 -74.5t16.5 -73t46.5 -52.5t70 -19.5zM446 -225q-30 0 -57.5 11t-45.5 33t-18 55q0 35 19 61t45.5 42.5t48.5 23.5h104q-25 -8 -50 -22.5t-40.5 -31.5t-15.5 -35q0 -19 12 -32t34 -13q17 0 30 5.5t24 12.5v-86q-10 -5 -33.5 -14.5t-56.5 -9.5z" />
    <glyph glyph-name="Cacute" unicode="&#x106;" horiz-adv-x="649" 
d="M400 -15q-73 0 -137 26t-113 72.5t-76.5 111t-27.5 140.5t27.5 140.5t76.5 111t113 72.5t137 26q65 0 111 -18t80 -49v-132q-23 19 -49.5 36t-59.5 28.5t-79 11.5q-63 0 -114 -29.5t-81 -81t-30 -116.5t30 -116t81 -81t114 -30q69 0 116 22t84 51v-127q-34 -30 -86 -49.5
t-117 -19.5zM336 741l106 141h130l-138 -141h-98z" />
    <glyph glyph-name="cacute" unicode="&#x107;" horiz-adv-x="495" 
d="M308 -15q-57 0 -105 21t-84 58t-55.5 84.5t-19.5 100.5t19.5 101t55.5 85.5t84 59t105 21.5t93.5 -18t55.5 -34v-110q-26 19 -59 32.5t-81 13.5q-41 0 -75 -20t-53.5 -54t-19.5 -77q0 -42 19 -76t52.5 -54t76.5 -20q48 0 81 13.5t59 32.5v-110q-19 -17 -55.5 -33.5
t-93.5 -16.5zM235 575l106 141h130l-138 -141h-98z" />
    <glyph glyph-name="Cdotaccent" unicode="&#x10a;" horiz-adv-x="649" 
d="M400 -15q-73 0 -137 26t-113 72.5t-76.5 111t-27.5 140.5t27.5 140.5t76.5 111t113 72.5t137 26q65 0 111 -18t80 -49v-132q-23 19 -49.5 36t-59.5 28.5t-79 11.5q-63 0 -114 -29.5t-81 -81t-30 -116.5t30 -116t81 -81t114 -30q69 0 116 22t84 51v-127q-34 -30 -86 -49.5
t-117 -19.5zM400 746q-28 0 -48 20t-20 48t20 48t48 20q29 0 49 -20t20 -48t-20 -48t-49 -20z" />
    <glyph glyph-name="cdotaccent" unicode="&#x10b;" horiz-adv-x="495" 
d="M308 -15q-57 0 -105 21t-84 58t-55.5 84.5t-19.5 100.5t19.5 101t55.5 85.5t84 59t105 21.5t93.5 -18t55.5 -34v-110q-26 19 -59 32.5t-81 13.5q-41 0 -75 -20t-53.5 -54t-19.5 -77q0 -42 19 -76t52.5 -54t76.5 -20q48 0 81 13.5t59 32.5v-110q-19 -17 -55.5 -33.5
t-93.5 -16.5zM300 580q-28 0 -48 20t-20 48t20 48t48 20q29 0 49 -20t20 -48t-20 -48t-49 -20z" />
    <glyph glyph-name="Ccaron" unicode="&#x10c;" horiz-adv-x="649" 
d="M400 -15q-73 0 -137 26t-113 72.5t-76.5 111t-27.5 140.5t27.5 140.5t76.5 111t113 72.5t137 26q65 0 111 -18t80 -49v-132q-23 19 -49.5 36t-59.5 28.5t-79 11.5q-63 0 -114 -29.5t-81 -81t-30 -116.5t30 -116t81 -81t114 -30q69 0 116 22t84 51v-127q-34 -30 -86 -49.5
t-117 -19.5zM367 739l-132 143h102l64 -70l64 70h102l-132 -143h-68z" />
    <glyph glyph-name="ccaron" unicode="&#x10d;" horiz-adv-x="495" 
d="M308 -15q-57 0 -105 21t-84 58t-55.5 84.5t-19.5 100.5t19.5 101t55.5 85.5t84 59t105 21.5t93.5 -18t55.5 -34v-110q-26 19 -59 32.5t-81 13.5q-41 0 -75 -20t-53.5 -54t-19.5 -77q0 -42 19 -76t52.5 -54t76.5 -20q48 0 81 13.5t59 32.5v-110q-19 -17 -55.5 -33.5
t-93.5 -16.5zM266 573l-132 143h102l64 -70l64 70h102l-132 -143h-68z" />
    <glyph glyph-name="Dcaron" unicode="&#x10e;" horiz-adv-x="756" 
d="M361 -12q-46 0 -91.5 3t-88 9.5t-83.5 13.5v646q62 11 125.5 18.5t131.5 7.5q108 0 187.5 -43.5t123.5 -121t44 -180.5q0 -74 -24 -138t-69 -112.5t-110 -75.5t-146 -27zM357 109q69 0 118.5 30t76 82t26.5 116q0 66 -26.5 117.5t-76 81t-118.5 29.5q-31 0 -65 -3t-65 -8
v-434q32 -5 66 -8t64 -3zM314 739l-132 143h102l64 -70l64 70h102l-132 -143h-68z" />
    <glyph glyph-name="dcaron" unicode="&#x10f;" 
d="M272 -15q-61 0 -113 31t-83.5 90t-31.5 142q0 84 31.5 144t85.5 92t120 32q41 0 83.5 -19.5t71.5 -51.5v275h118v-720h-118v85q-23 -41 -65.5 -70.5t-98.5 -29.5zM300 103q36 0 67 19t50 53.5t19 81.5l-1 77q-27 31 -59.5 48.5t-71.5 17.5q-42 0 -73 -21.5t-47.5 -56
t-16.5 -74.5t16.5 -73t46.5 -52.5t70 -19.5zM606 531l10 188h109l-30 -188h-89z" />
    <glyph glyph-name="Dcroat" unicode="&#x110;" horiz-adv-x="756" 
d="M18 280v114h301v-114h-301zM361 -12q-46 0 -91.5 3t-88 9.5t-83.5 13.5v646q62 11 125.5 18.5t131.5 7.5q108 0 187.5 -43.5t123.5 -121t44 -180.5q0 -74 -24 -138t-69 -112.5t-110 -75.5t-146 -27zM357 109q69 0 118.5 30t76 82t26.5 116q0 66 -26.5 117.5t-76 81
t-118.5 29.5q-31 0 -65 -3t-65 -8v-434q32 -5 66 -8t64 -3z" />
    <glyph glyph-name="dcroat" unicode="&#x111;" horiz-adv-x="625" 
d="M308 553v92h311v-92h-311zM272 -15q-61 0 -113 31t-83.5 90t-31.5 142q0 84 31.5 144t85.5 92t120 32q41 0 83.5 -19.5t71.5 -51.5v275h118v-720h-118v85q-23 -41 -65.5 -70.5t-98.5 -29.5zM300 103q36 0 67 19t50 53.5t19 81.5l-1 77q-27 31 -59.5 48.5t-71.5 17.5
q-42 0 -73 -21.5t-47.5 -56t-16.5 -74.5t16.5 -73t46.5 -52.5t70 -19.5z" />
    <glyph glyph-name="Emacron" unicode="&#x112;" horiz-adv-x="641" 
d="M98 0v670h473v-113h-344v-442h344v-115h-473zM174 286v111h358v-111h-358zM155 789v92h358v-92h-358z" />
    <glyph glyph-name="emacron" unicode="&#x113;" horiz-adv-x="574" 
d="M313 -15q-56 0 -104.5 19.5t-86 55t-58 83.5t-20.5 104q0 73 33 134t90 98t130 37q75 0 128 -32t81 -88t28 -129v-53h-381v84h267q-3 39 -21.5 64t-46 37t-57.5 12q-41 0 -71 -21t-46.5 -58t-16.5 -85q0 -44 19.5 -79t55 -55t81.5 -20q56 0 100.5 23t72.5 48v-112
q-15 -15 -42 -30.5t-61.5 -26t-73.5 -10.5zM123 623v92h358v-92h-358z" />
    <glyph glyph-name="Edotaccent" unicode="&#x116;" horiz-adv-x="641" 
d="M98 0v670h473v-113h-344v-442h344v-115h-473zM174 286v111h358v-111h-358zM333 746q-28 0 -48 20t-20 48t20 48t48 20q29 0 49 -20t20 -48t-20 -48t-49 -20z" />
    <glyph glyph-name="edotaccent" unicode="&#x117;" horiz-adv-x="574" 
d="M313 -15q-56 0 -104.5 19.5t-86 55t-58 83.5t-20.5 104q0 73 33 134t90 98t130 37q75 0 128 -32t81 -88t28 -129v-53h-381v84h267q-3 39 -21.5 64t-46 37t-57.5 12q-41 0 -71 -21t-46.5 -58t-16.5 -85q0 -44 19.5 -79t55 -55t81.5 -20q56 0 100.5 23t72.5 48v-112
q-15 -15 -42 -30.5t-61.5 -26t-73.5 -10.5zM302 580q-28 0 -48 20t-20 48t20 48t48 20q29 0 49 -20t20 -48t-20 -48t-49 -20z" />
    <glyph glyph-name="Eogonek" unicode="&#x118;" horiz-adv-x="641" 
d="M98 0v670h473v-113h-344v-442h344v-115h-473zM174 286v111h358v-111h-358zM475 -225q-30 0 -57.5 11t-45.5 33t-18 55q0 35 19 61t45.5 42.5t48.5 23.5h104q-25 -8 -50 -22.5t-40.5 -31.5t-15.5 -35q0 -19 12 -32t34 -13q17 0 30 5.5t24 12.5v-86q-10 -5 -33.5 -14.5
t-56.5 -9.5z" />
    <glyph glyph-name="eogonek" unicode="&#x119;" horiz-adv-x="574" 
d="M313 -15q-56 0 -104.5 19.5t-86 55t-58 83.5t-20.5 104q0 73 33 134t90 98t130 37q75 0 128 -32t81 -88t28 -129v-53h-381v84h267q-3 39 -21.5 64t-46 37t-57.5 12q-41 0 -71 -21t-46.5 -58t-16.5 -85q0 -44 19.5 -79t55 -55t81.5 -20q56 0 100.5 23t72.5 48v-112
q-15 -15 -42 -30.5t-61.5 -26t-73.5 -10.5zM321 -220q-30 0 -57.5 11t-45.5 33t-18 55q0 35 19 61t45.5 42.5t48.5 23.5h104q-25 -8 -50 -22.5t-40.5 -31.5t-15.5 -35q0 -19 12 -32t34 -13q17 0 30 5.5t24 12.5v-86q-10 -5 -33.5 -14.5t-56.5 -9.5z" />
    <glyph glyph-name="Ecaron" unicode="&#x11a;" horiz-adv-x="641" 
d="M98 0v670h473v-113h-344v-442h344v-115h-473zM174 286v111h358v-111h-358zM300 739l-132 143h102l64 -70l64 70h102l-132 -143h-68z" />
    <glyph glyph-name="ecaron" unicode="&#x11b;" horiz-adv-x="574" 
d="M313 -15q-56 0 -104.5 19.5t-86 55t-58 83.5t-20.5 104q0 73 33 134t90 98t130 37q75 0 128 -32t81 -88t28 -129v-53h-381v84h267q-3 39 -21.5 64t-46 37t-57.5 12q-41 0 -71 -21t-46.5 -58t-16.5 -85q0 -44 19.5 -79t55 -55t81.5 -20q56 0 100.5 23t72.5 48v-112
q-15 -15 -42 -30.5t-61.5 -26t-73.5 -10.5zM268 573l-132 143h102l64 -70l64 70h102l-132 -143h-68z" />
    <glyph glyph-name="Gbreve" unicode="&#x11e;" horiz-adv-x="699" 
d="M400 -15q-73 0 -137 26t-113 72.5t-76.5 111t-27.5 140.5t27.5 140.5t76.5 111t113 72.5t137 26q65 0 111 -18t80 -49v-132q-23 19 -49.5 36t-59.5 28.5t-79 11.5q-63 0 -114 -29.5t-81 -81t-30 -116.5t30 -116t81 -81t114 -30q40 0 66.5 8t43 19.5t26.5 20.5l114 -66
q-27 -29 -65 -52.5t-85.5 -38t-102.5 -14.5zM530 30v237h-119v96h242v-273zM384 732q-67 0 -113.5 40.5t-48.5 109.5h84q5 -30 24.5 -48t53.5 -18t54 19.5t24 46.5h84q-2 -69 -48 -109.5t-114 -40.5z" />
    <glyph glyph-name="gbreve" unicode="&#x11f;" 
d="M280 -255q-45 0 -78.5 9.5t-59.5 24.5t-50 32v114q22 -14 47 -30t58.5 -28t75.5 -12q46 0 83 17t58.5 49t21.5 73v91q-23 -41 -65.5 -70.5t-98.5 -29.5q-61 0 -113 31t-83.5 90t-31.5 142q0 84 31.5 144t85.5 92t120 32q41 0 83.5 -19.5t71.5 -51.5v59h118v-492
q0 -86 -37.5 -145.5t-100 -90.5t-136.5 -31zM300 103q36 0 66.5 19t49.5 53.5t19 81.5v77q-27 31 -59.5 48.5t-71.5 17.5q-42 0 -73 -21.5t-47.5 -56t-16.5 -74.5t16.5 -73t46.5 -52.5t70 -19.5zM315 566q-67 0 -113.5 40.5t-48.5 109.5h84q5 -30 24.5 -48t53.5 -18t54 19.5
t24 46.5h84q-2 -69 -48 -109.5t-114 -40.5z" />
    <glyph glyph-name="Gdotaccent" unicode="&#x120;" horiz-adv-x="699" 
d="M400 -15q-73 0 -137 26t-113 72.5t-76.5 111t-27.5 140.5t27.5 140.5t76.5 111t113 72.5t137 26q65 0 111 -18t80 -49v-132q-23 19 -49.5 36t-59.5 28.5t-79 11.5q-63 0 -114 -29.5t-81 -81t-30 -116.5t30 -116t81 -81t114 -30q40 0 66.5 8t43 19.5t26.5 20.5l114 -66
q-27 -29 -65 -52.5t-85.5 -38t-102.5 -14.5zM530 30v237h-119v96h242v-273zM383 746q-28 0 -48 20t-20 48t20 48t48 20q29 0 49 -20t20 -48t-20 -48t-49 -20z" />
    <glyph glyph-name="gdotaccent" unicode="&#x121;" 
d="M280 -255q-45 0 -78.5 9.5t-59.5 24.5t-50 32v114q22 -14 47 -30t58.5 -28t75.5 -12q46 0 83 17t58.5 49t21.5 73v91q-23 -41 -65.5 -70.5t-98.5 -29.5q-61 0 -113 31t-83.5 90t-31.5 142q0 84 31.5 144t85.5 92t120 32q41 0 83.5 -19.5t71.5 -51.5v59h118v-492
q0 -86 -37.5 -145.5t-100 -90.5t-136.5 -31zM300 103q36 0 66.5 19t49.5 53.5t19 81.5v77q-27 31 -59.5 48.5t-71.5 17.5q-42 0 -73 -21.5t-47.5 -56t-16.5 -74.5t16.5 -73t46.5 -52.5t70 -19.5zM314 580q-28 0 -48 20t-20 48t20 48t48 20q29 0 49 -20t20 -48t-20 -48
t-49 -20z" />
    <glyph glyph-name="uni0122" unicode="&#x122;" horiz-adv-x="699" 
d="M400 -15q-73 0 -137 26t-113 72.5t-76.5 111t-27.5 140.5t27.5 140.5t76.5 111t113 72.5t137 26q65 0 111 -18t80 -49v-132q-23 19 -49.5 36t-59.5 28.5t-79 11.5q-63 0 -114 -29.5t-81 -81t-30 -116.5t30 -116t81 -81t114 -30q40 0 66.5 8t43 19.5t26.5 20.5l114 -66
q-27 -29 -65 -52.5t-85.5 -38t-102.5 -14.5zM530 30v237h-119v96h242v-273zM383 -225q-19 0 -33.5 5.5t-24.5 12.5v65q22 -17 51 -17q20 0 32.5 11t12.5 29q0 17 -13.5 27t-29.5 10v60q43 0 75.5 -25t32.5 -70q0 -35 -15.5 -59.5t-39 -36.5t-48.5 -12z" />
    <glyph glyph-name="uni0123" unicode="&#x123;" 
d="M280 -255q-45 0 -78.5 9.5t-59.5 24.5t-50 32v114q22 -14 47 -30t58.5 -28t75.5 -12q46 0 83 17t58.5 49t21.5 73v91q-23 -41 -65.5 -70.5t-98.5 -29.5q-61 0 -113 31t-83.5 90t-31.5 142q0 84 31.5 144t85.5 92t120 32q41 0 83.5 -19.5t71.5 -51.5v59h118v-492
q0 -86 -37.5 -145.5t-100 -90.5t-136.5 -31zM300 103q36 0 66.5 19t49.5 53.5t19 81.5v77q-27 31 -59.5 48.5t-71.5 17.5q-42 0 -73 -21.5t-47.5 -56t-16.5 -74.5t16.5 -73t46.5 -52.5t70 -19.5zM345 729q19 0 33.5 -5.5t24.5 -12.5v-65q-22 17 -51 17q-20 0 -32.5 -11
t-12.5 -29q0 -17 13.5 -27t29.5 -10v-60q-43 0 -75.5 25t-32.5 70q0 36 15.5 60t39.5 36t48 12z" />
    <glyph glyph-name="Hbar" unicode="&#x126;" horiz-adv-x="779" 
d="M42 482v92h694v-92h-694zM552 0v670h129v-670h-129zM98 0v670h129v-670h-129zM211 278v117h369v-117h-369z" />
    <glyph glyph-name="hbar" unicode="&#x127;" horiz-adv-x="602" 
d="M21 568v78h345v-78h-345zM416 0l-1 293q0 55 -25.5 81.5t-71.5 26.5q-35 0 -66 -23.5t-55 -55.5v108q16 21 39 40.5t52.5 32.5t63.5 13q52 0 93 -23t65 -69t24 -115v-309h-118zM79 0v720h118v-720h-118z" />
    <glyph glyph-name="Imacron" unicode="&#x12a;" horiz-adv-x="551" 
d="M211 0v670h129v-670h-129zM94 0v113h363v-113h-363zM94 557v113h363v-113h-363zM99 789v92h358v-92h-358z" />
    <glyph glyph-name="imacron" unicode="&#x12b;" horiz-adv-x="331" 
d="M134 0v504h118v-504h-118zM53 402v102h199v-102h-199zM3 623v92h358v-92h-358z" />
    <glyph glyph-name="Iogonek" unicode="&#x12e;" horiz-adv-x="551" 
d="M211 0v670h129v-670h-129zM94 0v113h363v-113h-363zM94 557v113h363v-113h-363zM240 -225q-30 0 -57.5 11t-45.5 33t-18 55q0 35 19 61t45.5 42.5t48.5 23.5h104q-25 -8 -50 -22.5t-40.5 -31.5t-15.5 -35q0 -19 12 -32t34 -13q17 0 30 5.5t24 12.5v-86
q-10 -5 -33.5 -14.5t-56.5 -9.5z" />
    <glyph glyph-name="iogonek" unicode="&#x12f;" horiz-adv-x="321" 
d="M142 -226q-30 0 -57.5 11t-45.5 33t-18 55q0 35 19 61t45.5 42.5t48.5 23.5h104q-25 -8 -50 -22.5t-40.5 -31.5t-15.5 -35q0 -19 12 -32t34 -13q17 0 30 5.5t24 12.5v-86q-10 -5 -33.5 -14.5t-56.5 -9.5zM167 598q-34 0 -58.5 24.5t-24.5 57.5q0 34 24.5 58t58.5 24
q23 0 42 -11t30.5 -30t11.5 -41q0 -21 -11.5 -40.5t-30.5 -30.5t-42 -11zM121 0v504h118v-504h-118zM40 402v102h199v-102h-199z" />
    <glyph glyph-name="Idotaccent" unicode="&#x130;" horiz-adv-x="551" 
d="M211 0v670h129v-670h-129zM94 0v113h363v-113h-363zM94 557v113h363v-113h-363zM278 746q-28 0 -48 20t-20 48t20 48t48 20q29 0 49 -20t20 -48t-20 -48t-49 -20z" />
    <glyph glyph-name="dotlessi" unicode="&#x131;" horiz-adv-x="331" 
d="M134 0v504h118v-504h-118zM53 402v102h199v-102h-199z" />
    <glyph glyph-name="IJ" unicode="&#x132;" horiz-adv-x="889" 
d="M211 0v670h129v-670h-129zM94 0v113h363v-113h-363zM94 557v113h363v-113h-363zM557 -255l-51 117q161 49 161 169v641h129v-633q0 -84 -31 -142.5t-84.5 -94.5t-123.5 -57z" />
    <glyph glyph-name="ij" unicode="&#x133;" horiz-adv-x="657" 
d="M178 598q-34 0 -58.5 24.5t-24.5 57.5q0 34 24.5 58t58.5 24q23 0 42 -11t30.5 -30t11.5 -41q0 -21 -11.5 -40.5t-30.5 -30.5t-42 -11zM132 0v504h118v-504h-118zM51 402v102h199v-102h-199zM503 762q23 0 42 -11t30.5 -30t11.5 -41q0 -21 -11.5 -40.5t-30.5 -30.5
t-42 -11t-42 11t-30.5 30.5t-11.5 40.5q0 34 25 58t59 24zM393 -255l-53 103q56 26 84.5 61t28.5 89v404h-80v102h198v-499q0 -102 -46.5 -165.5t-131.5 -94.5z" />
    <glyph glyph-name="uni0136" unicode="&#x136;" horiz-adv-x="687" 
d="M200 186l-65 82l361 402h156zM98 0v670h129v-670h-129zM508 0l-265 329l99 81l333 -410h-167zM323 -225q-19 0 -33.5 5.5t-24.5 12.5v65q22 -17 51 -17q20 0 32.5 11t12.5 29q0 17 -13.5 27t-29.5 10v60q43 0 75.5 -25t32.5 -70q0 -35 -15.5 -59.5t-39 -36.5t-48.5 -12z
" />
    <glyph glyph-name="uni0137" unicode="&#x137;" horiz-adv-x="574" 
d="M173 123v135l239 246h145zM79 0v720h118v-720h-118zM420 0l-187 243l75 82l261 -325h-149zM268 -225q-19 0 -33.5 5.5t-24.5 12.5v65q22 -17 51 -17q20 0 32.5 11t12.5 29q0 17 -13.5 27t-29.5 10v60q43 0 75.5 -25t32.5 -70q0 -35 -15.5 -59.5t-39 -36.5t-48.5 -12z" />
    <glyph glyph-name="Lacute" unicode="&#x139;" horiz-adv-x="616" 
d="M98 0v670h129v-553h338v-117h-467zM133 741l106 141h130l-138 -141h-98z" />
    <glyph glyph-name="lacute" unicode="&#x13a;" horiz-adv-x="276" 
d="M79 0v720h118v-720h-118zM85 791l106 141h130l-138 -141h-98z" />
    <glyph glyph-name="uni013B" unicode="&#x13b;" horiz-adv-x="616" 
d="M98 0v670h129v-553h338v-117h-467zM289 -225q-19 0 -33.5 5.5t-24.5 12.5v65q22 -17 51 -17q20 0 32.5 11t12.5 29q0 17 -13.5 27t-29.5 10v60q43 0 75.5 -25t32.5 -70q0 -35 -15.5 -59.5t-39 -36.5t-48.5 -12z" />
    <glyph glyph-name="uni013C" unicode="&#x13c;" horiz-adv-x="276" 
d="M79 0v720h118v-720h-118zM108 -225q-19 0 -33.5 5.5t-24.5 12.5v65q22 -17 51 -17q20 0 32.5 11t12.5 29q0 17 -13.5 27t-29.5 10v60q43 0 75.5 -25t32.5 -70q0 -35 -15.5 -59.5t-39 -36.5t-48.5 -12z" />
    <glyph glyph-name="Lcaron" unicode="&#x13d;" horiz-adv-x="616" 
d="M98 0v670h129v-553h338v-117h-467zM289 530l10 188h109l-30 -188h-89z" />
    <glyph glyph-name="lcaron" unicode="&#x13e;" horiz-adv-x="276" 
d="M79 0v720h118v-720h-118zM259 532l10 188h109l-30 -188h-89z" />
    <glyph glyph-name="Ldot" unicode="&#x13f;" horiz-adv-x="616" 
d="M98 0v670h129v-553h338v-117h-467zM417 322q-32 0 -55 23t-23 55t23 55t55 23q33 0 55.5 -23t22.5 -55t-22.5 -55t-55.5 -23z" />
    <glyph glyph-name="ldot" unicode="&#x140;" horiz-adv-x="347" 
d="M79 0v720h118v-720h-118zM309 360q-32 0 -55 23t-23 55t23 55t55 23q33 0 55.5 -23t22.5 -55t-22.5 -55t-55.5 -23z" />
    <glyph glyph-name="Lslash" unicode="&#x141;" horiz-adv-x="608" 
d="M16 209v108l309 212v-108zM98 0v670h129v-553h338v-117h-467z" />
    <glyph glyph-name="lslash" unicode="&#x142;" horiz-adv-x="317" 
d="M10 209v108l297 208v-108zM94 0v720h118v-720h-118z" />
    <glyph glyph-name="Nacute" unicode="&#x143;" horiz-adv-x="776" 
d="M631 -4l-404 419v-415h-129v674h47l404 -425v421h129v-674h-47zM322 741l106 141h130l-138 -141h-98z" />
    <glyph glyph-name="nacute" unicode="&#x144;" horiz-adv-x="602" 
d="M416 0l-1 293q0 55 -25.5 81.5t-71.5 26.5q-35 0 -66 -23.5t-55 -55.5v108q16 21 39 40.5t52.5 32.5t63.5 13q52 0 93 -23t65 -69t24 -115v-309h-118zM79 0v504h118v-504h-118zM252 576l106 141h130l-138 -141h-98z" />
    <glyph glyph-name="uni0145" unicode="&#x145;" horiz-adv-x="776" 
d="M631 -4l-404 419v-415h-129v674h47l404 -425v421h129v-674h-47zM358 -225q-19 0 -33.5 5.5t-24.5 12.5v65q22 -17 51 -17q20 0 32.5 11t12.5 29q0 17 -13.5 27t-29.5 10v60q43 0 75.5 -25t32.5 -70q0 -35 -15.5 -59.5t-39 -36.5t-48.5 -12z" />
    <glyph glyph-name="uni0146" unicode="&#x146;" horiz-adv-x="602" 
d="M416 0l-1 293q0 55 -25.5 81.5t-71.5 26.5q-35 0 -66 -23.5t-55 -55.5v108q16 21 39 40.5t52.5 32.5t63.5 13q52 0 93 -23t65 -69t24 -115v-309h-118zM79 0v504h118v-504h-118zM278 -225q-19 0 -33.5 5.5t-24.5 12.5v65q22 -17 51 -17q20 0 32.5 11t12.5 29
q0 17 -13.5 27t-29.5 10v60q43 0 75.5 -25t32.5 -70q0 -35 -15.5 -59.5t-39 -36.5t-48.5 -12z" />
    <glyph glyph-name="Ncaron" unicode="&#x147;" horiz-adv-x="776" 
d="M631 -4l-404 419v-415h-129v674h47l404 -425v421h129v-674h-47zM353 739l-132 143h102l64 -70l64 70h102l-132 -143h-68z" />
    <glyph glyph-name="ncaron" unicode="&#x148;" horiz-adv-x="602" 
d="M416 0l-1 293q0 55 -25.5 81.5t-71.5 26.5q-35 0 -66 -23.5t-55 -55.5v108q16 21 39 40.5t52.5 32.5t63.5 13q52 0 93 -23t65 -69t24 -115v-309h-118zM79 0v504h118v-504h-118zM283 574l-132 143h102l64 -70l64 70h102l-132 -143h-68z" />
    <glyph glyph-name="Eng" unicode="&#x14a;" horiz-adv-x="761" 
d="M98 0v674h48l491 -503l-45 -130l-361 372v-413h-133zM429 -255l-51 117q161 49 161 169v641h128v-633q0 -84 -30.5 -142.5t-84 -94.5t-123.5 -57z" />
    <glyph glyph-name="eng" unicode="&#x14b;" horiz-adv-x="604" 
d="M355 -255l-52 103q55 26 84 62.5t29 90.5v125h118v-150q0 -79 -47 -139.5t-132 -91.5zM416 0l-1 293q0 55 -25.5 81.5t-71.5 26.5q-35 0 -66 -23.5t-55 -55.5v108q16 21 39 40.5t52.5 32.5t63.5 13q52 0 93 -23t65 -69t24 -115v-309h-118zM79 0v504h118v-504h-118z" />
    <glyph glyph-name="Omacron" unicode="&#x14c;" horiz-adv-x="794" 
d="M397 -15q-73 0 -136.5 26t-111.5 72.5t-75.5 111t-27.5 140.5t27.5 140.5t75.5 111t111.5 72.5t136.5 26t136.5 -26t111.5 -72.5t75.5 -111t27.5 -140.5t-27.5 -140.5t-75.5 -111t-111.5 -72.5t-136.5 -26zM397 108q63 0 112.5 30t78 81t28.5 116t-28.5 116.5t-78 81
t-112.5 29.5t-112.5 -29.5t-78 -81t-28.5 -116.5t28.5 -116t78 -81t112.5 -30zM218 789v92h358v-92h-358z" />
    <glyph glyph-name="omacron" unicode="&#x14d;" horiz-adv-x="625" 
d="M313 -15q-56 0 -104.5 20.5t-85.5 56.5t-58 84.5t-21 103.5q0 56 21 104t58 84.5t85.5 57t104.5 20.5q55 0 103.5 -20.5t86 -57t58 -84.5t20.5 -104q0 -55 -20.5 -103.5t-58 -84.5t-86 -56.5t-103.5 -20.5zM313 99q40 0 72.5 18.5t51.5 52.5t19 80q0 47 -19 81
t-51.5 52.5t-72.5 18.5q-39 0 -72 -18.5t-52.5 -52.5t-19.5 -81q0 -46 19.5 -80t52.5 -52.5t72 -18.5zM134 623v92h358v-92h-358z" />
    <glyph glyph-name="Ohungarumlaut" unicode="&#x150;" horiz-adv-x="794" 
d="M397 -15q-73 0 -136.5 26t-111.5 72.5t-75.5 111t-27.5 140.5t27.5 140.5t75.5 111t111.5 72.5t136.5 26t136.5 -26t111.5 -72.5t75.5 -111t27.5 -140.5t-27.5 -140.5t-75.5 -111t-111.5 -72.5t-136.5 -26zM397 108q63 0 112.5 30t78 81t28.5 116t-28.5 116.5t-78 81
t-112.5 29.5t-112.5 -29.5t-78 -81t-28.5 -116.5t28.5 -116t78 -81t112.5 -30zM402 741l106 141h130l-138 -141h-98zM230 741l106 141h130l-138 -141h-98z" />
    <glyph glyph-name="ohungarumlaut" unicode="&#x151;" horiz-adv-x="625" 
d="M313 -15q-56 0 -104.5 20.5t-85.5 56.5t-58 84.5t-21 103.5q0 56 21 104t58 84.5t85.5 57t104.5 20.5q55 0 103.5 -20.5t86 -57t58 -84.5t20.5 -104q0 -55 -20.5 -103.5t-58 -84.5t-86 -56.5t-103.5 -20.5zM313 99q40 0 72.5 18.5t51.5 52.5t19 80q0 47 -19 81
t-51.5 52.5t-72.5 18.5q-39 0 -72 -18.5t-52.5 -52.5t-19.5 -81q0 -46 19.5 -80t52.5 -52.5t72 -18.5zM317 575l106 141h130l-138 -141h-98zM145 575l106 141h130l-138 -141h-98z" />
    <glyph glyph-name="OE" unicode="&#x152;" horiz-adv-x="1024" 
d="M399 0q-72 0 -136 25t-112.5 70.5t-76.5 106.5t-28 133t28 133t76.5 106.5t112.5 70.5t136 25h93v-115h-93q-64 0 -115.5 -26t-81.5 -75.5t-30 -118.5t30 -119t81.5 -77.5t115.5 -27.5h93v-111h-93zM481 0v670h473v-113h-345v-442h345v-115h-473zM557 286v111h357v-111
h-357z" />
    <glyph glyph-name="oe" unicode="&#x153;" horiz-adv-x="997" 
d="M313 -15q-56 0 -104.5 20.5t-85.5 56.5t-58 84.5t-21 103.5q0 56 21 104t58 84.5t85.5 57t104.5 20.5q55 0 103.5 -20.5t86 -57t58 -84.5t20.5 -104q0 -55 -20.5 -103.5t-58 -84.5t-86 -56.5t-103.5 -20.5zM313 99q40 0 72.5 18.5t51.5 52.5t19 80q0 47 -19 81
t-51.5 52.5t-72.5 18.5q-39 0 -72 -18.5t-52.5 -52.5t-19.5 -81q0 -46 19.5 -80t52.5 -52.5t72 -18.5zM736 -15q-56 0 -104.5 19.5t-86 55t-58 83.5t-20.5 104q0 73 33 134t90 98t130 37q75 0 128 -32t81 -88t28 -129v-53h-381v84h267q-3 39 -21.5 64t-46 37t-57.5 12
q-41 0 -71 -21t-46.5 -58t-16.5 -85q0 -44 19.5 -79t55 -55t81.5 -20q56 0 100.5 23t72.5 48v-112q-15 -15 -42 -30.5t-61.5 -26t-73.5 -10.5z" />
    <glyph glyph-name="Racute" unicode="&#x154;" horiz-adv-x="663" 
d="M98 0v670h269q46 0 90.5 -13t80 -39t57 -66.5t21.5 -95.5q0 -62 -33.5 -104.5t-86 -64t-112.5 -21.5q-15 0 -38.5 3t-49.5 7t-48.5 8.5t-33.5 7.5v83q28 -10 63 -16t70 -6q64 0 100.5 28t36.5 75q0 50 -39 75.5t-96 25.5h-122v-557h-129zM471 0l-259 292l110 42l323 -334
h-174zM244 741l106 141h130l-138 -141h-98z" />
    <glyph glyph-name="racute" unicode="&#x155;" horiz-adv-x="411" 
d="M79 0v504h118v-504h-118zM197 286v122q27 46 63.5 76t81.5 30q28 0 49 -10v-133q-15 9 -31 14t-35 5q-45 0 -74.5 -30t-53.5 -74zM170 575l106 141h130l-138 -141h-98z" />
    <glyph glyph-name="uni0156" unicode="&#x156;" horiz-adv-x="663" 
d="M98 0v670h269q46 0 90.5 -13t80 -39t57 -66.5t21.5 -95.5q0 -62 -33.5 -104.5t-86 -64t-112.5 -21.5q-15 0 -38.5 3t-49.5 7t-48.5 8.5t-33.5 7.5v83q28 -10 63 -16t70 -6q64 0 100.5 28t36.5 75q0 50 -39 75.5t-96 25.5h-122v-557h-129zM471 0l-259 292l110 42l323 -334
h-174zM329 -225q-19 0 -33.5 5.5t-24.5 12.5v65q22 -17 51 -17q20 0 32.5 11t12.5 29q0 17 -13.5 27t-29.5 10v60q43 0 75.5 -25t32.5 -70q0 -35 -15.5 -59.5t-39 -36.5t-48.5 -12z" />
    <glyph glyph-name="uni0157" unicode="&#x157;" horiz-adv-x="411" 
d="M79 0v504h118v-504h-118zM197 286v122q27 46 63.5 76t81.5 30q28 0 49 -10v-133q-15 9 -31 14t-35 5q-45 0 -74.5 -30t-53.5 -74zM114 -225q-19 0 -33.5 5.5t-24.5 12.5v65q22 -17 51 -17q20 0 32.5 11t12.5 29q0 17 -13.5 27t-29.5 10v60q43 0 75.5 -25t32.5 -70
q0 -35 -15.5 -59.5t-39 -36.5t-48.5 -12z" />
    <glyph glyph-name="Rcaron" unicode="&#x158;" horiz-adv-x="663" 
d="M98 0v670h269q46 0 90.5 -13t80 -39t57 -66.5t21.5 -95.5q0 -62 -33.5 -104.5t-86 -64t-112.5 -21.5q-15 0 -38.5 3t-49.5 7t-48.5 8.5t-33.5 7.5v83q28 -10 63 -16t70 -6q64 0 100.5 28t36.5 75q0 50 -39 75.5t-96 25.5h-122v-557h-129zM471 0l-259 292l110 42l323 -334
h-174zM274 739l-132 143h102l64 -70l64 70h102l-132 -143h-68z" />
    <glyph glyph-name="rcaron" unicode="&#x159;" horiz-adv-x="411" 
d="M79 0v504h118v-504h-118zM197 286v122q27 46 63.5 76t81.5 30q28 0 49 -10v-133q-15 9 -31 14t-35 5q-45 0 -74.5 -30t-53.5 -74zM201 573l-132 143h102l64 -70l64 70h102l-132 -143h-68z" />
    <glyph glyph-name="Sacute" unicode="&#x15a;" horiz-adv-x="543" 
d="M252 -12q-59 0 -112 20.5t-92 47.5v124q42 -30 96.5 -52t115.5 -22q44 0 73.5 20t29.5 55q0 19 -12 33.5t-30.5 25.5t-38.5 18l-105 42q-51 21 -79.5 48.5t-40 61.5t-11.5 72q0 60 32.5 105t86.5 70t115 25q59 0 105.5 -16t77.5 -37v-124q-34 22 -77 40.5t-94 18.5
q-26 0 -52 -9t-42.5 -27.5t-16.5 -46.5q0 -34 29 -52t70 -36l82 -36q71 -30 105 -70t34 -99t-34 -103.5t-90.5 -70.5t-124.5 -26zM217 741l106 141h130l-138 -141h-98z" />
    <glyph glyph-name="sacute" unicode="&#x15b;" horiz-adv-x="439" 
d="M213 -15q-32 0 -65 7.5t-60 19t-43 22.5v107q18 -12 45 -24.5t55.5 -20t53.5 -7.5q40 0 61.5 15t21.5 41q0 20 -17.5 31.5t-50.5 23.5l-64 22q-58 20 -79.5 55t-21.5 82t24 82t67.5 55t99.5 20q46 0 86 -13.5t60 -30.5v-107q-23 16 -57.5 30.5t-72.5 14.5t-59.5 -17
t-21.5 -39q0 -17 12.5 -31.5t45.5 -24.5l63 -22q56 -17 83.5 -50t27.5 -81q0 -45 -26 -81.5t-69.5 -57.5t-98.5 -21zM166 575l106 141h130l-138 -141h-98z" />
    <glyph glyph-name="Scedilla" unicode="&#x15e;" horiz-adv-x="543" 
d="M252 -12q-59 0 -112 20.5t-92 47.5v124q42 -30 96.5 -52t115.5 -22q44 0 73.5 20t29.5 55q0 19 -12 33.5t-30.5 25.5t-38.5 18l-105 42q-51 21 -79.5 48.5t-40 61.5t-11.5 72q0 60 32.5 105t86.5 70t115 25q59 0 105.5 -16t77.5 -37v-124q-34 22 -77 40.5t-94 18.5
q-26 0 -52 -9t-42.5 -27.5t-16.5 -46.5q0 -34 29 -52t70 -36l82 -36q71 -30 105 -70t34 -99t-34 -103.5t-90.5 -70.5t-124.5 -26zM269 -240q-15 0 -39 6t-40 19l7 63q16 -8 33 -15.5t39 -7.5q15 0 26 8t11 21t-10 20t-26 7q-7 0 -15 -2t-18 -7l-19 12l13 118h62l-5 -62
q41 3 67.5 -20.5t26.5 -60.5q0 -44 -30.5 -71.5t-82.5 -27.5z" />
    <glyph glyph-name="scedilla" unicode="&#x15f;" horiz-adv-x="439" 
d="M213 -15q-32 0 -65 7.5t-60 19t-43 22.5v107q18 -12 45 -24.5t55.5 -20t53.5 -7.5q40 0 61.5 15t21.5 41q0 20 -17.5 31.5t-50.5 23.5l-64 22q-58 20 -79.5 55t-21.5 82t24 82t67.5 55t99.5 20q46 0 86 -13.5t60 -30.5v-107q-23 16 -57.5 30.5t-72.5 14.5t-59.5 -17
t-21.5 -39q0 -17 12.5 -31.5t45.5 -24.5l63 -22q56 -17 83.5 -50t27.5 -81q0 -45 -26 -81.5t-69.5 -57.5t-98.5 -21zM211 -240q-15 0 -39 6t-40 19l7 63q16 -8 33 -15.5t39 -7.5q15 0 26 8t11 21t-10 20t-26 7q-7 0 -15 -2t-18 -7l-19 12l13 118h62l-5 -62q41 3 67.5 -20.5
t26.5 -60.5q0 -44 -30.5 -71.5t-82.5 -27.5z" />
    <glyph glyph-name="Scaron" unicode="&#x160;" horiz-adv-x="543" 
d="M252 -12q-59 0 -112 20.5t-92 47.5v124q42 -30 96.5 -52t115.5 -22q44 0 73.5 20t29.5 55q0 19 -12 33.5t-30.5 25.5t-38.5 18l-105 42q-51 21 -79.5 48.5t-40 61.5t-11.5 72q0 60 32.5 105t86.5 70t115 25q59 0 105.5 -16t77.5 -37v-124q-34 22 -77 40.5t-94 18.5
q-26 0 -52 -9t-42.5 -27.5t-16.5 -46.5q0 -34 29 -52t70 -36l82 -36q71 -30 105 -70t34 -99t-34 -103.5t-90.5 -70.5t-124.5 -26zM247 739l-132 143h102l64 -70l64 70h102l-132 -143h-68z" />
    <glyph glyph-name="scaron" unicode="&#x161;" horiz-adv-x="439" 
d="M213 -15q-32 0 -65 7.5t-60 19t-43 22.5v107q18 -12 45 -24.5t55.5 -20t53.5 -7.5q40 0 61.5 15t21.5 41q0 20 -17.5 31.5t-50.5 23.5l-64 22q-58 20 -79.5 55t-21.5 82t24 82t67.5 55t99.5 20q46 0 86 -13.5t60 -30.5v-107q-23 16 -57.5 30.5t-72.5 14.5t-59.5 -17
t-21.5 -39q0 -17 12.5 -31.5t45.5 -24.5l63 -22q56 -17 83.5 -50t27.5 -81q0 -45 -26 -81.5t-69.5 -57.5t-98.5 -21zM196 573l-132 143h102l64 -70l64 70h102l-132 -143h-68z" />
    <glyph glyph-name="uni0162" unicode="&#x162;" horiz-adv-x="615" 
d="M243 0v670h129v-670h-129zM32 557v113h552v-113h-552zM312 -240q-15 0 -39 6t-40 19l7 63q16 -8 33 -15.5t39 -7.5q15 0 26 8t11 21t-10 20t-26 7q-7 0 -15 -2t-18 -7l-19 12l13 118h62l-5 -62q41 3 67.5 -20.5t26.5 -60.5q0 -44 -30.5 -71.5t-82.5 -27.5z" />
    <glyph glyph-name="uni0163" unicode="&#x163;" horiz-adv-x="463" 
d="M285 -15q-44 0 -79.5 19.5t-56 55t-20.5 83.5v261h-86v56q49 19 81 65.5t56 116.5h67v-138h155v-100h-155v-233q0 -34 18.5 -53t51.5 -19q30 0 52.5 8.5t39.5 18.5v-101q-18 -18 -49.5 -29t-74.5 -11zM267 -240q-15 0 -39 6t-40 19l7 63q16 -8 33 -15.5t39 -7.5
q15 0 26 8t11 21t-10 20t-26 7q-7 0 -15 -2t-18 -7l-19 12l13 118h62l-5 -62q41 3 67.5 -20.5t26.5 -60.5q0 -44 -30.5 -71.5t-82.5 -27.5z" />
    <glyph glyph-name="Tcaron" unicode="&#x164;" horiz-adv-x="615" 
d="M243 0v670h129v-670h-129zM32 557v113h552v-113h-552zM274 739l-132 143h102l64 -70l64 70h102l-132 -143h-68z" />
    <glyph glyph-name="tcaron" unicode="&#x165;" horiz-adv-x="463" 
d="M285 -15q-44 0 -79.5 19.5t-56 55t-20.5 83.5v261h-86v56q49 19 81 65.5t56 116.5h67v-138h155v-100h-155v-233q0 -34 18.5 -53t51.5 -19q30 0 52.5 8.5t39.5 18.5v-101q-18 -18 -49.5 -29t-74.5 -11zM309 542l10 188h109l-30 -188h-89z" />
    <glyph glyph-name="Tbar" unicode="&#x166;" horiz-adv-x="615" 
d="M129 308v92h358v-92h-358zM243 0v670h129v-670h-129zM32 557v113h552v-113h-552z" />
    <glyph glyph-name="tbar" unicode="&#x167;" horiz-adv-x="436" 
d="M35 225v78h345v-78h-345zM285 -15q-44 0 -79.5 19.5t-56 55t-20.5 83.5v261h-86v56q49 19 81 65.5t56 116.5h67v-138h155v-100h-155v-233q0 -34 18.5 -53t51.5 -19q30 0 52.5 8.5t39.5 18.5v-101q-18 -18 -49.5 -29t-74.5 -11z" />
    <glyph glyph-name="Umacron" unicode="&#x16a;" horiz-adv-x="750" 
d="M375 -14q-80 0 -145 33.5t-103.5 96t-38.5 149.5v407h129v-400q0 -54 20 -90t56 -53.5t82 -17.5t81.5 17.5t56 53.5t20.5 90v400h129v-407q0 -87 -38.5 -149.5t-103 -96t-145.5 -33.5zM196 789v92h358v-92h-358z" />
    <glyph glyph-name="umacron" unicode="&#x16b;" horiz-adv-x="586" 
d="M293 -12q-65 0 -115.5 26t-80 74.5t-29.5 115.5v300h120v-282q0 -59 30 -89.5t75 -30.5t74.5 30.5t29.5 89.5v282h121v-300q0 -67 -29.5 -115.5t-80.5 -74.5t-115 -26zM120 623v92h358v-92h-358z" />
    <glyph glyph-name="Ubreve" unicode="&#x16c;" horiz-adv-x="750" 
d="M375 -14q-80 0 -145 33.5t-103.5 96t-38.5 149.5v407h129v-400q0 -54 20 -90t56 -53.5t82 -17.5t81.5 17.5t56 53.5t20.5 90v400h129v-407q0 -87 -38.5 -149.5t-103 -96t-145.5 -33.5zM375 732q-67 0 -113.5 40.5t-48.5 109.5h84q5 -30 24.5 -48t53.5 -18t54 19.5
t24 46.5h84q-2 -69 -48 -109.5t-114 -40.5z" />
    <glyph glyph-name="ubreve" unicode="&#x16d;" horiz-adv-x="586" 
d="M293 -12q-65 0 -115.5 26t-80 74.5t-29.5 115.5v300h120v-282q0 -59 30 -89.5t75 -30.5t74.5 30.5t29.5 89.5v282h121v-300q0 -67 -29.5 -115.5t-80.5 -74.5t-115 -26zM299 566q-67 0 -113.5 40.5t-48.5 109.5h84q5 -30 24.5 -48t53.5 -18t54 19.5t24 46.5h84
q-2 -69 -48 -109.5t-114 -40.5z" />
    <glyph glyph-name="Uring" unicode="&#x16e;" horiz-adv-x="750" 
d="M375 -14q-80 0 -145 33.5t-103.5 96t-38.5 149.5v407h129v-400q0 -54 20 -90t56 -53.5t82 -17.5t81.5 17.5t56 53.5t20.5 90v400h129v-407q0 -87 -38.5 -149.5t-103 -96t-145.5 -33.5zM375 722q-37 0 -62.5 25t-25.5 61t25.5 61t62.5 25q38 0 63 -25t25 -61t-25 -61
t-63 -25zM375 768q16 0 27.5 11.5t11.5 28.5q0 16 -11.5 28t-27.5 12t-28 -12t-12 -28q0 -17 12 -28.5t28 -11.5z" />
    <glyph glyph-name="uring" unicode="&#x16f;" horiz-adv-x="586" 
d="M293 -12q-65 0 -115.5 26t-80 74.5t-29.5 115.5v300h120v-282q0 -59 30 -89.5t75 -30.5t74.5 30.5t29.5 89.5v282h121v-300q0 -67 -29.5 -115.5t-80.5 -74.5t-115 -26zM299 556q-37 0 -62.5 25t-25.5 61t25.5 61t62.5 25q38 0 63 -25t25 -61t-25 -61t-63 -25zM299 602
q16 0 27.5 11.5t11.5 28.5q0 16 -11.5 28t-27.5 12t-28 -12t-12 -28q0 -17 12 -28.5t28 -11.5z" />
    <glyph glyph-name="Uhungarumlaut" unicode="&#x170;" horiz-adv-x="750" 
d="M375 -14q-80 0 -145 33.5t-103.5 96t-38.5 149.5v407h129v-400q0 -54 20 -90t56 -53.5t82 -17.5t81.5 17.5t56 53.5t20.5 90v400h129v-407q0 -87 -38.5 -149.5t-103 -96t-145.5 -33.5zM379 741l106 141h130l-138 -141h-98zM207 741l106 141h130l-138 -141h-98z" />
    <glyph glyph-name="uhungarumlaut" unicode="&#x171;" horiz-adv-x="586" 
d="M293 -12q-65 0 -115.5 26t-80 74.5t-29.5 115.5v300h120v-282q0 -59 30 -89.5t75 -30.5t74.5 30.5t29.5 89.5v282h121v-300q0 -67 -29.5 -115.5t-80.5 -74.5t-115 -26zM304 575l106 141h130l-138 -141h-98zM132 575l106 141h130l-138 -141h-98z" />
    <glyph glyph-name="Uogonek" unicode="&#x172;" horiz-adv-x="750" 
d="M375 -14q-80 0 -145 33.5t-103.5 96t-38.5 149.5v407h129v-400q0 -54 20 -90t56 -53.5t82 -17.5t81.5 17.5t56 53.5t20.5 90v400h129v-407q0 -87 -38.5 -149.5t-103 -96t-145.5 -33.5zM375 -225q-30 0 -57.5 11t-45.5 33t-18 55q0 35 19 61t45.5 42.5t48.5 23.5h104
q-25 -8 -50 -22.5t-40.5 -31.5t-15.5 -35q0 -19 12 -32t34 -13q17 0 30 5.5t24 12.5v-86q-10 -5 -33.5 -14.5t-56.5 -9.5z" />
    <glyph glyph-name="uogonek" unicode="&#x173;" horiz-adv-x="586" 
d="M293 -12q-65 0 -115.5 26t-80 74.5t-29.5 115.5v300h120v-282q0 -59 30 -89.5t75 -30.5t74.5 30.5t29.5 89.5v282h121v-300q0 -67 -29.5 -115.5t-80.5 -74.5t-115 -26zM281 -225q-30 0 -57.5 11t-45.5 33t-18 55q0 35 19 61t45.5 42.5t48.5 23.5h104q-25 -8 -50 -22.5
t-40.5 -31.5t-15.5 -35q0 -19 12 -32t34 -13q17 0 30 5.5t24 12.5v-86q-10 -5 -33.5 -14.5t-56.5 -9.5z" />
    <glyph glyph-name="Wcircumflex" unicode="&#x174;" horiz-adv-x="960" 
d="M235 0l-223 670h146l131 -438l147 438l86 -1l146 -437l134 438h146l-228 -670h-87l-155 446l-156 -446h-87zM314 739l132 143h68l132 -143h-102l-64 70l-64 -70h-102z" />
    <glyph glyph-name="wcircumflex" unicode="&#x175;" horiz-adv-x="783" 
d="M185 0l-174 504h130l97 -310l113 310h82l113 -310l96 310h130l-175 -504h-84l-121 332l-122 -332h-85zM223 573l132 143h68l132 -143h-102l-64 70l-64 -70h-102z" />
    <glyph glyph-name="Ycircumflex" unicode="&#x176;" horiz-adv-x="675" 
d="M303 197l-291 473h152l173 -294l174 294h152l-297 -473h-63zM271 0v284h133v-284h-133zM172 739l132 143h68l132 -143h-102l-64 70l-64 -70h-102z" />
    <glyph glyph-name="ycircumflex" unicode="&#x177;" horiz-adv-x="591" 
d="M79 -240l196 358l170 386h135l-367 -744h-134zM243 6l-232 498h138l185 -410zM127 573l132 143h68l132 -143h-102l-64 70l-64 -70h-102z" />
    <glyph glyph-name="Ydieresis" unicode="&#x178;" horiz-adv-x="675" 
d="M303 197l-291 473h152l173 -294l174 294h152l-297 -473h-63zM271 0v284h133v-284h-133zM443 751q-29 0 -49 20.5t-20 47.5q0 29 20 48.5t49 19.5q28 0 48 -19.5t20 -48.5q0 -27 -20 -47.5t-48 -20.5zM233 751q-29 0 -49 20.5t-20 47.5q0 29 20 48.5t49 19.5
q28 0 48 -19.5t20 -48.5q0 -27 -20 -47.5t-48 -20.5z" />
    <glyph glyph-name="Zacute" unicode="&#x179;" horiz-adv-x="656" 
d="M47 0v36l349 517h-326v117h535v-36l-356 -517h356v-117h-558zM271 741l106 141h130l-138 -141h-98z" />
    <glyph glyph-name="zacute" unicode="&#x17a;" horiz-adv-x="555" 
d="M53 0v31l259 371h-243v102h425v-31l-269 -371h279v-102h-451zM214 575l106 141h130l-138 -141h-98z" />
    <glyph glyph-name="Zdotaccent" unicode="&#x17b;" horiz-adv-x="656" 
d="M47 0v36l349 517h-326v117h535v-36l-356 -517h356v-117h-558zM335 746q-28 0 -48 20t-20 48t20 48t48 20q29 0 49 -20t20 -48t-20 -48t-49 -20z" />
    <glyph glyph-name="zdotaccent" unicode="&#x17c;" horiz-adv-x="555" 
d="M53 0v31l259 371h-243v102h425v-31l-269 -371h279v-102h-451zM279 580q-28 0 -48 20t-20 48t20 48t48 20q29 0 49 -20t20 -48t-20 -48t-49 -20z" />
    <glyph glyph-name="Zcaron" unicode="&#x17d;" horiz-adv-x="656" 
d="M47 0v36l349 517h-326v117h535v-36l-356 -517h356v-117h-558zM301 739l-132 143h102l64 -70l64 70h102l-132 -143h-68z" />
    <glyph glyph-name="zcaron" unicode="&#x17e;" horiz-adv-x="555" 
d="M53 0v31l259 371h-243v102h425v-31l-269 -371h279v-102h-451zM245 573l-132 143h102l64 -70l64 70h102l-132 -143h-68z" />
    <glyph glyph-name="uni0218" unicode="&#x218;" horiz-adv-x="543" 
d="M252 -12q-59 0 -112 20.5t-92 47.5v124q42 -30 96.5 -52t115.5 -22q44 0 73.5 20t29.5 55q0 19 -12 33.5t-30.5 25.5t-38.5 18l-105 42q-51 21 -79.5 48.5t-40 61.5t-11.5 72q0 60 32.5 105t86.5 70t115 25q59 0 105.5 -16t77.5 -37v-124q-34 22 -77 40.5t-94 18.5
q-26 0 -52 -9t-42.5 -27.5t-16.5 -46.5q0 -34 29 -52t70 -36l82 -36q71 -30 105 -70t34 -99t-34 -103.5t-90.5 -70.5t-124.5 -26zM242 -225q-19 0 -33.5 5.5t-24.5 12.5v65q22 -17 51 -17q20 0 32.5 11t12.5 29q0 17 -13.5 27t-29.5 10v60q43 0 75.5 -25t32.5 -70
q0 -35 -15.5 -59.5t-39 -36.5t-48.5 -12z" />
    <glyph glyph-name="uni0219" unicode="&#x219;" horiz-adv-x="439" 
d="M213 -15q-32 0 -65 7.5t-60 19t-43 22.5v107q18 -12 45 -24.5t55.5 -20t53.5 -7.5q40 0 61.5 15t21.5 41q0 20 -17.5 31.5t-50.5 23.5l-64 22q-58 20 -79.5 55t-21.5 82t24 82t67.5 55t99.5 20q46 0 86 -13.5t60 -30.5v-107q-23 16 -57.5 30.5t-72.5 14.5t-59.5 -17
t-21.5 -39q0 -17 12.5 -31.5t45.5 -24.5l63 -22q56 -17 83.5 -50t27.5 -81q0 -45 -26 -81.5t-69.5 -57.5t-98.5 -21zM185 -225q-19 0 -33.5 5.5t-24.5 12.5v65q22 -17 51 -17q20 0 32.5 11t12.5 29q0 17 -13.5 27t-29.5 10v60q43 0 75.5 -25t32.5 -70q0 -35 -15.5 -59.5
t-39 -36.5t-48.5 -12z" />
    <glyph glyph-name="uni021A" unicode="&#x21a;" horiz-adv-x="615" 
d="M243 0v670h129v-670h-129zM32 557v113h552v-113h-552zM285 -225q-19 0 -33.5 5.5t-24.5 12.5v65q22 -17 51 -17q20 0 32.5 11t12.5 29q0 17 -13.5 27t-29.5 10v60q43 0 75.5 -25t32.5 -70q0 -35 -15.5 -59.5t-39 -36.5t-48.5 -12z" />
    <glyph glyph-name="uni021B" unicode="&#x21b;" horiz-adv-x="463" 
d="M285 -15q-44 0 -79.5 19.5t-56 55t-20.5 83.5v261h-86v56q49 19 81 65.5t56 116.5h67v-138h155v-100h-155v-233q0 -34 18.5 -53t51.5 -19q30 0 52.5 8.5t39.5 18.5v-101q-18 -18 -49.5 -29t-74.5 -11zM241 -225q-19 0 -33.5 5.5t-24.5 12.5v65q22 -17 51 -17
q20 0 32.5 11t12.5 29q0 17 -13.5 27t-29.5 10v60q43 0 75.5 -25t32.5 -70q0 -35 -15.5 -59.5t-39 -36.5t-48.5 -12z" />
    <glyph glyph-name="uni0237" unicode="&#x237;" horiz-adv-x="326" 
d="M62 -255l-53 103q56 26 84.5 61t28.5 89v404h-80v102h198v-499q0 -102 -46.5 -165.5t-131.5 -94.5z" />
    <glyph glyph-name="circumflex" unicode="&#x2c6;" horiz-adv-x="492" 
d="M80 573l132 143h68l132 -143h-102l-64 70l-64 -70h-102z" />
    <glyph glyph-name="caron" unicode="&#x2c7;" horiz-adv-x="476" 
d="M204 573l-132 143h102l64 -70l64 70h102l-132 -143h-68z" />
    <glyph glyph-name="breve" unicode="&#x2d8;" horiz-adv-x="484" 
d="M242 566q-67 0 -113.5 40.5t-48.5 109.5h84q5 -30 24.5 -48t53.5 -18t54 19.5t24 46.5h84q-2 -69 -48 -109.5t-114 -40.5z" />
    <glyph glyph-name="dotaccent" unicode="&#x2d9;" horiz-adv-x="305" 
d="M152 580q-28 0 -48 20t-20 48t20 48t48 20q29 0 49 -20t20 -48t-20 -48t-49 -20z" />
    <glyph glyph-name="ring" unicode="&#x2da;" horiz-adv-x="331" 
d="M166 556q-37 0 -62.5 25t-25.5 61t25.5 61t62.5 25q38 0 63 -25t25 -61t-25 -61t-63 -25zM166 602q16 0 27.5 11.5t11.5 28.5q0 16 -11.5 28t-27.5 12t-28 -12t-12 -28q0 -17 12 -28.5t28 -11.5z" />
    <glyph glyph-name="ogonek" unicode="&#x2db;" horiz-adv-x="600" 
d="M284 -225q-30 0 -57.5 11t-45.5 33t-18 55q0 35 19 61t45.5 42.5t48.5 23.5h104q-25 -8 -50 -22.5t-40.5 -31.5t-15.5 -35q0 -19 12 -32t34 -13q17 0 30 5.5t24 12.5v-86q-10 -5 -33.5 -14.5t-56.5 -9.5z" />
    <glyph glyph-name="tilde" unicode="&#x2dc;" horiz-adv-x="462" 
d="M299 589q-26 0 -43.5 6.5t-30.5 16.5t-24 17t-25 7q-16 0 -25 -12.5t-9 -30.5h-79q0 55 33 86.5t81 31.5q26 0 43.5 -7t30 -17t24 -16.5t24.5 -6.5q18 0 26.5 12t8.5 30h78q0 -54 -32.5 -85.5t-80.5 -31.5z" />
    <glyph glyph-name="hungarumlaut" unicode="&#x2dd;" horiz-adv-x="504" 
d="M230 575l106 141h130l-138 -141h-98zM58 575l106 141h130l-138 -141h-98z" />
    <glyph glyph-name="gravecomb" unicode="&#x300;" horiz-adv-x="0" 
d="M181 575l-138 141h130l106 -141h-98z" />
    <glyph glyph-name="acutecomb" unicode="&#x301;" horiz-adv-x="0" 
d="M74 575l106 141h130l-138 -141h-98z" />
    <glyph glyph-name="uni0302" unicode="&#x302;" horiz-adv-x="0" 
d="M80 573l132 143h68l132 -143h-102l-64 70l-64 -70h-102z" />
    <glyph glyph-name="tildecomb" unicode="&#x303;" horiz-adv-x="0" 
d="M299 589q-26 0 -43.5 6.5t-30.5 16.5t-24 17t-25 7q-16 0 -25 -12.5t-9 -30.5h-79q0 55 33 86.5t81 31.5q26 0 43.5 -7t30 -17t24 -16.5t24.5 -6.5q18 0 26.5 12t8.5 30h78q0 -54 -32.5 -85.5t-80.5 -31.5z" />
    <glyph glyph-name="uni0304" unicode="&#x304;" horiz-adv-x="0" 
d="M94 623v92h358v-92h-358z" />
    <glyph glyph-name="uni0306" unicode="&#x306;" horiz-adv-x="0" 
d="M242 566q-67 0 -113.5 40.5t-48.5 109.5h84q5 -30 24.5 -48t53.5 -18t54 19.5t24 46.5h84q-2 -69 -48 -109.5t-114 -40.5z" />
    <glyph glyph-name="uni0307" unicode="&#x307;" horiz-adv-x="0" 
d="M152 580q-28 0 -48 20t-20 48t20 48t48 20q29 0 49 -20t20 -48t-20 -48t-49 -20z" />
    <glyph glyph-name="uni0308" unicode="&#x308;" horiz-adv-x="0" 
d="M361 585q-29 0 -49 20.5t-20 47.5q0 29 20 48.5t49 19.5q28 0 48 -19.5t20 -48.5q0 -27 -20 -47.5t-48 -20.5zM151 585q-29 0 -49 20.5t-20 47.5q0 29 20 48.5t49 19.5q28 0 48 -19.5t20 -48.5q0 -27 -20 -47.5t-48 -20.5z" />
    <glyph glyph-name="uni030A" unicode="&#x30a;" horiz-adv-x="0" 
d="M166 556q-37 0 -62.5 25t-25.5 61t25.5 61t62.5 25q38 0 63 -25t25 -61t-25 -61t-63 -25zM166 602q16 0 27.5 11.5t11.5 28.5q0 16 -11.5 28t-27.5 12t-28 -12t-12 -28q0 -17 12 -28.5t28 -11.5z" />
    <glyph glyph-name="uni030B" unicode="&#x30b;" horiz-adv-x="0" 
d="M230 575l106 141h130l-138 -141h-98zM58 575l106 141h130l-138 -141h-98z" />
    <glyph glyph-name="uni030C" unicode="&#x30c;" horiz-adv-x="0" 
d="M204 573l-132 143h102l64 -70l64 70h102l-132 -143h-68z" />
    <glyph glyph-name="uni0312" unicode="&#x312;" horiz-adv-x="0" 
d="M172 729q19 0 33.5 -5.5t24.5 -12.5v-65q-22 17 -51 17q-20 0 -32.5 -11t-12.5 -29q0 -17 13.5 -27t29.5 -10v-60q-43 0 -75.5 25t-32.5 70q0 36 15.5 60t39.5 36t48 12z" />
    <glyph glyph-name="uni0326" unicode="&#x326;" horiz-adv-x="0" 
d="M122 -225q-19 0 -33.5 5.5t-24.5 12.5v65q22 -17 51 -17q20 0 32.5 11t12.5 29q0 17 -13.5 27t-29.5 10v60q43 0 75.5 -25t32.5 -70q0 -35 -15.5 -59.5t-39 -36.5t-48.5 -12z" />
    <glyph glyph-name="uni0327" unicode="&#x327;" horiz-adv-x="0" 
d="M162 -240q-15 0 -39 6t-40 19l7 63q16 -8 33 -15.5t39 -7.5q15 0 26 8t11 21t-10 20t-26 7q-7 0 -15 -2t-18 -7l-19 12l13 118h62l-5 -62q41 3 67.5 -20.5t26.5 -60.5q0 -44 -30.5 -71.5t-82.5 -27.5z" />
    <glyph glyph-name="uni0328" unicode="&#x328;" horiz-adv-x="0" 
d="M284 -225q-30 0 -57.5 11t-45.5 33t-18 55q0 35 19 61t45.5 42.5t48.5 23.5h104q-25 -8 -50 -22.5t-40.5 -31.5t-15.5 -35q0 -19 12 -32t34 -13q17 0 30 5.5t24 12.5v-86q-10 -5 -33.5 -14.5t-56.5 -9.5z" />
    <glyph glyph-name="Wgrave" unicode="&#x1e80;" horiz-adv-x="960" 
d="M235 0l-223 670h146l131 -438l147 438l86 -1l146 -437l134 438h146l-228 -670h-87l-155 446l-156 -446h-87zM434 741l-138 141h130l106 -141h-98z" />
    <glyph glyph-name="wgrave" unicode="&#x1e81;" horiz-adv-x="783" 
d="M185 0l-174 504h130l97 -310l113 310h82l113 -310l96 310h130l-175 -504h-84l-121 332l-122 -332h-85zM343 575l-138 141h130l106 -141h-98z" />
    <glyph glyph-name="Wacute" unicode="&#x1e82;" horiz-adv-x="960" 
d="M235 0l-223 670h146l131 -438l147 438l86 -1l146 -437l134 438h146l-228 -670h-87l-155 446l-156 -446h-87zM415 741l106 141h130l-138 -141h-98z" />
    <glyph glyph-name="wacute" unicode="&#x1e83;" horiz-adv-x="783" 
d="M185 0l-174 504h130l97 -310l113 310h82l113 -310l96 310h130l-175 -504h-84l-121 332l-122 -332h-85zM324 575l106 141h130l-138 -141h-98z" />
    <glyph glyph-name="Wdieresis" unicode="&#x1e84;" horiz-adv-x="960" 
d="M235 0l-223 670h146l131 -438l147 438l86 -1l146 -437l134 438h146l-228 -670h-87l-155 446l-156 -446h-87zM585 751q-29 0 -49 20.5t-20 47.5q0 29 20 48.5t49 19.5q28 0 48 -19.5t20 -48.5q0 -27 -20 -47.5t-48 -20.5zM375 751q-29 0 -49 20.5t-20 47.5q0 29 20 48.5
t49 19.5q28 0 48 -19.5t20 -48.5q0 -27 -20 -47.5t-48 -20.5z" />
    <glyph glyph-name="wdieresis" unicode="&#x1e85;" horiz-adv-x="783" 
d="M185 0l-174 504h130l97 -310l113 310h82l113 -310l96 310h130l-175 -504h-84l-121 332l-122 -332h-85zM494 585q-29 0 -49 20.5t-20 47.5q0 29 20 48.5t49 19.5q28 0 48 -19.5t20 -48.5q0 -27 -20 -47.5t-48 -20.5zM284 585q-29 0 -49 20.5t-20 47.5q0 29 20 48.5
t49 19.5q28 0 48 -19.5t20 -48.5q0 -27 -20 -47.5t-48 -20.5z" />
    <glyph glyph-name="uni1E9E" unicode="&#x1e9e;" horiz-adv-x="691" 
d="M98 -106v826h495v-826h-495zM223 11h245v592h-245v-592z" />
    <glyph glyph-name="Ygrave" unicode="&#x1ef2;" horiz-adv-x="675" 
d="M303 197l-291 473h152l173 -294l174 294h152l-297 -473h-63zM271 0v284h133v-284h-133zM292 741l-138 141h130l106 -141h-98z" />
    <glyph glyph-name="ygrave" unicode="&#x1ef3;" horiz-adv-x="591" 
d="M79 -240l196 358l170 386h135l-367 -744h-134zM243 6l-232 498h138l185 -410zM248 575l-138 141h130l106 -141h-98z" />
    <glyph glyph-name="endash" unicode="&#x2013;" horiz-adv-x="606" 
d="M60 200v114h490v-114h-490z" />
    <glyph glyph-name="emdash" unicode="&#x2014;" horiz-adv-x="888" 
d="M60 200v114h768v-114h-768z" />
    <glyph glyph-name="quoteleft" unicode="&#x2018;" horiz-adv-x="256" 
d="M146 411l-106 28l110 249l86 -16z" />
    <glyph glyph-name="quoteright" unicode="&#x2019;" horiz-adv-x="244" 
d="M110 411l-86 16l90 261l106 -28z" />
    <glyph glyph-name="quotesinglbase" unicode="&#x201a;" horiz-adv-x="339" 
d="M140 -167l-86 16l78 267l106 -28z" />
    <glyph glyph-name="quotedblleft" unicode="&#x201c;" horiz-adv-x="464" 
d="M146 431l-106 28l110 249l86 -16zM342 431l-106 28l110 249l86 -16z" />
    <glyph glyph-name="quotedblright" unicode="&#x201d;" horiz-adv-x="448" 
d="M314 703l106 -28l-110 -249l-86 16zM118 703l106 -28l-110 -249l-86 16z" />
    <glyph glyph-name="quotedblbase" unicode="&#x201e;" horiz-adv-x="448" 
d="M314 121l106 -28l-110 -249l-86 16zM118 121l106 -28l-110 -249l-86 16z" />
    <glyph glyph-name="dagger" unicode="&#x2020;" horiz-adv-x="451" 
d="M165 -100v770h121v-770h-121zM40 416v104h371v-104h-371z" />
    <glyph glyph-name="daggerdbl" unicode="&#x2021;" horiz-adv-x="600" 
d="M165 -100v770h121v-770h-121zM40 153v104h371v-104h-371zM40 416v104h371v-104h-371z" />
    <glyph glyph-name="bullet" unicode="&#x2022;" horiz-adv-x="445" 
d="M222 161q-39 0 -71.5 19.5t-51.5 52t-19 70.5q0 40 19 72t51.5 51.5t71.5 19.5t71.5 -19.5t52 -51.5t19.5 -72q0 -38 -19.5 -70.5t-52 -52t-71.5 -19.5z" />
    <glyph glyph-name="ellipsis" unicode="&#x2026;" horiz-adv-x="824" 
d="M412 -18q-32 0 -55 23t-23 55t23 55t55 23q33 0 55.5 -23t22.5 -55t-22.5 -55t-55.5 -23zM682 -18q-32 0 -55 23t-23 55t23 55t55 23q33 0 55.5 -23t22.5 -55t-22.5 -55t-55.5 -23zM142 -18q-32 0 -55 23t-23 55t23 55t55 23q33 0 55.5 -23t22.5 -55t-22.5 -55t-55.5 -23
z" />
    <glyph glyph-name="guilsinglleft" unicode="&#x2039;" horiz-adv-x="379" 
d="M295 32l-235 195v38l235 203v-124l-116 -97l116 -91v-124z" />
    <glyph glyph-name="guilsinglright" unicode="&#x203a;" horiz-adv-x="373" 
d="M84 32v124l116 97l-116 91v124l235 -195v-38z" />
    <glyph glyph-name="fraction" unicode="&#x2044;" horiz-adv-x="95" 
d="M-250 0l498 670h97l-501 -670h-94z" />
    <glyph glyph-name="uni2074" unicode="&#x2074;" horiz-adv-x="288" 
d="M148 373v66h-128v31q37 41 75.5 90t71.5 110h46v-173h35v-58h-35v-66h-65zM104 497h44v58q-8 -11 -13.5 -19t-12.5 -17t-18 -22z" />
    <glyph glyph-name="Euro" unicode="&#x20ac;" horiz-adv-x="621" 
d="M417 -15q-65 0 -121 26t-97 72.5t-63.5 111t-22.5 140.5t22.5 140.5t63.5 111t97 72.5t121 26q30 0 60.5 -8t56 -22t41.5 -30v-131q-26 25 -62.5 46.5t-84.5 21.5q-57 0 -98 -29.5t-63 -81t-22 -116.5t22 -116t63 -81t98 -30q46 0 80 15t61 38v-125q-31 -25 -70 -38
t-82 -13zM46 230v78h433v-78h-433zM46 355v78h433v-78h-433z" />
    <glyph glyph-name="trademark" unicode="&#x2122;" horiz-adv-x="527" 
d="M267 467v203h35l77 -103l74 103h34v-203h-61v87l-38 -53h-18l-42 53v-87h-61zM109 467v203h60v-203h-60zM40 621v50h198v-50h-198z" />
    <glyph glyph-name="minus" unicode="&#x2212;" horiz-adv-x="610" 
d="M114 256v114h383v-114h-383z" />
    <glyph glyph-name="uni2215" unicode="&#x2215;" horiz-adv-x="687" 
d="M46 0l498 670h97l-501 -670h-94z" />
    <glyph glyph-name="approxequal" unicode="&#x2248;" horiz-adv-x="610" 
d="M412 137q-33 0 -55 9.5t-39 21.5t-32 21.5t-34 9.5q-21 0 -32.5 -16.5t-11.5 -39.5h-98q0 65 38.5 107t99.5 42q33 0 55 -9.5t39 -21.5t32 -21.5t34 -9.5q22 0 33 17t11 39h98q0 -64 -38.5 -106.5t-99.5 -42.5zM412 352q-33 0 -55 9.5t-39 21.5t-32 21.5t-34 9.5
q-21 0 -32.5 -16.5t-11.5 -39.5h-98q0 65 38.5 107t99.5 42q33 0 55 -9.5t39 -21.5t32 -21.5t34 -9.5q22 0 33 17t11 39h98q0 -64 -38.5 -106.5t-99.5 -42.5z" />
    <glyph glyph-name="notequal" unicode="&#x2260;" horiz-adv-x="610" 
d="M120 66l235 460h91l-238 -460h-88zM110 352v114h391v-114h-391zM110 155v114h391v-114h-391z" />
    <glyph glyph-name="lessequal" unicode="&#x2264;" horiz-adv-x="610" 
d="M501 127l-391 228v42l391 219v-105l-255 -134l255 -145v-105zM501 0h-391v96h391v-96z" />
    <glyph glyph-name="greaterequal" unicode="&#x2265;" horiz-adv-x="610" 
d="M110 127v105l255 145l-255 134v105l391 -219v-42zM110 0v96h391v-96h-391z" />
    <glyph glyph-name="i.loclTRK" horiz-adv-x="331" 
d="M134 0v504h118v-504h-118zM53 402v102h199v-102h-199zM182 580q-28 0 -48 20t-20 48t20 48t48 20q29 0 49 -20t20 -48t-20 -48t-49 -20z" />
    <glyph glyph-name="uni030C.alt" horiz-adv-x="0" 
d="M65 530l10 188h109l-30 -188h-89z" />
    </font>
</defs>
</svg>
